SplineFontDB: 2.0
FontName: FreeMonoBoldOblique
FullName: Free Monospaced Bold Oblique
FamilyName: FreeMono
Weight: Bold
Copyright: Copyleft 2002, 2003, 2005, 2008 Free Software Foundation.
Version: $Revision: 1.53 $
ItalicAngle: -12
UnderlinePosition: -100
UnderlineWidth: 50
Ascent: 800
Descent: 200
LayerCount: 2
Layer: 0 0 "Back" 
Layer: 1 0 "Fore" 
NeedsXUIDChange: 1
FSType: 0
OS2Version: 0
OS2_WeightWidthSlopeOnly: 0
OS2_UseTypoMetrics: 1
CreationTime: 1203284335
ModificationTime: 1208696065
PfmFamily: 49
TTFWeight: 700
TTFWidth: 5
LineGap: 90
VLineGap: 0
Panose: 2 7 6 9 2 2 5 9 4 4
OS2TypoAscent: 0
OS2TypoAOffset: 1
OS2TypoDescent: 0
OS2TypoDOffset: 1
OS2TypoLinegap: 0
OS2WinAscent: 100
OS2WinAOffset: 1
OS2WinDescent: -45
OS2WinDOffset: 1
HheadAscent: 100
HheadAOffset: 1
HheadDescent: 45
HheadDOffset: 1
OS2SubXSize: 650
OS2SubYSize: 699
OS2SubXOff: 47
OS2SubYOff: 140
OS2SupXSize: 650
OS2SupYSize: 699
OS2SupXOff: -163
OS2SupYOff: 479
OS2StrikeYSize: 49
OS2StrikeYPos: 258
OS2Vendor: 'GNU '
Lookup: 258 0 0 "'kern' Horizontal Kerning in Latin lookup 0"  {"'kern' Horizontal Kerning in Latin lookup 0 subtable"  } ['kern' ('latn' <'dflt' > ) ]
Lookup: 258 0 0 "'kern' Horizontal Kerning lookup 1"  {"'kern' Horizontal Kerning lookup 1 subtable"  } ['kern' ('DFLT' <'dflt' > ) ]
DEI: 0
TtTable: prep
PUSHW_1
 511
SCANCTRL
SVTCA[y-axis]
MPPEM
PUSHB_1
 8
LT
IF
PUSHB_2
 1
 1
INSTCTRL
EIF
PUSHB_2
 70
 6
CALL
IF
POP
PUSHB_1
 16
EIF
MPPEM
PUSHB_1
 20
GT
IF
POP
PUSHB_1
 128
EIF
SCVTCI
PUSHB_1
 6
CALL
NOT
IF
SVTCA[y-axis]
PUSHB_1
 4
DUP
RCVT
PUSHB_1
 3
CALL
WCVTP
PUSHB_1
 5
DUP
RCVT
PUSHB_3
 4
 75
 2
CALL
PUSHB_1
 3
CALL
WCVTP
SVTCA[x-axis]
PUSHB_1
 6
DUP
RCVT
PUSHB_1
 3
CALL
WCVTP
EIF
EndTTInstrs
TtTable: fpgm
PUSHB_1
 0
FDEF
PUSHB_1
 0
SZP0
MPPEM
PUSHB_1
 42
LT
IF
PUSHB_1
 74
SROUND
EIF
PUSHB_1
 0
SWAP
MIAP[rnd]
RTG
PUSHB_1
 6
CALL
IF
RTDG
EIF
MPPEM
PUSHB_1
 42
LT
IF
RDTG
EIF
DUP
MDRP[rp0,rnd,grey]
PUSHB_1
 1
SZP0
MDAP[no-rnd]
RTG
ENDF
PUSHB_1
 1
FDEF
DUP
DUP

StartChar: exclam
Encoding: 33 33 1
Width: 600
Flags: MW
LayerCount: 2
Fore
SplineSet
490 525 m 2
 398 228 l 2
 388 197 366 179 338 179 c 0
 313 179 298 194 298 219 c 0
 298 221 298 225 299 228 c 1
 333 525 l 2
 342 599 378 638 435 638 c 0
 474 638 501 613 501 577 c 0
 501 564 499 553 490 525 c 2
305 -15 m 2
 288 -15 l 2
 256 -15 234 7 234 38 c 0
 234 78 274 117 316 117 c 2
 333 117 l 2
 365 117 387 95 387 65 c 0
 387 24 348 -15 305 -15 c 2
EndSplineSet
Validated: 3073
EndChar

StartChar: quotedbl
Encoding: 34 34 2
Width: 600
Flags: MW
LayerCount: 2
Fore
SplineSet
264 602 m 1
 392 602 l 1
 306 348 l 2
 298 323 287 312 267 312 c 0
 253 312 243 322 243 335 c 0
 243 337 244 342 244 347 c 2
 264 602 l 1
464 602 m 1
 592 602 l 1
 507 348 l 2
 498 322 487 312 467 312 c 0
 453 312 443 322 443 335 c 0
 443 336 444 342 444 347 c 2
 464 602 l 1
EndSplineSet
Validated: 3073
EndChar

StartChar: numbersign
Encoding: 35 35 3
Width: 600
Flags: MW
LayerCount: 2
Fore
SplineSet
165 384 m 0
 165 406 176 444 243 444 c 2
 270 444 l 1
 317 612 l 2
 328 654 349 675 382 675 c 0
 404 675 422 658 422 638 c 0
 422 630 421 624 416 605 c 2
 370 444 l 1
 442 444 l 1
 489 612 l 2
 493 628 504 675 554 675 c 0
 576 675 594 658 594 635 c 0
 594 630 594 630 587 605 c 2
 541 444 l 1
 566 444 l 2
 597 444 623 440 623 404 c 0
 623 379 607 344 545 344 c 2
 513 344 l 1
 483 238 l 1
 502 238 l 2
 535 238 560 233 560 199 c 0
 560 174 544 139 481 139 c 2
 455 139 l 1
 408 -29 l 2
 399 -58 382 -92 342 -92 c 0
 320 -92 303 -75 303 -54 c 0
 303 -46 303 -46 310 -22 c 2
 356 139 l 1
 284 139 l 1
 236 -29 l 2
 224 -69 205 -92 172 -92 c 0
 150 -92 132 -75 132 -54 c 0
 132 -46 133 -39 138 -22 c 2
 184 139 l 1
 158 139 l 2
 117 139 101 150 101 179 c 0
 101 200 113 238 179 238 c 2
 212 238 l 1
 242 344 l 1
 222 344 l 2
 189 344 165 349 165 384 c 0
414 344 m 1
 342 344 l 1
 312 238 l 1
 383 238 l 1
 414 344 l 1
EndSplineSet
Validated: 3073
EndChar

StartChar: dollar
Encoding: 36 36 4
Width: 600
Flags: MW
LayerCount: 2
Fore
SplineSet
487 646 m 0
 487 637 480 605 477 592 c 1
 488 590 492 590 500 588 c 2
 510 585 l 2
 522 580 527 577 541 574 c 1
 553 579 560 581 570 581 c 0
 593 581 610 565 610 544 c 0
 610 537 609 527 606 515 c 2
 599 483 l 2
 596 469 587 417 535 417 c 0
 507 417 492 432 492 460 c 0
 492 478 455 495 415 495 c 0
 350 495 302 465 302 424 c 0
 302 402 323 386 366 377 c 2
 428 363 l 2
 525 342 564 306 564 235 c 0
 564 134 481 50 357 27 c 1
 339 -56 l 2
 336 -68 327 -123 276 -123 c 0
 253 -123 236 -107 236 -86 c 0
 236 -79 237 -69 240 -56 c 2
 258 27 l 1
 218 36 212 38 184 52 c 1
 165 38 155 34 141 34 c 0
 117 34 100 50 100 72 c 0
 100 78 101 85 104 101 c 2
 117 162 l 2
 130 224 167 229 182 229 c 0
 223 229 221 198 222 180 c 0
 224 149 271 124 328 124 c 0
 399 124 458 164 458 214 c 0
 458 240 437 255 389 265 c 2
 319 280 l 2
 237 297 196 338 196 403 c 0
 196 493 275 575 378 592 c 1
 384 618 l 2
 387 634 397 684 448 684 c 0
 470 684 487 668 487 646 c 0
EndSplineSet
Validated: 3073
EndChar

StartChar: percent
Encoding: 37 37 5
Width: 600
Flags: MW
LayerCount: 2
Fore
SplineSet
360 617 m 0
 427 617 473 572 473 506 c 0
 473 419 389 338 299 338 c 0
 235 338 188 385 188 449 c 0
 188 535 272 617 360 617 c 0
346 552 m 0
 299 552 254 508 254 463 c 0
 254 428 279 403 314 403 c 0
 362 403 407 447 407 493 c 0
 407 527 382 552 346 552 c 0
562 331 m 2
 174 213 l 2
 166 210 158 209 153 209 c 0
 140 209 131 220 131 235 c 0
 131 253 142 264 168 272 c 2
 555 390 l 2
 568 394 570 394 576 394 c 0
 590 394 599 383 599 368 c 0
 599 350 588 338 562 331 c 2
425 264 m 0
 492 264 538 219 538 153 c 0
 538 66 454 -15 364 -15 c 0
 300 -15 253 32 253 96 c 0
 253 182 337 264 425 264 c 0
411 199 m 0
 365 199 320 155 320 109 c 0
 320 75 345 50 379 50 c 0
 427 50 472 93 472 139 c 0
 472 175 447 199 411 199 c 0
EndSplineSet
Validated: 3073
EndChar

StartChar: ampersand
Encoding: 38 38 6
Width: 600
Flags: MW
LayerCount: 2
Fore
SplineSet
520 60 m 0
 520 35 504 0 442 0 c 2
 381 0 l 1
 373 15 l 1
 339 -6 307 -14 255 -14 c 0
 160 -14 102 32 102 106 c 0
 102 186 152 260 236 303 c 1
 223 336 219 355 219 374 c 0
 219 460 315 550 406 550 c 0
 430 550 449 545 473 533 c 1
 485 538 495 540 503 540 c 0
 523 540 541 521 541 501 c 0
 541 473 528 458 488 438 c 2
 441 416 l 1
 419 442 405 450 385 450 c 0
 353 450 321 421 321 392 c 0
 321 384 329 362 338 343 c 2
 407 198 l 1
 448 280 l 1
 500 280 l 2
 534 280 557 275 557 241 c 0
 557 210 531 182 502 180 c 1
 483 140 472 121 455 100 c 1
 463 100 l 2
 494 100 520 96 520 60 c 0
333 100 m 1
 275 220 l 1
 231 201 204 167 204 129 c 0
 204 100 228 86 275 86 c 0
 300 86 312 89 333 100 c 1
EndSplineSet
Validated: 3073
EndChar

StartChar: quotesingle
Encoding: 39 39 7
Width: 600
Flags: MW
LayerCount: 2
Fore
SplineSet
364 602 m 1
 492 602 l 1
 407 348 l 2
 398 322 387 312 367 312 c 0
 353 312 343 322 343 335 c 0
 343 337 344 342 344 347 c 2
 364 602 l 1
EndSplineSet
Validated: 3073
EndChar

StartChar: parenleft
Encoding: 40 40 8
Width: 600
Flags: MW
LayerCount: 2
Fore
SplineSet
416 140 m 0
 416 1 467 -51 467 -92 c 0
 467 -124 437 -153 405 -153 c 0
 389 -153 377 -147 370 -134 c 0
 333 -72 304 44 304 131 c 0
 304 269 356 398 471 547 c 0
 524 615 544 632 572 632 c 0
 596 632 613 616 613 593 c 0
 613 578 608 567 593 549 c 0
 470 401 416 276 416 140 c 0
EndSplineSet
Validated: 3073
EndChar

StartChar: parenright
Encoding: 41 41 9
Width: 600
Flags: MW
LayerCount: 2
Fore
SplineSet
291 340 m 0
 291 479 240 531 240 571 c 0
 240 603 269 632 302 632 c 0
 318 632 330 626 337 613 c 0
 374 551 403 435 403 348 c 0
 403 210 353 84 236 -68 c 0
 184 -135 163 -153 135 -153 c 0
 111 -153 94 -137 94 -114 c 0
 94 -99 99 -88 114 -70 c 0
 239 81 291 202 291 340 c 0
EndSplineSet
Validated: 3073
EndChar

StartChar: asterisk
Encoding: 42 42 10
Width: 600
Flags: MW
LayerCount: 2
Fore
SplineSet
298 372 m 1
 218 400 l 2
 188 410 178 420 178 441 c 0
 178 472 207 502 238 502 c 0
 246 502 249 501 269 495 c 2
 349 467 l 1
 368 556 l 2
 378 600 399 622 432 622 c 0
 455 622 472 606 472 584 c 0
 472 578 471 569 468 556 c 2
 449 467 l 1
 541 495 l 2
 563 501 566 502 576 502 c 0
 597 502 614 484 614 462 c 0
 614 432 595 413 552 400 c 2
 460 372 l 1
 497 301 l 2
 506 283 508 276 508 267 c 0
 508 238 477 208 446 208 c 0
 426 208 417 214 403 242 c 2
 367 314 l 1
 299 242 l 2
 273 214 263 208 243 208 c 0
 219 208 202 225 202 248 c 0
 202 265 208 276 231 301 c 2
 298 372 l 1
EndSplineSet
Validated: 3073
EndChar

StartChar: plus
Encoding: 43 43 11
Width: 600
Flags: MW
LayerCount: 2
Fore
SplineSet
619 290 m 0
 619 266 603 230 541 230 c 2
 399 230 l 1
 365 66 l 2
 362 53 353 0 301 0 c 0
 278 0 261 16 261 37 c 0
 261 44 263 57 265 66 c 2
 299 230 l 1
 158 230 l 2
 117 230 101 241 101 270 c 0
 101 293 113 330 179 330 c 2
 321 330 l 1
 355 494 l 2
 365 538 386 560 420 560 c 0
 443 560 460 544 460 522 c 0
 460 515 459 513 455 494 c 2
 421 330 l 1
 562 330 l 2
 599 330 619 325 619 290 c 0
EndSplineSet
Validated: 3073
EndChar

StartChar: comma
Encoding: 44 44 12
Width: 600
Flags: MW
LayerCount: 2
Fore
SplineSet
246 134 m 5
 379 134 l 5
 181 -134 l 6
 169 -150 156 -158 144 -158 c 4
 130 -158 118 -148 118 -136 c 4
 118 -129 119 -125 126 -111 c 6
 246 134 l 5
EndSplineSet
Validated: 3073
EndChar

StartChar: hyphen
Encoding: 45 45 13
Width: 600
Flags: MW
LayerCount: 2
Fore
SplineSet
619 290 m 0
 619 265 603 229 541 229 c 2
 158 229 l 2
 117 229 101 240 101 269 c 0
 101 294 117 329 179 329 c 2
 562 329 l 2
 595 329 619 324 619 290 c 0
EndSplineSet
Validated: 3073
EndChar

StartChar: period
Encoding: 46 46 14
Width: 600
Flags: MW
LayerCount: 2
Fore
SplineSet
305 -15 m 2
 288 -15 l 2
 256 -15 234 7 234 38 c 0
 234 78 274 117 316 117 c 2
 333 117 l 2
 365 117 387 95 387 65 c 0
 387 24 347 -15 305 -15 c 2
EndSplineSet
Validated: 3073
EndChar

StartChar: slash
Encoding: 47 47 15
Width: 600
Flags: MW
LayerCount: 2
Fore
SplineSet
636 610 m 2
 171 -69 l 2
 148 -103 134 -113 110 -113 c 0
 87 -113 69 -96 69 -74 c 0
 69 -61 75 -49 90 -27 c 2
 555 651 l 2
 578 685 592 695 616 695 c 0
 639 695 656 678 656 656 c 0
 656 643 652 634 636 610 c 2
EndSplineSet
Validated: 3073
EndChar

StartChar: zero
Encoding: 48 48 16
Width: 600
Flags: MW
LayerCount: 2
Fore
SplineSet
593 359 m 2
 573 264 l 2
 533 73 408 -15 296 -15 c 0
 190 -15 130 55 130 179 c 0
 130 207 133 236 139 264 c 2
 159 359 l 2
 199 550 323 638 436 638 c 0
 542 638 602 568 602 444 c 0
 602 416 599 387 593 359 c 2
260 366 m 2
 238 257 l 2
 233 237 231 216 231 195 c 0
 231 126 263 85 318 85 c 0
 388 85 449 153 471 257 c 2
 494 366 l 2
 499 386 501 407 501 428 c 0
 501 498 469 538 414 538 c 0
 343 538 281 470 260 366 c 2
EndSplineSet
Validated: 3073
EndChar

StartChar: one
Encoding: 49 49 17
Width: 600
Flags: MW
LayerCount: 2
Fore
SplineSet
93 40 m 0
 93 66 109 100 171 100 c 2
 272 100 l 1
 358 509 l 1
 267 486 l 2
 246 481 243 480 233 480 c 0
 212 480 197 496 197 520 c 0
 197 554 215 572 262 583 c 2
 486 638 l 1
 371 100 l 1
 472 100 l 2
 506 100 529 95 529 61 c 0
 529 37 513 0 451 0 c 2
 150 0 l 2
 109 0 93 12 93 40 c 0
EndSplineSet
Validated: 3073
EndChar

StartChar: two
Encoding: 50 50 18
Width: 600
Flags: MW
LayerCount: 2
Fore
SplineSet
173 460 m 0
 173 496 255 638 426 638 c 0
 530 638 602 575 602 484 c 0
 602 360 481 284 352 189 c 2
 228 100 l 1
 430 100 l 1
 440 136 460 154 491 154 c 0
 514 154 531 138 531 116 c 0
 531 109 531 105 527 88 c 2
 508 0 l 1
 54 0 l 1
 76 105 l 1
 350 301 l 2
 486 399 500 422 500 465 c 0
 500 507 459 538 403 538 c 0
 266 538 287 422 214 422 c 0
 192 422 173 439 173 460 c 0
EndSplineSet
Validated: 3073
EndChar

StartChar: three
Encoding: 51 51 19
Width: 600
Flags: MW
LayerCount: 2
Fore
SplineSet
286 85 m 0
 442 85 469 154 469 201 c 0
 469 235 446 282 337 287 c 0
 308 289 294 301 294 324 c 0
 294 355 324 383 357 383 c 2
 398 383 l 2
 454 383 507 429 507 477 c 0
 507 515 470 538 410 538 c 0
 287 538 302 477 246 477 c 0
 224 477 206 494 206 516 c 0
 206 578 320 638 438 638 c 0
 543 638 609 582 609 495 c 0
 609 430 569 376 494 336 c 0
 493 336 490 335 487 333 c 1
 544 302 571 262 571 211 c 0
 571 163 539 99 494 58 c 0
 438 6 372 -15 268 -15 c 0
 156 -15 80 15 80 58 c 0
 80 91 109 120 142 120 c 0
 175 120 159 85 286 85 c 0
EndSplineSet
Validated: 3073
EndChar

StartChar: four
Encoding: 52 52 20
Width: 600
Flags: MW
LayerCount: 2
Fore
SplineSet
252 40 m 0
 252 64 268 100 330 100 c 2
 368 100 l 1
 376 138 l 1
 104 138 l 1
 122 221 l 1
 448 622 l 1
 579 622 l 1
 497 238 l 1
 533 238 549 226 549 198 c 0
 549 178 535 138 476 138 c 1
 468 100 l 1
 503 100 520 87 520 60 c 0
 520 37 505 0 441 0 c 2
 309 0 l 2
 268 0 252 12 252 40 c 0
397 238 m 1
 449 480 l 1
 248 238 l 1
 397 238 l 1
EndSplineSet
Validated: 3073
EndChar

StartChar: five
Encoding: 53 53 21
Width: 600
Flags: MW
LayerCount: 2
Fore
SplineSet
610 583 m 0
 610 557 594 522 532 522 c 2
 330 522 l 1
 306 407 l 1
 345 418 379 424 410 424 c 0
 511 424 578 357 578 255 c 0
 578 164 523 -15 274 -15 c 0
 165 -15 83 22 83 72 c 0
 83 104 113 133 145 133 c 0
 183 133 169 85 295 85 c 0
 449 85 476 174 476 236 c 0
 476 290 441 324 387 324 c 0
 318 324 252 282 229 282 c 0
 207 282 189 299 189 320 c 2
 189 322 l 2
 189 327 190 332 191 338 c 2
 252 622 l 1
 553 622 l 2
 587 622 610 617 610 583 c 0
EndSplineSet
Validated: 3073
EndChar

StartChar: six
Encoding: 54 54 22
Width: 600
Flags: MW
LayerCount: 2
Fore
SplineSet
600 522 m 0
 576 522 564 535 543 535 c 0
 435 535 327 446 276 324 c 1
 335 374 377 394 428 394 c 0
 515 394 581 327 581 238 c 0
 581 184 537 -15 328 -15 c 0
 212 -15 154 50 154 180 c 0
 154 428 321 551 398 594 c 0
 452 624 502 638 559 638 c 0
 622 638 663 616 663 583 c 0
 663 552 632 522 600 522 c 0
401 294 m 0
 345 294 261 232 261 194 c 0
 261 107 304 85 352 85 c 0
 459 85 478 189 478 214 c 0
 478 260 445 294 401 294 c 0
EndSplineSet
Validated: 3073
EndChar

StartChar: seven
Encoding: 55 55 23
Width: 600
Flags: MW
LayerCount: 2
Fore
SplineSet
513 522 m 1
 285 522 l 1
 275 486 255 468 224 468 c 0
 201 468 184 484 184 506 c 0
 184 512 185 521 188 534 c 2
 207 622 l 1
 640 622 l 1
 619 523 l 1
 359 48 l 2
 339 12 322 -1 295 -1 c 0
 273 -1 254 17 254 37 c 0
 254 48 257 57 270 81 c 2
 513 522 l 1
EndSplineSet
Validated: 3073
EndChar

StartChar: eight
Encoding: 56 56 24
Width: 600
Flags: MW
LayerCount: 2
Fore
SplineSet
185 429 m 0
 185 515 285 638 435 638 c 0
 537 638 608 576 608 489 c 0
 608 421 569 367 487 319 c 1
 534 286 556 246 556 198 c 0
 556 154 533 101 499 64 c 0
 454 16 375 -15 295 -15 c 0
 183 -15 114 40 114 129 c 0
 114 205 161 271 248 319 c 1
 204 353 185 386 185 429 c 0
413 538 m 0
 341 538 285 492 285 433 c 0
 285 392 321 364 376 364 c 0
 447 364 505 410 505 466 c 0
 505 511 470 538 413 538 c 0
357 263 m 0
 283 263 218 214 218 158 c 0
 218 113 257 85 318 85 c 0
 394 85 456 131 456 187 c 0
 456 231 414 263 357 263 c 0
EndSplineSet
Validated: 3073
EndChar

StartChar: nine
Encoding: 57 57 25
Width: 600
Flags: MW
LayerCount: 2
Fore
SplineSet
178 101 m 0
 203 101 213 88 235 88 c 0
 338 88 450 174 502 299 c 1
 442 248 401 229 350 229 c 0
 263 229 197 296 197 385 c 0
 197 437 238 638 450 638 c 0
 566 638 624 573 624 443 c 0
 624 195 457 72 380 29 c 0
 326 -1 276 -15 219 -15 c 0
 157 -15 115 7 115 40 c 0
 115 71 146 101 178 101 c 0
377 329 m 0
 435 329 517 395 517 428 c 0
 517 516 476 538 426 538 c 0
 319 538 300 433 300 408 c 0
 300 363 333 329 377 329 c 0
EndSplineSet
Validated: 3073
EndChar

StartChar: colon
Encoding: 58 58 26
Width: 600
Flags: MW
LayerCount: 2
Fore
SplineSet
305 -15 m 2
 288 -15 l 2
 256 -15 234 7 234 38 c 0
 234 78 274 117 316 117 c 2
 333 117 l 2
 365 117 387 95 387 65 c 0
 387 24 348 -15 305 -15 c 2
373 304 m 2
 356 304 l 2
 324 304 302 326 302 357 c 0
 302 398 342 437 384 437 c 2
 401 437 l 2
 433 437 455 415 455 384 c 0
 455 343 415 304 373 304 c 2
EndSplineSet
Validated: 3073
EndChar

StartChar: semicolon
Encoding: 59 59 27
Width: 600
Flags: MW
LayerCount: 2
Fore
SplineSet
247 134 m 1
 379 134 l 1
 181 -134 l 2
 169 -150 156 -158 144 -158 c 0
 130 -158 118 -148 118 -136 c 0
 118 -129 119 -125 126 -111 c 2
 247 134 l 1
368 437 m 0
 409 437 431 418 431 384 c 0
 431 339 391 304 340 304 c 0
 301 304 278 323 278 357 c 0
 278 401 318 437 368 437 c 0
EndSplineSet
Validated: 3073
EndChar

StartChar: less
Encoding: 60 60 28
Width: 600
Flags: MW
LayerCount: 2
Fore
SplineSet
609 501 m 0
 616 501 642 493 642 463 c 0
 642 442 629 425 600 412 c 2
 311 279 l 1
 543 143 l 2
 561 132 567 124 567 109 c 0
 567 86 541 54 514 54 c 0
 506 54 496 57 486 63 c 2
 102 280 l 1
 577 492 l 2
 590 498 601 501 609 501 c 0
EndSplineSet
Validated: 3073
EndChar

StartChar: equal
Encoding: 61 61 29
Width: 600
Flags: MW
LayerCount: 2
Fore
SplineSet
120 362 m 0
 120 385 132 422 198 422 c 2
 581 422 l 2
 618 422 638 417 638 382 c 0
 638 358 622 322 560 322 c 2
 177 322 l 2
 136 322 120 333 120 362 c 0
81 178 m 0
 81 201 93 238 159 238 c 2
 542 238 l 2
 579 238 599 233 599 198 c 0
 599 173 583 138 521 138 c 2
 138 138 l 2
 97 138 81 149 81 178 c 0
EndSplineSet
Validated: 3073
EndChar

StartChar: greater
Encoding: 62 62 30
Width: 600
Flags: MW
LayerCount: 2
Fore
SplineSet
109 53 m 0
 102 53 76 61 76 91 c 0
 76 113 89 129 118 142 c 2
 407 275 l 1
 175 412 l 2
 157 422 151 430 151 445 c 0
 151 474 183 500 204 500 c 0
 212 500 222 497 232 491 c 2
 616 274 l 1
 141 62 l 2
 128 56 116 53 109 53 c 0
EndSplineSet
Validated: 3073
EndChar

StartChar: question
Encoding: 63 63 31
Width: 600
Flags: MW
LayerCount: 2
Fore
SplineSet
608 450 m 0
 608 324 509 271 401 228 c 1
 389 192 368 174 339 174 c 0
 317 174 299 191 299 211 c 0
 299 219 300 221 304 240 c 2
 315 296 l 1
 466 349 506 377 506 428 c 0
 506 472 473 498 415 498 c 0
 377 498 340 490 304 474 c 1
 301 460 l 2
 298 448 289 394 237 394 c 0
 215 394 197 410 197 431 c 0
 197 437 198 447 201 460 c 2
 218 539 l 1
 327 586 370 598 436 598 c 0
 543 598 608 542 608 450 c 0
308 -15 m 2
 290 -15 l 2
 258 -15 236 7 236 38 c 0
 236 78 276 117 318 117 c 2
 336 117 l 2
 367 117 389 95 389 65 c 0
 389 24 350 -15 308 -15 c 2
EndSplineSet
Validated: 3073
EndChar

StartChar: at
Encoding: 64 64 32
Width: 600
Flags: MW
LayerCount: 2
Fore
SplineSet
534 122 m 0
 534 103 524 72 469 72 c 2
 396 72 l 2
 316 72 262 122 262 196 c 0
 262 299 364 389 492 398 c 1
 496 417 501 436 501 458 c 0
 501 509 469 541 417 541 c 0
 333 541 249 445 222 317 c 2
 189 161 l 2
 182 130 179 103 179 78 c 0
 179 -4 204 -74 289 -74 c 0
 390 -74 404 -25 434 -25 c 0
 453 -25 466 -38 466 -57 c 0
 466 -107 373 -152 269 -152 c 0
 124 -152 98 -27 98 59 c 0
 98 90 101 122 108 154 c 2
 144 323 l 2
 181 495 302 620 433 620 c 0
 524 620 582 563 582 473 c 0
 582 459 580 444 577 429 c 2
 517 148 l 1
 530 142 534 135 534 122 c 0
440 155 m 1
 474 316 l 1
 400 309 343 264 343 211 c 0
 343 177 372 153 413 153 c 0
 419 153 426 153 440 155 c 1
EndSplineSet
Validated: 3073
EndChar

StartChar: A
Encoding: 65 65 33
Width: 600
Flags: MW
LayerCount: 2
Fore
SplineSet
360 40 m 0
 360 66 376 100 438 100 c 2
 461 100 l 1
 450 158 l 1
 212 158 l 1
 176 100 l 1
 199 100 l 2
 230 100 256 96 256 60 c 0
 256 36 240 0 178 0 c 2
 46 0 l 2
 5 0 -11 11 -11 40 c 0
 -11 66 5 100 68 100 c 1
 304 483 l 1
 241 483 l 2
 200 483 184 494 184 523 c 0
 184 545 195 583 262 583 c 2
 478 583 l 1
 575 100 l 1
 607 100 633 96 633 60 c 0
 633 35 617 0 555 0 c 2
 416 0 l 2
 376 0 360 11 360 40 c 0
430 258 m 1
 392 450 l 1
 273 258 l 1
 430 258 l 1
EndSplineSet
Validated: 3073
EndChar

StartChar: B
Encoding: 66 66 34
Width: 600
Flags: MW
LayerCount: 2
Fore
SplineSet
22 40 m 0
 22 65 38 100 100 100 c 2
 115 100 l 1
 196 483 l 1
 181 483 l 2
 140 483 125 494 125 523 c 0
 125 549 141 583 203 583 c 2
 455 583 l 2
 587 583 620 500 620 448 c 0
 620 391 590 345 529 305 c 1
 584 275 608 239 608 189 c 0
 608 147 585 97 549 63 c 0
 505 21 446 0 374 0 c 2
 79 0 l 2
 38 0 22 12 22 40 c 0
266 342 m 1
 379 342 l 2
 458 342 518 380 518 431 c 0
 518 464 485 483 429 483 c 2
 296 483 l 1
 266 342 l 1
215 100 m 1
 390 100 l 2
 464 100 504 123 504 166 c 0
 504 213 456 242 380 242 c 2
 245 242 l 1
 215 100 l 1
EndSplineSet
Validated: 3073
EndChar

StartChar: C
Encoding: 67 67 35
Width: 600
Flags: MW
LayerCount: 2
Fore
SplineSet
538 404 m 2
 539 427 l 2
 539 464 481 497 415 497 c 0
 216 497 182 266 182 214 c 0
 182 135 245 86 347 86 c 0
 488 86 504 159 547 159 c 0
 570 159 588 141 588 118 c 0
 588 68 482 -14 324 -14 c 0
 176 -14 80 69 80 195 c 0
 80 213 82 231 86 249 c 2
 100 315 l 2
 134 475 277 597 432 597 c 0
 482 597 516 590 576 559 c 1
 593 576 606 583 623 583 c 0
 646 583 663 567 663 545 c 0
 663 538 663 534 659 517 c 2
 641 433 l 2
 638 420 628 367 577 367 c 0
 554 367 538 382 538 404 c 2
EndSplineSet
Validated: 3073
EndChar

StartChar: D
Encoding: 68 68 36
Width: 600
Flags: MW
LayerCount: 2
Fore
SplineSet
23 40 m 0
 23 60 38 100 96 100 c 1
 177 483 l 1
 142 483 126 496 126 523 c 0
 126 546 138 583 204 583 c 2
 417 583 l 2
 539 583 622 497 622 369 c 0
 622 167 489 0 285 0 c 2
 80 0 l 2
 39 0 23 12 23 40 c 0
520 350 m 0
 520 406 493 483 387 483 c 2
 277 483 l 1
 196 100 l 1
 306 100 l 2
 347 100 472 105 506 261 c 2
 516 307 l 2
 519 321 520 335 520 350 c 0
EndSplineSet
Validated: 3073
EndChar

StartChar: E
Encoding: 69 69 37
Width: 600
Flags: MW
LayerCount: 2
Fore
SplineSet
352 342 m 1
 354 358 365 416 417 416 c 0
 440 416 457 400 457 378 c 0
 457 370 457 369 453 349 c 2
 428 236 l 2
 425 222 416 170 365 170 c 0
 342 170 325 186 325 207 c 0
 325 213 328 233 331 243 c 1
 246 243 l 1
 216 100 l 1
 471 100 l 1
 483 152 l 2
 486 167 496 219 546 219 c 0
 569 219 587 203 587 182 c 0
 587 174 587 170 583 152 c 2
 550 0 l 1
 80 0 l 2
 40 0 23 12 23 40 c 0
 23 66 38 100 101 100 c 2
 116 100 l 1
 197 483 l 1
 182 483 l 2
 141 483 125 494 125 523 c 0
 125 546 137 583 204 583 c 2
 652 583 l 1
 620 433 l 2
 617 418 608 366 556 366 c 0
 534 366 516 382 516 404 c 0
 516 426 526 462 531 483 c 1
 297 483 l 1
 267 342 l 1
 352 342 l 1
EndSplineSet
Validated: 3073
EndChar

StartChar: F
Encoding: 70 70 38
Width: 600
Flags: MW
LayerCount: 2
Fore
SplineSet
351 342 m 1
 356 361 364 415 417 415 c 0
 440 415 457 399 457 377 c 0
 457 369 456 368 452 349 c 2
 428 236 l 2
 425 221 415 169 364 169 c 0
 342 169 325 185 325 206 c 0
 325 214 328 233 331 243 c 1
 246 243 l 1
 216 100 l 1
 315 100 l 2
 348 100 372 95 372 61 c 0
 372 37 356 0 294 0 c 2
 80 0 l 2
 39 0 23 12 23 40 c 0
 23 64 39 100 101 100 c 2
 116 100 l 1
 197 483 l 1
 182 483 l 2
 141 483 125 494 125 523 c 0
 125 546 137 583 204 583 c 2
 674 583 l 1
 642 432 l 2
 639 419 630 366 578 366 c 0
 556 366 538 382 538 403 c 0
 538 427 548 460 553 483 c 1
 297 483 l 1
 267 342 l 1
 351 342 l 1
EndSplineSet
Validated: 3073
EndChar

StartChar: G
Encoding: 71 71 39
Width: 600
Flags: MW
LayerCount: 2
Fore
SplineSet
585 280 m 2
 618 280 642 275 642 241 c 0
 642 212 621 189 588 180 c 1
 560 48 l 1
 460 0 407 -14 327 -14 c 0
 228 -14 79 16 79 184 c 0
 79 205 82 225 86 246 c 2
 101 317 l 2
 131 460 264 597 444 597 c 0
 498 597 544 587 583 565 c 1
 599 589 611 597 630 597 c 0
 652 597 667 582 667 560 c 0
 667 552 667 550 663 531 c 2
 646 453 l 2
 643 441 634 387 582 387 c 0
 546 387 546 411 544 440 c 0
 542 475 496 497 423 497 c 0
 313 497 223 425 201 317 c 0
 193 280 181 241 181 199 c 0
 181 127 239 86 342 86 c 0
 391 86 431 94 474 111 c 1
 488 180 l 1
 389 180 l 2
 348 180 332 191 332 220 c 0
 332 243 344 280 410 280 c 2
 585 280 l 2
EndSplineSet
Validated: 3073
EndChar

StartChar: H
Encoding: 72 72 40
Width: 600
Flags: MW
LayerCount: 2
Fore
SplineSet
337 40 m 0
 337 64 353 100 415 100 c 2
 430 100 l 1
 460 241 l 1
 246 241 l 1
 216 100 l 1
 230 100 l 2
 262 100 287 96 287 60 c 0
 287 36 271 0 209 0 c 2
 88 0 l 2
 48 0 32 11 32 40 c 0
 32 65 48 100 110 100 c 2
 116 100 l 1
 197 483 l 1
 169 485 155 498 155 523 c 0
 155 546 167 583 233 583 c 2
 333 583 l 2
 365 583 390 579 390 544 c 0
 390 518 374 483 312 483 c 2
 297 483 l 1
 267 341 l 1
 481 341 l 1
 511 483 l 1
 496 483 l 2
 463 483 440 488 440 523 c 0
 440 546 452 583 518 583 c 2
 618 583 l 2
 650 583 675 579 675 544 c 0
 675 511 649 486 611 483 c 1
 530 100 l 1
 536 100 l 2
 569 100 592 95 592 60 c 0
 592 36 577 0 515 0 c 2
 394 0 l 2
 353 0 337 11 337 40 c 0
EndSplineSet
Validated: 3073
EndChar

StartChar: I
Encoding: 73 73 41
Width: 600
Flags: MW
LayerCount: 2
Fore
SplineSet
632 544 m 0
 632 518 616 483 554 483 c 2
 453 483 l 1
 372 100 l 1
 472 100 l 2
 504 100 529 96 529 61 c 0
 529 36 513 0 451 0 c 2
 150 0 l 2
 109 0 93 11 93 40 c 0
 93 66 109 100 171 100 c 2
 272 100 l 1
 353 483 l 1
 252 483 l 2
 211 483 196 494 196 523 c 0
 196 549 212 583 274 583 c 2
 575 583 l 2
 609 583 632 578 632 544 c 0
EndSplineSet
Validated: 3073
EndChar

StartChar: J
Encoding: 74 74 42
Width: 600
Flags: MW
LayerCount: 2
Fore
SplineSet
727 543 m 0
 727 518 711 483 649 483 c 2
 592 483 l 1
 529 187 l 2
 499 45 361 -14 266 -14 c 0
 208 -14 146 6 64 51 c 1
 98 213 l 2
 101 229 113 280 163 280 c 0
 186 280 203 264 203 243 c 0
 203 235 203 232 199 213 c 2
 178 117 l 1
 223 95 255 86 288 86 c 0
 324 86 363 100 391 122 c 0
 417 143 421 152 431 198 c 0
 492 483 l 1
 373 483 l 2
 332 483 316 494 316 523 c 0
 316 546 328 583 394 583 c 2
 670 583 l 2
 701 583 727 580 727 543 c 0
EndSplineSet
Validated: 3073
EndChar

StartChar: K
Encoding: 75 75 43
Width: 600
Flags: MW
LayerCount: 2
Fore
SplineSet
614 61 m 0
 614 36 598 0 535 0 c 2
 426 0 l 1
 409 143 365 240 308 259 c 1
 238 208 l 1
 215 100 l 1
 250 100 l 2
 283 100 306 95 306 60 c 0
 306 37 290 0 228 0 c 2
 79 0 l 2
 38 0 22 12 22 40 c 0
 22 66 38 100 100 100 c 2
 115 100 l 1
 196 483 l 1
 181 483 l 2
 140 483 125 494 125 523 c 0
 125 546 137 583 203 583 c 2
 352 583 l 2
 383 583 409 580 409 543 c 0
 409 518 393 483 331 483 c 2
 296 483 l 1
 265 334 l 1
 475 487 l 1
 459 493 452 503 452 520 c 0
 452 548 468 583 530 583 c 2
 631 583 l 2
 664 583 687 578 687 544 c 0
 687 521 672 483 613 483 c 1
 404 330 l 1
 459 298 503 215 525 100 c 1
 557 100 l 2
 591 100 614 94 614 61 c 0
EndSplineSet
Validated: 3073
EndChar

StartChar: L
Encoding: 76 76 44
Width: 600
Flags: MW
LayerCount: 2
Fore
SplineSet
493 543 m 0
 493 518 477 483 415 483 c 2
 358 483 l 1
 277 100 l 1
 492 100 l 1
 512 192 l 2
 515 208 525 259 576 259 c 0
 599 259 616 243 616 221 c 0
 616 215 615 207 612 192 c 2
 571 0 l 1
 99 0 l 2
 58 0 42 12 42 40 c 0
 42 66 58 100 120 100 c 2
 177 100 l 1
 258 483 l 1
 202 483 l 2
 161 483 145 494 145 523 c 0
 145 545 156 583 223 583 c 2
 436 583 l 2
 467 583 493 580 493 543 c 0
EndSplineSet
Validated: 3073
EndChar

StartChar: M
Encoding: 77 77 45
Width: 600
Flags: MW
LayerCount: 2
Fore
SplineSet
370 40 m 0
 370 66 386 100 448 100 c 2
 483 100 l 1
 544 389 l 1
 380 138 l 1
 289 138 l 1
 224 389 l 1
 163 100 l 1
 198 100 l 2
 231 100 254 95 254 61 c 0
 254 37 238 0 176 0 c 2
 47 0 l 2
 6 0 -10 11 -10 40 c 0
 -10 61 5 100 63 100 c 1
 144 483 l 1
 115 486 102 498 102 523 c 0
 102 546 114 583 180 583 c 2
 288 583 l 1
 363 286 l 1
 562 583 l 1
 671 583 l 2
 703 583 728 579 728 544 c 0
 728 530 719 488 664 483 c 1
 583 100 l 1
 618 100 634 88 634 61 c 0
 634 36 618 0 556 0 c 2
 427 0 l 2
 386 0 370 11 370 40 c 0
EndSplineSet
Validated: 3073
EndChar

StartChar: N
Encoding: 78 78 46
Width: 600
Flags: MW
LayerCount: 2
Fore
SplineSet
706 543 m 0
 706 523 691 483 633 483 c 1
 530 0 l 1
 432 0 l 1
 256 394 l 1
 194 100 l 1
 229 100 l 2
 262 100 285 95 285 61 c 0
 285 37 269 0 207 0 c 2
 78 0 l 2
 37 0 21 11 21 40 c 0
 21 60 35 100 94 100 c 1
 175 483 l 1
 160 483 l 2
 119 483 104 494 104 523 c 0
 104 548 120 583 182 583 c 2
 296 583 l 1
 471 191 l 1
 533 483 l 1
 498 483 l 2
 457 483 442 494 442 523 c 0
 442 549 457 583 519 583 c 2
 649 583 l 2
 680 583 706 580 706 543 c 0
EndSplineSet
Validated: 3073
EndChar

StartChar: O
Encoding: 79 79 47
Width: 600
Flags: MW
LayerCount: 2
Fore
SplineSet
75 220 m 0
 75 443 277 597 426 597 c 0
 554 597 649 498 649 366 c 0
 649 138 448 -14 297 -14 c 0
 170 -14 75 86 75 220 c 0
405 497 m 0
 290 497 178 371 178 243 c 0
 178 153 237 86 317 86 c 0
 434 86 546 211 546 342 c 0
 546 431 486 497 405 497 c 0
EndSplineSet
Validated: 3073
EndChar

StartChar: P
Encoding: 80 80 48
Width: 600
Flags: MW
LayerCount: 2
Fore
SplineSet
125 523 m 0
 125 546 137 583 203 583 c 2
 436 583 l 2
 548 583 617 525 617 431 c 0
 617 384 596 331 558 289 c 0
 502 225 440 200 335 200 c 2
 237 200 l 1
 216 100 l 1
 314 100 l 2
 348 100 371 95 371 61 c 0
 371 37 355 0 293 0 c 2
 80 0 l 2
 39 0 23 12 23 40 c 0
 23 65 39 100 101 100 c 2
 116 100 l 1
 197 483 l 1
 182 483 l 2
 140 483 125 494 125 523 c 0
297 483 m 1
 258 300 l 1
 376 300 l 2
 454 300 509 347 509 414 c 0
 509 457 473 483 415 483 c 2
 297 483 l 1
EndSplineSet
Validated: 3073
EndChar

StartChar: Q
Encoding: 81 81 49
Width: 600
Flags: MW
LayerCount: 2
Fore
SplineSet
200 7 m 1
 163 31 75 80 75 220 c 0
 75 413 246 597 427 597 c 0
 555 597 649 497 649 363 c 0
 649 243 586 130 476 53 c 0
 416 10 360 -7 286 -7 c 0
 284 -7 277 -7 269 -6 c 1
 261 -30 l 1
 286 -26 298 -25 312 -25 c 0
 365 -25 408 -45 434 -45 c 0
 472 -45 493 -13 524 -13 c 0
 548 -13 565 -29 565 -52 c 0
 565 -105 468 -145 413 -145 c 0
 362 -145 346 -117 295 -117 c 0
 235 -117 162 -143 134 -143 c 0
 113 -143 96 -125 96 -104 c 0
 96 -83 103 -71 125 -53 c 2
 200 7 l 1
405 497 m 0
 290 497 177 371 177 242 c 0
 177 152 237 85 317 85 c 0
 434 85 546 210 546 342 c 0
 546 431 486 497 405 497 c 0
EndSplineSet
Validated: 3073
EndChar

StartChar: R
Encoding: 82 82 50
Width: 600
Flags: MW
LayerCount: 2
Fore
SplineSet
631 60 m 0
 631 37 615 0 553 0 c 2
 475 0 l 1
 444 98 377 207 338 222 c 1
 242 222 l 1
 216 100 l 1
 251 100 l 2
 284 100 307 94 307 60 c 0
 307 37 291 0 229 0 c 2
 80 0 l 2
 39 0 23 11 23 40 c 0
 23 64 39 100 101 100 c 2
 116 100 l 1
 197 483 l 1
 182 483 l 2
 141 483 126 494 126 523 c 0
 126 546 138 583 204 583 c 2
 427 583 l 2
 542 583 612 528 612 438 c 0
 612 362 564 301 469 254 c 1
 506 214 534 166 561 100 c 1
 574 100 l 2
 616 100 631 90 631 60 c 0
263 322 m 1
 339 322 l 2
 430 322 504 366 504 420 c 0
 504 458 466 483 409 483 c 2
 297 483 l 1
 263 322 l 1
EndSplineSet
Validated: 3073
EndChar

StartChar: S
Encoding: 83 83 51
Width: 600
Flags: MW
LayerCount: 2
Fore
SplineSet
273 411 m 0
 273 306 576 377 576 199 c 0
 576 77 461 -14 306 -14 c 0
 252 -14 202 -1 158 25 c 1
 137 6 128 1 112 1 c 0
 89 1 72 17 72 38 c 0
 72 44 73 55 76 67 c 2
 90 133 l 2
 100 178 120 199 155 199 c 0
 190 199 192 180 194 151 c 0
 197 115 254 86 319 86 c 0
 402 86 470 125 470 173 c 0
 470 250 310 225 223 281 c 0
 189 304 167 344 167 385 c 0
 167 501 284 597 425 597 c 0
 476 597 518 586 548 564 c 1
 564 589 575 597 594 597 c 0
 618 597 634 582 634 561 c 0
 634 554 634 549 630 531 c 2
 611 443 l 2
 608 428 595 376 547 376 c 0
 508 376 509 400 508 430 c 0
 508 470 466 497 404 497 c 0
 334 497 273 457 273 411 c 0
EndSplineSet
Validated: 3073
EndChar

StartChar: T
Encoding: 84 84 52
Width: 600
Flags: MW
LayerCount: 2
Fore
SplineSet
128 40 m 0
 128 66 144 100 206 100 c 2
 270 100 l 1
 352 483 l 1
 245 483 l 1
 225 390 l 2
 222 378 213 324 161 324 c 0
 139 324 121 341 121 361 c 0
 121 368 122 378 125 390 c 2
 166 583 l 1
 682 583 l 1
 641 390 l 2
 638 376 629 324 577 324 c 0
 554 324 537 340 537 361 c 0
 537 368 538 377 541 390 c 2
 561 483 l 1
 452 483 l 1
 370 100 l 1
 436 100 l 2
 469 100 493 95 493 61 c 0
 493 37 477 0 415 0 c 2
 184 0 l 2
 144 0 128 12 128 40 c 0
EndSplineSet
Validated: 3073
EndChar

StartChar: U
Encoding: 85 85 53
Width: 600
Flags: MW
LayerCount: 2
Fore
SplineSet
648 583 m 2
 680 583 705 579 705 544 c 0
 705 510 679 483 632 483 c 1
 573 205 l 2
 547 81 427 -14 298 -14 c 0
 189 -14 110 59 110 158 c 0
 110 173 111 188 115 205 c 2
 174 483 l 1
 138 483 123 495 123 523 c 0
 123 546 135 583 201 583 c 2
 331 583 l 2
 362 583 387 580 387 544 c 0
 387 518 372 483 309 483 c 2
 274 483 l 1
 213 196 l 2
 212 189 211 182 211 176 c 0
 211 124 257 86 319 86 c 0
 390 86 458 135 471 196 c 2
 532 483 l 1
 497 483 l 2
 456 483 441 494 441 523 c 0
 441 546 453 583 519 583 c 2
 648 583 l 2
EndSplineSet
Validated: 3073
EndChar

StartChar: V
Encoding: 86 86 54
Width: 600
Flags: MW
LayerCount: 2
Fore
SplineSet
358 543 m 0
 358 518 342 483 280 483 c 2
 261 483 l 1
 333 144 l 1
 550 483 l 1
 525 483 l 2
 492 483 469 488 469 523 c 0
 469 545 480 583 547 583 c 2
 678 583 l 2
 709 583 735 580 735 543 c 0
 735 519 723 483 655 483 c 1
 347 0 l 1
 249 0 l 1
 149 483 l 1
 137 483 l 2
 106 485 91 497 91 523 c 0
 91 546 103 583 169 583 c 2
 302 583 l 2
 343 583 358 572 358 543 c 0
EndSplineSet
Validated: 3073
EndChar

StartChar: W
Encoding: 87 87 55
Width: 600
Flags: MW
LayerCount: 2
Fore
SplineSet
668 583 m 2
 700 583 725 579 725 544 c 0
 725 513 702 489 667 483 c 1
 504 0 l 1
 394 0 l 1
 359 277 l 1
 209 0 l 1
 98 0 l 1
 139 483 l 1
 114 486 102 498 102 519 c 0
 102 544 114 583 180 583 c 2
 312 583 l 2
 343 583 369 580 369 543 c 0
 369 518 353 483 290 483 c 2
 242 483 l 1
 221 211 l 1
 345 437 l 1
 448 437 l 1
 476 211 l 1
 570 483 l 1
 516 483 l 2
 475 483 460 494 460 523 c 0
 460 545 471 583 538 583 c 2
 668 583 l 2
EndSplineSet
Validated: 3073
EndChar

StartChar: X
Encoding: 88 88 56
Width: 600
Flags: MW
LayerCount: 2
Fore
SplineSet
635 583 m 2
 667 583 692 579 692 544 c 0
 692 509 663 484 623 483 c 1
 427 297 l 1
 552 100 l 1
 585 100 601 87 601 60 c 0
 601 36 585 0 523 0 c 2
 413 0 l 2
 372 0 356 11 356 40 c 0
 356 52 362 95 423 100 c 1
 347 220 l 1
 219 100 l 1
 249 99 264 86 264 60 c 0
 264 35 248 0 186 0 c 2
 76 0 l 2
 35 0 19 11 19 40 c 0
 19 75 48 100 89 100 c 1
 298 298 l 1
 179 483 l 1
 146 484 131 497 131 523 c 0
 131 546 143 583 209 583 c 2
 300 583 l 2
 334 583 357 578 357 544 c 0
 357 517 342 500 308 484 c 1
 379 375 l 1
 495 484 l 1
 472 497 467 504 467 523 c 0
 467 548 482 583 545 583 c 2
 635 583 l 2
EndSplineSet
Validated: 3073
EndChar

StartChar: Y
Encoding: 89 89 57
Width: 600
Flags: MW
LayerCount: 2
Fore
SplineSet
694 544 m 0
 694 522 679 483 620 483 c 2
 617 483 l 1
 402 245 l 1
 372 100 l 1
 437 100 l 2
 470 100 494 95 494 61 c 0
 494 37 478 0 416 0 c 2
 185 0 l 2
 144 0 128 12 128 40 c 0
 128 66 143 100 206 100 c 2
 272 100 l 1
 302 245 l 1
 188 483 l 1
 182 483 l 2
 151 483 134 497 134 523 c 0
 134 548 149 583 212 583 c 2
 302 583 l 2
 335 583 358 578 358 544 c 0
 358 517 341 496 308 483 c 1
 374 348 l 1
 497 483 l 1
 475 492 467 503 467 523 c 0
 467 549 483 583 545 583 c 2
 638 583 l 2
 671 583 694 578 694 544 c 0
EndSplineSet
Validated: 3073
EndChar

StartChar: Z
Encoding: 90 90 58
Width: 600
Flags: MW
LayerCount: 2
Fore
SplineSet
222 100 m 1
 448 100 l 1
 464 172 l 2
 467 187 477 238 528 238 c 0
 551 238 568 222 568 200 c 0
 568 192 568 191 564 172 c 2
 527 0 l 1
 73 0 l 1
 94 100 l 1
 477 483 l 1
 299 483 l 1
 284 413 l 2
 281 400 271 347 219 347 c 0
 197 347 179 364 179 384 c 0
 179 392 180 394 184 413 c 2
 220 583 l 1
 628 583 l 1
 607 486 l 1
 222 100 l 1
EndSplineSet
Validated: 3073
EndChar

StartChar: bracketleft
Encoding: 91 91 59
Width: 600
Flags: MW
LayerCount: 2
Fore
SplineSet
598 588 m 0
 598 563 582 527 520 527 c 2
 462 527 l 1
 340 -48 l 1
 399 -48 l 2
 432 -48 456 -53 456 -87 c 0
 456 -112 440 -148 378 -148 c 2
 219 -148 l 1
 384 627 l 1
 542 627 l 2
 575 627 598 622 598 588 c 0
EndSplineSet
Validated: 3073
EndChar

StartChar: backslash
Encoding: 92 92 60
Width: 600
Flags: MW
LayerCount: 2
Fore
SplineSet
322 651 m 0
 499 -27 l 2
 502 -38 504 -48 504 -54 c 0
 504 -84 474 -113 443 -113 c 0
 418 -113 409 -103 400 -69 c 0
 224 610 l 1
 220 623 219 630 219 636 c 0
 219 666 249 695 280 695 c 0
 304 695 313 685 322 651 c 0
EndSplineSet
Validated: 3073
EndChar

StartChar: bracketright
Encoding: 93 93 61
Width: 600
Flags: MW
LayerCount: 2
Fore
SplineSet
104 -109 m 0
 104 -84 120 -48 182 -48 c 2
 240 -48 l 1
 362 527 l 1
 303 527 l 2
 270 527 246 532 246 566 c 0
 246 591 262 627 324 627 c 2
 483 627 l 1
 318 -148 l 1
 160 -148 l 2
 127 -148 104 -143 104 -109 c 0
EndSplineSet
Validated: 3073
EndChar

StartChar: asciicircum
Encoding: 94 94 62
Width: 600
Flags: MW
LayerCount: 2
Fore
SplineSet
404 494 m 1
 257 356 l 2
 229 330 221 325 202 325 c 0
 178 325 161 342 161 365 c 0
 161 384 168 395 193 419 c 2
 438 652 l 1
 584 419 l 2
 595 402 598 395 598 384 c 0
 598 355 567 325 536 325 c 0
 517 325 510 330 494 355 c 2
 404 494 l 1
EndSplineSet
Validated: 3073
EndChar

StartChar: underscore
Encoding: 95 95 63
Width: 600
Flags: HMW
LayerCount: 2
Fore
SplineSet
584.059 -75 m 5
 573.431 -125 l 5
 -26.5693 -125 l 1
 -15.9414 -75 l 1
 584.059 -75 l 5
EndSplineSet
EndChar

StartChar: grave
Encoding: 96 96 64
Width: 600
Flags: HMW
LayerCount: 2
Fore
SplineSet
346.612 650 m 2
 427.33 569 l 2
 440.658 555.625 446.099 545 443.806 532 c 0
 440.456 513 420.458 496 400.458 496 c 0
 390.458 496 383.609 499.446 371.279 512 c 2
 290.738 594 l 1
 276.03 607 271.794 617 274.086 630 c 0
 277.612 650 296.434 666 317.434 666 c 0
 328.434 666 332.904 663 346.612 650 c 2
EndSplineSet
EndChar

StartChar: a
Encoding: 97 97 65
Width: 600
Flags: MW
LayerCount: 2
Fore
SplineSet
583 61 m 0
 583 35 567 0 505 0 c 2
 388 0 l 1
 393 23 l 1
 340 -2 278 -16 219 -16 c 0
 130 -16 65 32 65 98 c 0
 65 136 121 288 346 288 c 0
 378 288 408 285 447 278 c 1
 450 290 453 297 453 311 c 0
 453 338 426 350 369 350 c 0
 299 350 241 327 207 327 c 0
 185 327 169 343 169 366 c 0
 169 434 305 450 389 450 c 0
 493 450 557 407 557 337 c 0
 557 324 556 314 553 302 c 2
 510 100 l 1
 527 100 l 2
 560 100 583 95 583 61 c 0
320 196 m 0
 236 196 174 150 174 118 c 0
 174 99 203 84 241 84 c 0
 296 84 355 101 418 135 c 1
 428 185 l 1
 390 192 354 196 320 196 c 0
EndSplineSet
Validated: 3073
EndChar

StartChar: b
Encoding: 98 98 66
Width: 600
Flags: MW
LayerCount: 2
Fore
SplineSet
113 564 m 0
 113 586 125 624 191 624 c 2
 307 624 l 1
 259 401 l 1
 309 435 360 451 418 451 c 0
 582 451 623 343 623 269 c 0
 623 198 561 -14 321 -14 c 0
 263 -14 226 -1 182 35 c 1
 174 0 l 1
 58 0 l 2
 18 0 2 11 2 40 c 0
 2 65 18 100 80 100 c 2
 96 100 l 1
 186 524 l 1
 170 524 l 2
 128 524 113 535 113 564 c 0
343 86 m 0
 483 86 520 210 520 244 c 0
 520 309 477 351 395 351 c 0
 255 351 218 228 218 193 c 0
 218 126 264 86 343 86 c 0
EndSplineSet
Validated: 3073
EndChar

StartChar: c
Encoding: 99 99 67
Width: 600
Flags: MW
LayerCount: 2
Fore
SplineSet
93 156 m 0
 93 226 156 450 407 450 c 0
 463 450 509 440 544 420 c 1
 554 441 567 450 588 450 c 0
 612 450 626 436 626 412 c 0
 626 405 625 400 622 384 c 2
 606 307 l 2
 602 292 590 241 541 241 c 0
 506 241 501 262 501 289 c 0
 501 338 436 350 385 350 c 0
 226 350 195 214 195 178 c 0
 195 115 245 84 348 84 c 0
 499 84 503 140 545 140 c 0
 568 140 585 123 585 99 c 0
 585 76 545 -16 317 -16 c 0
 127 -16 93 87 93 156 c 0
EndSplineSet
Validated: 3073
EndChar

StartChar: d
Encoding: 100 100 68
Width: 600
Flags: MW
LayerCount: 2
Fore
SplineSet
470 565 m 0
 470 586 482 624 548 624 c 2
 664 624 l 1
 553 100 l 1
 569 100 l 2
 600 100 625 96 625 60 c 0
 625 35 609 0 547 0 c 2
 431 0 l 1
 439 35 l 1
 379 -1 336 -14 278 -14 c 0
 115 -14 74 95 74 168 c 0
 74 236 105 308 156 360 c 0
 217 422 288 451 378 451 c 0
 437 451 481 435 517 401 c 1
 543 525 l 1
 527 525 l 2
 486 525 470 535 470 565 c 0
481 244 m 0
 481 284 462 351 354 351 c 0
 215 351 177 227 177 193 c 0
 177 126 224 86 302 86 c 0
 443 86 481 208 481 244 c 0
EndSplineSet
Validated: 3073
EndChar

StartChar: e
Encoding: 101 101 69
Width: 600
Flags: MW
LayerCount: 2
Fore
SplineSet
325 84 m 0
 412 84 489 117 528 117 c 0
 551 117 566 101 566 79 c 0
 566 57 554 39 533 28 c 0
 490 5 374 -16 294 -16 c 0
 158 -16 74 55 74 169 c 0
 74 318 221 450 387 450 c 0
 517 450 600 375 600 259 c 0
 600 228 592 199 587 172 c 1
 178 172 l 1
 189 112 237 84 325 84 c 0
200 260 m 1
 495 260 l 1
 490 314 439 350 367 350 c 0
 293 350 228 315 200 260 c 1
EndSplineSet
Validated: 3073
EndChar

StartChar: f
Encoding: 102 102 70
Width: 600
Flags: MW
LayerCount: 2
Fore
SplineSet
599 397 m 0
 599 373 583 337 521 337 c 2
 370 337 l 1
 320 100 l 1
 459 100 l 2
 492 100 516 95 516 61 c 0
 516 37 500 0 438 0 c 2
 140 0 l 2
 100 0 84 12 84 40 c 0
 84 66 100 100 162 100 c 2
 220 100 l 1
 270 337 l 1
 224 337 l 2
 182 337 166 348 166 377 c 0
 166 401 178 437 245 437 c 2
 291 437 l 1
 299 474 l 2
 319 566 405 623 525 623 c 0
 650 623 691 602 691 570 c 0
 691 539 662 509 632 509 c 0
 608 509 566 523 494 523 c 0
 437 523 405 507 399 474 c 2
 392 437 l 1
 542 437 l 2
 574 437 599 434 599 397 c 0
EndSplineSet
Validated: 3073
EndChar

StartChar: g
Encoding: 103 103 71
Width: 600
Flags: HMW
LayerCount: 2
Fore
SplineSet
107 -160 m 0
 107 -135 122 -100 185 -100 c 2
 294 -100 l 2
 351 -100 395 -67 406 -15 c 2
 417 35 l 1
 363 1 317 -14 265 -14 c 0
 151 -14 73 60 73 168 c 0
 73 318 211 451 365 451 c 0
 418 451 463 434 495 401 c 1
 502 437 l 1
 619 437 l 2
 650 437 675 433 675 397 c 0
 675 372 659 337 597 337 c 2
 581 337 l 1
 506 -15 l 2
 484 -121 385 -200 275 -200 c 2
 164 -200 l 2
 123 -200 107 -189 107 -160 c 0
345 351 m 0
 259 351 176 274 176 193 c 0
 176 130 223 86 289 86 c 0
 377 86 459 163 459 244 c 0
 459 307 412 351 345 351 c 0
EndSplineSet
EndChar

StartChar: h
Encoding: 104 104 72
Width: 600
Flags: MW
LayerCount: 2
Fore
SplineSet
134 564 m 0
 134 586 146 624 212 624 c 2
 328 624 l 1
 278 389 l 1
 327 430 376 450 428 450 c 0
 516 450 574 401 574 325 c 0
 574 312 573 298 570 284 c 2
 530 100 l 1
 536 100 l 2
 567 100 593 97 593 60 c 0
 593 36 577 0 515 0 c 2
 403 0 l 2
 362 0 346 11 346 40 c 0
 346 65 362 100 425 100 c 2
 431 100 l 1
 467 271 l 2
 470 283 471 294 471 302 c 0
 471 331 442 350 396 350 c 0
 348 350 324 339 256 283 c 1
 217 100 l 1
 223 100 l 2
 256 100 280 94 280 60 c 0
 280 34 264 0 201 0 c 2
 89 0 l 2
 49 0 33 11 33 40 c 0
 33 64 49 100 111 100 c 2
 117 100 l 1
 207 524 l 1
 191 524 l 2
 149 524 134 535 134 564 c 0
EndSplineSet
Validated: 3073
EndChar

StartChar: i
Encoding: 105 105 73
Width: 600
Flags: MW
LayerCount: 2
Fore
SplineSet
186 377 m 0
 186 400 198 437 265 437 c 2
 443 437 l 1
 372 100 l 1
 493 100 l 2
 524 100 550 96 550 60 c 0
 550 38 536 0 472 0 c 2
 129 0 l 2
 88 0 72 11 72 40 c 0
 72 66 88 100 150 100 c 2
 272 100 l 1
 322 337 l 1
 244 337 l 2
 202 337 186 348 186 377 c 0
469 623 m 1
 446 518 l 1
 328 518 l 1
 351 623 l 1
 469 623 l 1
EndSplineSet
Validated: 3073
EndChar

StartChar: j
Encoding: 106 106 74
Width: 600
Flags: HMW
LayerCount: 2
Fore
SplineSet
84 -160 m 0
 84 -135 100 -100 162 -100 c 2
 272 -100 l 2
 330 -100 374 -67 385 -15 c 2
 460 337 l 1
 258 337 l 2
 217 337 201 348 201 377 c 0
 201 402 217 437 279 437 c 2
 581 437 l 1
 485 -15 l 2
 463 -120 363 -200 254 -200 c 2
 141 -200 l 2
 100 -200 84 -189 84 -160 c 0
563 623 m 1
 540 518 l 1
 421 518 l 1
 443 623 l 1
 563 623 l 1
EndSplineSet
EndChar

StartChar: k
Encoding: 107 107 75
Width: 600
Flags: MW
LayerCount: 2
Fore
SplineSet
582 60 m 0
 582 36 566 0 504 0 c 2
 386 0 l 2
 345 0 329 11 329 40 c 0
 329 57 336 71 354 87 c 1
 270 178 l 1
 249 164 l 1
 215 0 l 1
 98 0 l 2
 58 0 42 11 42 40 c 0
 42 65 58 100 120 100 c 2
 136 100 l 1
 226 524 l 1
 210 524 l 2
 169 524 153 534 153 563 c 0
 153 587 165 624 231 624 c 2
 347 624 l 1
 275 287 l 1
 367 350 l 1
 361 361 359 366 359 376 c 0
 359 403 375 437 437 437 c 2
 549 437 l 2
 590 437 606 426 606 398 c 0
 606 373 590 337 528 337 c 2
 501 337 l 1
 362 241 l 1
 492 100 l 1
 525 100 l 2
 557 100 582 96 582 60 c 0
EndSplineSet
Validated: 3073
EndChar

StartChar: l
Encoding: 108 108 76
Width: 600
Flags: MW
LayerCount: 2
Fore
SplineSet
226 564 m 0
 226 590 241 624 305 624 c 2
 483 624 l 1
 372 100 l 1
 493 100 l 2
 524 100 550 96 550 60 c 0
 550 38 536 0 472 0 c 2
 129 0 l 2
 88 0 72 11 72 40 c 0
 72 66 88 100 150 100 c 2
 272 100 l 1
 362 524 l 1
 283 524 l 2
 252 524 226 529 226 564 c 0
EndSplineSet
Validated: 3073
EndChar

StartChar: m
Encoding: 109 109 77
Width: 600
Flags: MW
LayerCount: 2
Fore
SplineSet
62 377 m 0
 62 401 78 437 141 437 c 2
 234 437 l 1
 229 413 l 1
 270 441 292 450 322 450 c 0
 361 450 391 434 413 401 c 1
 452 435 487 450 527 450 c 0
 590 450 634 409 634 350 c 0
 634 337 633 330 631 319 c 2
 584 100 l 1
 618 100 635 87 635 60 c 0
 635 36 619 0 557 0 c 2
 463 0 l 1
 529 311 l 2
 531 318 531 324 531 330 c 0
 530 343 521 350 503 350 c 0
 476 350 459 341 417 305 c 1
 374 100 l 1
 407 100 424 87 424 60 c 0
 424 36 408 0 346 0 c 2
 252 0 l 1
 318 311 l 2
 320 318 321 326 321 329 c 0
 321 343 311 350 293 350 c 0
 265 350 243 339 206 305 c 1
 163 100 l 1
 197 100 214 87 214 60 c 0
 214 36 198 0 136 0 c 2
 48 0 l 2
 7 0 -9 11 -9 40 c 0
 -9 75 21 100 63 100 c 1
 113 337 l 1
 79 337 62 350 62 377 c 0
EndSplineSet
Validated: 3073
EndChar

StartChar: n
Encoding: 110 110 78
Width: 600
Flags: MW
LayerCount: 2
Fore
SplineSet
115 377 m 0
 115 402 131 437 194 437 c 2
 288 437 l 1
 278 389 l 1
 336 435 373 450 428 450 c 0
 516 450 575 401 575 328 c 0
 575 312 573 298 570 282 c 2
 531 100 l 1
 566 100 583 87 583 60 c 0
 583 36 567 0 505 0 c 2
 416 0 l 2
 375 0 359 11 359 40 c 0
 359 60 374 100 432 100 c 1
 469 278 l 2
 471 287 472 294 472 301 c 0
 472 333 444 350 394 350 c 0
 348 350 313 333 255 282 c 1
 217 100 l 1
 223 100 l 2
 256 100 279 94 279 60 c 0
 279 36 263 0 201 0 c 2
 89 0 l 2
 49 0 33 11 33 40 c 0
 33 65 49 100 111 100 c 2
 117 100 l 1
 167 337 l 1
 132 337 115 350 115 377 c 0
EndSplineSet
Validated: 3073
EndChar

StartChar: o
Encoding: 111 111 79
Width: 600
Flags: MW
LayerCount: 2
Fore
SplineSet
84 174 m 0
 84 286 200 450 399 450 c 0
 523 450 609 372 609 260 c 0
 609 115 460 -16 297 -16 c 0
 169 -16 84 60 84 174 c 0
376 350 m 0
 274 350 186 277 186 192 c 0
 186 129 241 84 318 84 c 0
 419 84 507 158 507 242 c 0
 507 305 452 350 376 350 c 0
EndSplineSet
Validated: 3073
EndChar

StartChar: p
Encoding: 112 112 80
Width: 600
Flags: HMW
LayerCount: 2
Fore
SplineSet
73 377 m 0
 73 402 89 437 151 437 c 2
 267 437 l 1
 257 392 l 1
 315 434 361 450 423 450 c 0
 545 450 623 379 623 269 c 0
 623 127 490 10 329 10 c 0
 272 10 231 27 188 66 c 1
 153 -100 l 1
 211 -100 l 2
 244 -100 267 -105 267 -139 c 0
 267 -165 251 -200 189 -200 c 2
 15 -200 l 2
 -25 -200 -41 -189 -41 -160 c 0
 -41 -135 -25 -100 37 -100 c 2
 53 -100 l 1
 146 337 l 1
 129 337 l 2
 88 337 73 348 73 377 c 0
346 110 m 0
 487 110 522 218 522 252 c 0
 522 312 473 350 398 350 c 0
 250 350 221 237 221 208 c 0
 221 170 246 110 346 110 c 0
EndSplineSet
EndChar

StartChar: q
Encoding: 113 113 81
Width: 600
Flags: HMW
LayerCount: 2
Fore
SplineSet
273 -161 m 0
 273 -135 289 -100 351 -100 c 2
 409 -100 l 1
 444 66 l 1
 384 26 336 10 277 10 c 0
 158 10 75 78 75 177 c 0
 75 242 136 450 373 450 c 0
 435 450 474 434 514 392 c 1
 523 437 l 1
 640 437 l 2
 673 437 696 432 696 397 c 0
 696 372 680 337 618 337 c 2
 602 337 l 1
 509 -100 l 1
 525 -100 l 2
 558 -100 582 -105 582 -140 c 0
 582 -164 566 -200 504 -200 c 2
 330 -200 l 2
 297 -200 273 -195 273 -161 c 0
305 110 m 0
 445 110 482 218 482 249 c 0
 482 313 435 350 356 350 c 0
 214 350 179 242 179 208 c 0
 179 148 228 110 305 110 c 0
EndSplineSet
EndChar

StartChar: r
Encoding: 114 114 82
Width: 600
Flags: MW
LayerCount: 2
Fore
SplineSet
159 377 m 0
 159 400 174 437 236 437 c 2
 371 437 l 1
 358 373 l 1
 455 434 492 449 541 449 c 0
 594 449 650 410 650 375 c 0
 650 345 619 314 588 314 c 0
 557 314 550 350 517 350 c 0
 486 350 438 323 331 248 c 1
 300 100 l 1
 439 100 l 2
 470 100 496 96 496 60 c 0
 496 38 482 0 418 0 c 2
 120 0 l 2
 80 0 64 11 64 40 c 0
 64 65 79 100 141 100 c 2
 200 100 l 1
 250 338 l 1
 215 338 l 2
 175 338 159 349 159 377 c 0
EndSplineSet
Validated: 3073
EndChar

StartChar: s
Encoding: 115 115 83
Width: 600
Flags: MW
LayerCount: 2
Fore
SplineSet
516 281 m 0
 458 281 506 350 376 350 c 0
 321 350 269 331 269 312 c 0
 269 270 427 288 507 239 c 0
 538 219 556 187 556 150 c 0
 556 57 445 -16 301 -16 c 0
 243 -16 195 -6 159 13 c 1
 145 4 137 1 124 1 c 0
 100 1 83 16 83 39 c 0
 83 45 84 52 87 67 c 2
 94 100 l 2
 104 146 124 167 159 167 c 0
 185 167 198 153 201 123 c 1
 224 97 264 84 318 84 c 0
 386 84 444 106 444 131 c 0
 444 162 393 172 328 179 c 0
 206 192 156 224 156 289 c 0
 156 379 260 450 394 450 c 0
 442 450 482 442 517 424 c 1
 530 444 539 450 555 450 c 0
 577 450 592 436 592 414 c 0
 592 407 591 398 588 384 c 2
 580 347 l 2
 577 332 567 281 516 281 c 0
EndSplineSet
Validated: 3073
EndChar

StartChar: t
Encoding: 116 116 84
Width: 600
Flags: MW
LayerCount: 2
Fore
SplineSet
545 397 m 0
 545 373 529 337 467 337 c 2
 286 337 l 1
 244 141 l 2
 242 132 241 123 241 117 c 0
 241 95 267 84 318 84 c 0
 432 84 474 129 508 129 c 0
 531 129 547 113 547 89 c 0
 547 10 345 -16 291 -16 c 0
 232 -16 137 6 137 92 c 0
 137 104 138 112 140 122 c 2
 186 337 l 1
 151 337 l 2
 110 337 94 348 94 377 c 0
 94 399 105 437 172 437 c 2
 207 437 l 1
 226 525 l 2
 229 541 239 591 290 591 c 0
 313 591 330 575 330 553 c 0
 330 545 330 544 326 525 c 2
 307 437 l 1
 488 437 l 2
 519 437 545 434 545 397 c 0
EndSplineSet
Validated: 3073
EndChar

StartChar: u
Encoding: 117 117 85
Width: 600
Flags: MW
LayerCount: 2
Fore
SplineSet
390 377 m 0
 390 403 406 437 468 437 c 2
 603 437 l 1
 531 100 l 1
 566 100 583 87 583 61 c 0
 583 36 567 0 504 0 c 2
 410 0 l 1
 420 48 l 1
 360 1 326 -13 270 -13 c 0
 182 -13 123 36 123 110 c 0
 123 127 125 140 128 156 c 2
 166 338 l 1
 150 338 l 2
 110 338 94 349 94 378 c 0
 94 403 109 437 172 437 c 2
 288 437 l 1
 229 159 l 2
 227 151 226 144 226 136 c 0
 226 105 253 87 301 87 c 0
 351 87 380 101 443 155 c 1
 482 338 l 1
 447 338 l 2
 406 338 390 349 390 377 c 0
EndSplineSet
Validated: 3073
EndChar

StartChar: v
Encoding: 118 118 86
Width: 600
Flags: MW
LayerCount: 2
Fore
SplineSet
347 397 m 0
 347 373 332 337 270 337 c 2
 264 337 l 1
 327 122 l 1
 481 337 l 1
 471 337 l 2
 430 337 414 348 414 377 c 0
 414 402 430 437 492 437 c 2
 626 437 l 2
 659 437 683 432 683 398 c 0
 683 372 667 337 605 337 c 2
 589 337 l 1
 350 0 l 1
 247 0 l 1
 151 337 l 1
 138 337 l 2
 97 337 81 348 81 377 c 0
 81 402 97 437 159 437 c 2
 291 437 l 2
 324 437 347 432 347 397 c 0
EndSplineSet
Validated: 3073
EndChar

StartChar: w
Encoding: 119 119 87
Width: 600
Flags: MW
LayerCount: 2
Fore
SplineSet
627 437 m 2
 658 437 684 434 684 397 c 0
 684 385 675 343 620 338 c 1
 465 0 l 1
 373 0 l 1
 340 181 l 1
 234 0 l 1
 140 0 l 1
 127 338 l 1
 97 339 82 352 82 377 c 0
 82 402 97 437 160 437 c 2
 252 437 l 2
 285 437 308 432 308 398 c 0
 308 372 293 338 233 338 c 1
 239 185 l 1
 332 343 l 1
 421 343 l 1
 448 185 l 1
 521 338 l 1
 514 338 l 2
 481 338 457 343 457 377 c 0
 457 402 473 437 535 437 c 2
 627 437 l 2
EndSplineSet
Validated: 3073
EndChar

StartChar: x
Encoding: 120 120 88
Width: 600
Flags: MW
LayerCount: 2
Fore
SplineSet
584 437 m 2
 617 437 641 432 641 398 c 0
 641 365 615 341 576 337 c 1
 421 227 l 1
 545 100 l 1
 575 99 590 86 590 60 c 0
 590 36 574 0 512 0 c 2
 400 0 l 2
 359 0 343 11 343 40 c 0
 343 67 364 92 395 100 c 1
 333 161 l 1
 246 100 l 1
 269 89 276 81 276 62 c 0
 276 35 260 0 197 0 c 2
 87 0 l 2
 46 0 30 11 30 40 c 0
 30 52 40 95 96 100 c 1
 268 228 l 1
 163 337 l 1
 134 340 120 353 120 377 c 0
 120 402 136 437 198 437 c 2
 291 437 l 2
 324 437 347 432 347 397 c 0
 347 377 333 355 310 342 c 1
 361 293 l 1
 432 343 l 1
 419 354 414 363 414 376 c 0
 414 401 430 437 492 437 c 2
 584 437 l 2
EndSplineSet
Validated: 3073
EndChar

StartChar: y
Encoding: 121 121 89
Width: 600
Flags: HMW
LayerCount: 2
Fore
SplineSet
-12 -160 m 0
 -12 -136 4 -100 66 -100 c 2
 166 -100 l 1
 243 3 l 1
 142 337 l 1
 115 341 102 353 102 377 c 0
 102 402 118 437 180 437 c 2
 270 437 l 2
 303 437 326 432 326 398 c 0
 326 362 297 338 255 337 c 1
 323 114 l 1
 489 337 l 1
 484 337 l 2
 452 337 435 351 435 377 c 0
 435 402 451 437 513 437 c 2
 605 437 l 2
 636 437 662 434 662 397 c 0
 662 365 636 341 599 337 c 1
 275 -100 l 1
 280 -100 l 2
 313 -100 337 -105 337 -139 c 0
 337 -164 321 -200 259 -200 c 2
 45 -200 l 2
 4 -200 -12 -189 -12 -160 c 0
EndSplineSet
EndChar

StartChar: z
Encoding: 122 122 90
Width: 600
Flags: MW
LayerCount: 2
Fore
SplineSet
269 337 m 1
 265 321 258 262 203 262 c 0
 180 262 163 278 163 299 c 0
 163 305 165 319 167 328 c 2
 190 437 l 1
 599 437 l 1
 582 356 l 1
 265 100 l 1
 441 100 l 1
 451 135 472 154 502 154 c 0
 525 154 542 138 542 117 c 0
 542 110 541 103 538 88 c 2
 519 0 l 1
 85 0 l 1
 103 83 l 1
 417 337 l 1
 269 337 l 1
EndSplineSet
Validated: 3073
EndChar

StartChar: braceleft
Encoding: 123 123 91
Width: 600
Flags: MW
LayerCount: 2
Fore
SplineSet
283 169 m 0
 283 198 217 178 217 227 c 0
 217 262 240 286 278 290 c 0
 304 293 312 300 318 328 c 2
 353 492 l 2
 368 563 440 623 511 623 c 0
 539 623 556 608 556 583 c 0
 556 552 529 522 495 522 c 0
 468 522 457 513 451 485 c 2
 418 328 l 2
 408 284 398 266 370 240 c 1
 381 222 386 209 386 194 c 0
 386 184 383 164 378 142 c 2
 345 -15 l 2
 344 -21 343 -27 343 -30 c 0
 343 -68 413 -34 413 -91 c 0
 413 -126 383 -153 345 -153 c 0
 286 -153 241 -108 241 -48 c 0
 241 -39 242 -31 244 -22 c 2
 280 151 l 2
 282 158 283 165 283 169 c 0
EndSplineSet
Validated: 3073
EndChar

StartChar: bar
Encoding: 124 124 92
Width: 600
Flags: MW
LayerCount: 2
Fore
SplineSet
468 556 m 2
 331 -87 l 2
 319 -147 282 -153 267 -153 c 0
 244 -153 227 -137 227 -116 c 0
 227 -109 228 -100 231 -87 c 2
 368 556 l 2
 371 571 384 622 432 622 c 0
 455 622 472 606 472 584 c 0
 472 578 471 570 468 556 c 2
EndSplineSet
Validated: 3073
EndChar

StartChar: braceright
Encoding: 125 125 93
Width: 600
Flags: MW
LayerCount: 2
Fore
SplineSet
417 301 m 0
 417 272 483 292 483 243 c 0
 483 208 460 184 422 180 c 0
 396 177 388 169 382 142 c 2
 347 -22 l 2
 332 -93 260 -153 189 -153 c 0
 161 -153 144 -138 144 -113 c 0
 144 -82 171 -52 205 -52 c 0
 232 -52 243 -43 249 -15 c 2
 282 142 l 2
 292 186 302 204 330 230 c 1
 319 248 314 261 314 276 c 0
 314 286 317 306 322 328 c 2
 355 485 l 2
 356 491 357 497 357 500 c 0
 357 538 287 503 287 562 c 0
 287 596 317 623 355 623 c 0
 414 623 459 578 459 518 c 0
 459 509 458 501 456 492 c 2
 420 319 l 2
 418 312 417 305 417 301 c 0
EndSplineSet
Validated: 3073
EndChar

StartChar: asciitilde
Encoding: 126 126 94
Width: 600
Flags: MW
LayerCount: 2
Fore
SplineSet
449 284 m 0
 481 284 519 364 565 364 c 0
 588 364 606 347 606 324 c 0
 606 305 596 288 571 262 c 0
 506 197 474 179 428 179 c 0
 347 179 301 281 271 281 c 0
 244 281 196 201 156 201 c 0
 133 201 114 219 114 240 c 0
 114 289 219 385 295 385 c 0
 383 385 414 284 449 284 c 0
EndSplineSet
Validated: 3073
EndChar

StartChar: cent
Encoding: 162 162 97
Width: 600
Flags: MW
LayerCount: 2
Fore
SplineSet
351 197 m 0
 425 197 469 245 501 245 c 0
 523 245 541 227 541 204 c 0
 541 158 472 116 372 99 c 1
 356 22 l 2
 342 -39 306 -44 291 -44 c 0
 269 -44 251 -27 251 -7 c 0
 251 1 251 2 255 22 c 0
 273 103 l 1
 191 124 144 183 144 265 c 0
 144 380 237 489 361 517 c 1
 376 571 372 661 442 661 c 0
 465 661 482 645 482 623 c 0
 482 616 481 614 477 594 c 0
 463 527 l 1
 493 523 514 515 531 503 c 1
 540 506 546 507 552 507 c 0
 576 507 593 491 593 469 c 0
 593 449 577 370 561 354 c 0
 549 341 531 333 516 333 c 0
 477 333 478 360 477 384 c 0
 476 414 456 427 410 427 c 0
 322 427 246 363 246 288 c 0
 246 235 290 197 351 197 c 0
EndSplineSet
Validated: 3073
EndChar

StartChar: sterling
Encoding: 163 163 98
Width: 600
Flags: MW
LayerCount: 2
Fore
SplineSet
444 303 m 0
 444 279 428 243 366 243 c 2
 320 243 l 1
 309 180 297 148 267 100 c 1
 471 100 l 1
 482 130 501 146 530 146 c 0
 554 146 571 131 571 108 c 0
 571 45 521 0 442 0 c 2
 121 0 l 2
 80 0 64 11 64 40 c 0
 64 72 84 94 126 100 c 0
 170 106 204 156 219 243 c 1
 150 243 l 2
 116 243 93 248 93 283 c 0
 93 306 105 343 172 343 c 2
 216 343 l 1
 213 361 212 372 212 385 c 0
 212 504 306 598 425 598 c 0
 497 598 563 553 563 505 c 0
 563 474 532 444 501 444 c 0
 460 444 470 498 404 498 c 0
 351 498 315 462 315 409 c 0
 315 399 317 363 319 343 c 1
 387 343 l 2
 420 343 444 338 444 303 c 0
EndSplineSet
Validated: 3073
EndChar

StartChar: currency
Encoding: 164 164 99
Width: 600
Flags: MW
LayerCount: 2
Fore
SplineSet
213 388 m 1
 199 406 171 438 171 461 c 0
 171 489 204 519 234 519 c 0
 251 519 257 515 275 493 c 2
 301 462 l 1
 342 481 368 488 403 488 c 0
 440 488 462 482 495 461 c 1
 532 491 l 2
 559 513 568 517 585 517 c 0
 609 517 626 500 626 476 c 0
 626 456 618 444 589 420 c 2
 551 388 l 1
 558 363 561 341 561 326 c 0
 561 286 543 240 510 196 c 1
 535 162 l 2
 549 144 553 136 553 124 c 0
 553 95 520 64 488 64 c 0
 472 64 465 69 448 90 c 2
 421 122 l 1
 380 103 355 97 320 97 c 0
 285 97 262 103 229 123 c 1
 190 91 l 2
 162 68 155 64 137 64 c 0
 114 64 96 81 96 105 c 0
 96 125 104 137 133 162 c 2
 173 196 l 1
 166 221 163 243 163 258 c 0
 163 297 181 344 213 388 c 1
382 388 m 0
 322 388 266 332 266 273 c 0
 266 230 298 197 341 197 c 0
 401 197 459 254 459 313 c 0
 459 357 427 388 382 388 c 0
EndSplineSet
Validated: 3073
EndChar

StartChar: yen
Encoding: 165 165 100
Width: 600
Flags: MW
LayerCount: 2
Fore
SplineSet
303 580 m 2
 335 580 360 577 360 541 c 0
 360 513 338 487 310 481 c 1
 375 348 l 1
 498 481 l 1
 477 487 467 500 467 520 c 0
 467 546 483 580 545 580 c 2
 636 580 l 2
 674 580 693 574 693 540 c 0
 693 518 678 480 618 480 c 2
 616 480 l 1
 435 281 l 1
 507 281 l 2
 526 281 533 275 533 259 c 0
 533 239 517 225 495 225 c 2
 398 225 l 1
 391 191 l 1
 488 191 l 2
 507 191 514 185 514 170 c 0
 514 149 499 135 476 135 c 2
 379 135 l 1
 372 100 l 1
 418 100 l 2
 450 100 475 98 475 61 c 0
 475 37 459 0 397 0 c 2
 204 0 l 2
 163 0 147 11 147 40 c 0
 147 63 159 100 225 100 c 2
 272 100 l 1
 279 135 l 1
 182 135 l 2
 163 135 156 141 156 157 c 0
 156 177 171 191 194 191 c 2
 291 191 l 1
 298 225 l 1
 201 225 l 2
 183 225 176 231 176 247 c 0
 176 267 191 281 213 281 c 2
 285 281 l 1
 189 480 l 1
 181 480 l 2
 150 480 133 494 133 520 c 0
 133 546 149 580 211 580 c 2
 303 580 l 2
EndSplineSet
Validated: 3073
EndChar

StartChar: brokenbar
Encoding: 166 166 101
Width: 600
Flags: MW
LayerCount: 2
Fore
SplineSet
468 556 m 2
 425 353 l 2
 422 340 413 287 361 287 c 0
 338 287 321 303 321 324 c 0
 321 330 323 344 325 353 c 2
 368 556 l 2
 371 571 384 622 432 622 c 0
 455 622 472 606 472 584 c 0
 472 578 471 570 468 556 c 2
374 116 m 2
 331 -87 l 2
 328 -99 319 -153 267 -153 c 0
 244 -153 227 -137 227 -116 c 0
 227 -109 228 -100 231 -87 c 0
 274 116 l 2
 278 131 290 182 339 182 c 0
 361 182 378 166 378 145 c 0
 378 138 376 125 374 116 c 2
EndSplineSet
Validated: 3073
EndChar

StartChar: section
Encoding: 167 167 102
Width: 600
Flags: MW
LayerCount: 2
Fore
SplineSet
222 415 m 0
 222 479 295 583 418 583 c 2
 643 583 l 1
 616 456 l 2
 608 418 591 401 560 401 c 0
 541 401 525 415 525 432 c 0
 525 452 532 475 536 493 c 1
 392 493 l 2
 350 493 310 464 310 433 c 0
 310 410 340 379 397 342 c 2
 478 291 l 2
 569 233 594 204 594 154 c 0
 594 85 542 27 464 10 c 1
 465 7 465 4 465 3 c 0
 465 -36 427 -170 276 -170 c 2
 45 -170 l 1
 72 -43 l 2
 80 -6 98 12 128 12 c 0
 149 12 164 -2 164 -20 c 0
 164 -33 155 -66 152 -82 c 1
 297 -82 l 2
 337 -82 376 -52 376 -21 c 0
 376 2 345 34 291 69 c 2
 198 130 l 2
 123 178 93 215 93 259 c 0
 93 325 144 382 223 402 c 1
 222 408 222 411 222 415 c 0
261 326 m 1
 247 326 l 1
 217 325 193 307 193 284 c 0
 193 260 213 237 262 205 c 2
 352 147 l 1
 398 114 412 103 425 88 c 1
 443 88 l 1
 472 89 494 106 494 126 c 0
 494 150 466 181 417 214 c 2
 329 271 l 2
 300 290 291 297 261 326 c 1
EndSplineSet
Validated: 3073
EndChar

StartChar: dieresis
Encoding: 168 168 103
Width: 600
Flags: MW
LayerCount: 2
Fore
SplineSet
335 654 m 0
 364 654 384 634 384 606 c 0
 384 569 348 534 309 534 c 0
 282 534 261 555 261 582 c 0
 261 618 298 654 335 654 c 0
543 654 m 0
 572 654 592 634 592 606 c 0
 592 569 556 534 517 534 c 0
 490 534 469 555 469 582 c 0
 469 618 506 654 543 654 c 0
EndSplineSet
Validated: 3073
EndChar

StartChar: copyright
Encoding: 169 169 104
Width: 600
Flags: MW
LayerCount: 2
Fore
SplineSet
344 189 m 0
 427 189 413 229 452 229 c 0
 469 229 481 217 481 200 c 0
 481 159 404 118 327 118 c 0
 245 118 189 166 189 238 c 0
 189 264 196 284 200 305 c 0
 219 397 301 466 390 466 c 0
 419 466 439 461 465 447 c 1
 472 460 483 466 497 466 c 0
 513 466 524 455 524 441 c 0
 524 435 522 428 521 422 c 0
 513 386 509 324 465 324 c 0
 444 324 437 334 437 363 c 0
 437 380 409 395 377 395 c 0
 279 395 262 281 262 252 c 0
 264 211 293 189 344 189 c 0
429 598 m 0
 571 598 675 495 675 355 c 0
 675 164 491 -15 293 -15 c 0
 152 -15 48 88 48 228 c 0
 48 420 232 598 429 598 c 0
412 525 m 0
 263 525 123 389 123 243 c 0
 123 136 202 58 310 58 c 0
 460 58 600 194 600 340 c 0
 600 447 521 525 412 525 c 0
EndSplineSet
Validated: 3073
EndChar

StartChar: ordfeminine
Encoding: 170 170 105
Width: 600
Flags: MW
LayerCount: 2
Fore
SplineSet
266 532 m 0
 266 582 358 595 420 595 c 0
 494 595 539 565 539 515 c 0
 539 504 539 499 537 490 c 2
 509 362 l 1
 516 362 l 2
 548 362 559 354 559 331 c 0
 559 303 536 284 500 284 c 2
 415 284 l 1
 417 295 l 1
 374 279 343 273 305 273 c 0
 241 273 195 307 195 354 c 0
 195 386 235 487 396 487 c 0
 416 487 429 486 457 482 c 1
 458 486 459 490 459 494 c 0
 459 511 443 517 406 517 c 0
 359 517 314 501 296 501 c 0
 279 501 266 514 266 532 c 0
436 383 m 1
 442 410 l 1
 410 416 396 417 377 417 c 0
 332 417 288 394 288 370 c 0
 288 360 305 352 326 352 c 0
 359 352 404 365 436 383 c 1
531 229 m 0
 531 209 520 182 471 182 c 2
 215 182 l 2
 179 182 170 186 170 204 c 0
 170 246 184 259 232 259 c 2
 486 259 l 2
 519 259 531 251 531 229 c 0
EndSplineSet
Validated: 3073
EndChar

StartChar: guillemotleft
Encoding: 171 171 106
Width: 600
Flags: MW
LayerCount: 2
Fore
SplineSet
222 218 m 1
 343 77 l 1
 350 70 354 60 354 55 c 0
 354 38 334 20 314 20 c 0
 305 20 301 22 289 33 c 2
 80 218 l 1
 367 402 l 2
 384 413 389 415 398 415 c 0
 414 415 425 405 425 391 c 0
 425 380 419 370 403 358 c 2
 222 218 l 1
451 218 m 1
 572 77 l 2
 579 69 583 61 583 54 c 0
 583 38 563 20 543 20 c 0
 534 20 530 22 518 33 c 2
 309 218 l 1
 596 402 l 2
 613 413 618 415 627 415 c 0
 643 415 654 405 654 391 c 0
 654 380 648 370 632 358 c 2
 451 218 l 1
EndSplineSet
Validated: 3073
EndChar

StartChar: logicalnot
Encoding: 172 172 107
Width: 600
Flags: MW
LayerCount: 2
Fore
SplineSet
125 385 m 0
 125 407 136 445 203 445 c 2
 560 445 l 1
 504 181 l 2
 501 168 492 115 440 115 c 0
 417 115 400 131 400 152 c 0
 400 159 402 170 404 181 c 0
 439 345 l 1
 182 345 l 2
 141 345 125 356 125 385 c 0
EndSplineSet
Validated: 3073
EndChar

StartChar: registered
Encoding: 174 174 109
Width: 600
Flags: MW
LayerCount: 2
Fore
SplineSet
321 246 m 1
 311 197 l 1
 335 197 346 188 346 169 c 0
 346 144 324 126 294 126 c 2
 225 126 l 2
 200 126 187 135 187 154 c 0
 187 179 208 197 239 197 c 1
 279 387 l 1
 254 388 243 396 243 416 c 0
 243 441 264 458 296 458 c 2
 389 458 l 2
 455 458 496 426 496 373 c 0
 496 329 464 287 415 266 c 1
 434 244 439 235 453 197 c 1
 473 195 482 187 482 169 c 0
 482 144 461 126 430 126 c 2
 390 126 l 1
 388 175 362 233 336 246 c 1
 321 246 l 1
336 316 m 1
 362 316 l 2
 395 316 424 337 424 360 c 0
 424 377 406 387 376 387 c 2
 351 387 l 1
 336 316 l 1
429 598 m 0
 572 598 675 495 675 355 c 0
 675 163 491 -15 293 -15 c 0
 152 -15 48 88 48 228 c 0
 48 420 232 598 429 598 c 0
413 525 m 0
 263 525 123 389 123 243 c 0
 123 136 202 58 310 58 c 0
 460 58 600 194 600 340 c 0
 600 447 521 525 413 525 c 0
EndSplineSet
Validated: 3073
EndChar

StartChar: macron
Encoding: 175 175 110
Width: 600
Flags: MW
LayerCount: 2
Fore
SplineSet
311 626 m 2
 555 626 l 2
 588 626 600 617 600 593 c 0
 600 566 574 546 538 546 c 2
 294 546 l 2
 261 546 249 554 249 579 c 0
 249 607 274 626 311 626 c 2
EndSplineSet
Validated: 3073
EndChar

StartChar: degree
Encoding: 176 176 111
Width: 600
Flags: MW
LayerCount: 2
Fore
SplineSet
428 596 m 0
 509 596 568 537 568 457 c 0
 568 346 462 243 350 243 c 0
 269 243 210 302 210 383 c 0
 210 494 315 596 428 596 c 0
414 535 m 0
 341 535 272 468 272 396 c 0
 272 343 310 304 363 304 c 0
 437 304 506 372 506 444 c 0
 506 497 467 535 414 535 c 0
EndSplineSet
Validated: 3073
EndChar

StartChar: plusminus
Encoding: 177 177 112
Width: 600
Flags: MW
LayerCount: 2
Fore
SplineSet
640 390 m 0
 640 366 624 330 562 330 c 2
 420 330 l 1
 399 230 l 2
 396 218 387 164 335 164 c 0
 312 164 295 180 295 201 c 0
 295 210 295 211 299 230 c 2
 321 330 l 1
 179 330 l 2
 138 330 122 341 122 370 c 0
 122 393 134 430 200 430 c 2
 342 430 l 1
 369 558 l 1
 378 602 399 624 433 624 c 0
 456 624 473 608 473 586 c 0
 473 579 472 574 469 558 c 0
 442 430 l 1
 583 430 l 2
 620 430 640 425 640 390 c 0
52 40 m 0
 52 63 64 100 130 100 c 2
 513 100 l 2
 550 100 570 95 570 60 c 0
 570 36 554 0 492 0 c 2
 109 0 l 2
 68 0 52 11 52 40 c 0
EndSplineSet
Validated: 3073
EndChar

StartChar: twosuperior
Encoding: 178 178 113
Width: 600
Flags: MW
LayerCount: 2
Fore
SplineSet
274 526 m 0
 274 548 328 637 430 637 c 0
 494 637 538 598 538 542 c 0
 538 478 513 451 321 314 c 1
 430 314 l 1
 437 335 450 346 469 346 c 0
 484 346 496 335 496 321 c 0
 496 317 495 309 494 303 c 0
 482 247 l 1
 202 247 l 1
 217 315 l 1
 452 481 470 497 470 529 c 0
 470 553 447 570 415 570 c 0
 336 570 347 500 301 500 c 0
 286 500 274 511 274 526 c 0
EndSplineSet
Validated: 3073
EndChar

StartChar: threesuperior
Encoding: 179 179 114
Width: 600
Flags: MW
LayerCount: 2
Fore
SplineSet
259 326 m 0
 280 326 271 305 347 305 c 0
 413 305 451 327 451 367 c 0
 451 438 346 397 346 444 c 0
 346 465 366 484 389 484 c 2
 413 484 l 2
 445 484 475 510 475 536 c 0
 475 557 454 570 420 570 c 0
 347 570 358 533 321 533 c 0
 306 533 294 545 294 559 c 0
 294 599 364 637 438 637 c 0
 502 637 543 603 543 548 c 0
 543 484 489 464 473 448 c 1
 503 431 519 404 519 374 c 0
 519 299 446 238 335 238 c 0
 265 238 218 257 218 285 c 0
 218 306 238 326 259 326 c 0
EndSplineSet
Validated: 3073
EndChar

StartChar: acute
Encoding: 180 180 115
Width: 600
Flags: HMW
LayerCount: 2
Fore
SplineSet
507.681 588 m 0
 409.279 512 l 2
 392.69 499.188 384.458 496 374.458 496 c 0
 354.458 496 340.456 513 343.806 532 c 0
 346.099 545 355.474 555.365 373.33 569 c 2
 471.555 644 l 2
 489.847 657 495.376 660 506.376 660 c 0
 527.376 660 540.555 644 536.852 623 c 0
 534.735 611 526.148 602 507.681 588 c 0
EndSplineSet
EndChar

StartChar: micro
Encoding: 181 181 116
Width: 600
Flags: MW
LayerCount: 2
Fore
SplineSet
583 61 m 0
 583 37 567 0 504 0 c 2
 410 0 l 1
 415 23 l 1
 354 -4 301 -16 249 -16 c 0
 229 -16 212 -13 193 -7 c 1
 176 -87 l 2
 164 -147 126 -153 112 -153 c 0
 89 -153 72 -137 72 -116 c 0
 72 -109 73 -100 76 -87 c 0
 166 338 l 1
 150 338 l 2
 110 338 94 349 94 377 c 0
 94 406 125 438 153 438 c 0
 156 438 l 2
 171 437 l 1
 288 437 l 1
 225 144 l 2
 223 134 222 125 222 120 c 0
 222 98 243 84 276 84 c 0
 321 84 368 100 439 138 c 1
 482 338 l 1
 447 338 l 2
 406 338 390 349 390 377 c 0
 390 403 406 437 468 437 c 2
 603 437 l 1
 531 100 l 1
 567 100 583 88 583 61 c 0
EndSplineSet
Validated: 3073
EndChar

StartChar: paragraph
Encoding: 182 182 117
Width: 600
Flags: MW
LayerCount: 2
Fore
SplineSet
672 552 m 0
 672 531 660 505 610 505 c 2
 575 505 l 1
 447 -96 l 1
 484 -96 l 2
 517 -96 529 -104 529 -127 c 0
 529 -144 520 -174 467 -174 c 2
 374 -174 l 2
 353 -174 345 -165 341 -140 c 1
 323 -169 315 -174 291 -174 c 2
 154 -174 l 2
 121 -174 108 -165 108 -143 c 0
 108 -123 120 -96 171 -96 c 2
 249 -96 l 1
 309 185 l 1
 197 197 123 256 123 334 c 0
 123 486 263 583 429 583 c 2
 626 583 l 2
 659 583 672 574 672 552 c 0
326 266 m 1
 376 500 l 1
 310 488 257 449 248 405 c 2
 239 361 l 2
 238 356 237 351 237 347 c 0
 237 308 269 279 326 266 c 1
499 505 m 1
 455 505 l 1
 327 -96 l 1
 339 -102 343 -108 344 -124 c 1
 352 -109 359 -102 371 -96 c 1
 499 505 l 1
EndSplineSet
Validated: 3073
EndChar

StartChar: middot
Encoding: 183 183 118
Width: 600
Flags: HMW
LayerCount: 2
Fore
SplineSet
364 302 m 0
 393 302 413 282 413 254 c 0
 413 217 377 182 338 182 c 0
 311 182 290 203 290 230 c 0
 290 267 326 302 364 302 c 0
EndSplineSet
EndChar

StartChar: cedilla
Encoding: 184 184 119
Width: 600
Flags: HMW
LayerCount: 2
Fore
SplineSet
194 -102 m 0
 210 -102 236 -130 274 -130 c 0
 300 -130 316 -118 316 -99 c 0
 316 -81 300 -71 270 -71 c 0
 264 -71 259 -71 247 -73 c 1
 262 0 l 1
 332 0 l 1
 330 -12 l 1
 372 -21 388 -39 388 -79 c 0
 388 -146 330 -200 258 -200 c 0
 223 -200 150 -182 150 -145 c 0
 150 -123 171 -102 194 -102 c 0
EndSplineSet
EndChar

StartChar: onesuperior
Encoding: 185 185 120
Width: 600
Flags: MW
LayerCount: 2
Fore
SplineSet
469 638 m 1
 400 314 l 1
 457 314 l 2
 484 314 494 307 494 288 c 0
 494 263 474 247 443 247 c 2
 261 247 l 2
 236 247 224 255 224 274 c 0
 224 299 244 314 276 314 c 2
 333 314 l 1
 383 551 l 1
 333 539 l 2
 321 536 317 535 311 535 c 0
 297 535 287 546 287 562 c 0
 287 584 300 596 330 604 c 2
 469 638 l 1
EndSplineSet
Validated: 3073
EndChar

StartChar: ordmasculine
Encoding: 186 186 121
Width: 600
Flags: MW
LayerCount: 2
Fore
SplineSet
427 595 m 0
 508 595 566 540 566 463 c 0
 566 363 468 273 359 273 c 0
 278 273 219 326 219 400 c 0
 219 498 322 595 427 595 c 0
411 517 m 0
 356 517 300 466 300 416 c 0
 300 380 334 351 375 351 c 0
 431 351 485 397 485 445 c 0
 485 487 454 517 411 517 c 0
528 229 m 0
 528 208 516 182 467 182 c 2
 212 182 l 2
 181 182 168 191 168 213 c 0
 168 233 180 259 229 259 c 2
 484 259 l 2
 516 259 528 251 528 229 c 0
EndSplineSet
Validated: 3073
EndChar

StartChar: guillemotright
Encoding: 187 187 122
Width: 600
Flags: MW
LayerCount: 2
Fore
SplineSet
476 217 m 1
 355 358 l 1
 348 365 344 375 344 380 c 0
 344 397 364 415 384 415 c 0
 393 415 397 413 409 402 c 2
 617 217 l 1
 331 33 l 2
 314 22 309 20 300 20 c 0
 284 20 273 30 273 44 c 0
 273 55 279 65 295 77 c 2
 476 217 l 1
246 217 m 1
 125 358 l 2
 118 366 114 374 114 381 c 0
 114 397 134 415 154 415 c 0
 163 415 167 413 179 402 c 2
 387 217 l 1
 101 33 l 2
 84 22 79 20 70 20 c 0
 54 20 43 30 43 44 c 0
 43 55 49 65 65 77 c 2
 246 217 l 1
EndSplineSet
Validated: 3073
EndChar

StartChar: onequarter
Encoding: 188 188 123
Width: 600
Flags: MW
LayerCount: 2
Fore
SplineSet
262 638 m 1
 193 314 l 1
 250 314 l 2
 277 314 287 307 287 288 c 0
 287 263 266 247 236 247 c 2
 54 247 l 2
 29 247 17 255 17 274 c 0
 17 299 37 314 69 314 c 2
 126 314 l 1
 176 551 l 1
 126 539 l 2
 114 536 110 535 104 535 c 0
 90 535 80 546 80 562 c 0
 80 584 93 597 123 604 c 2
 262 638 l 1
607 528 m 2
 250 77 l 2
 235 58 225 51 210 51 c 0
 194 51 183 62 183 78 c 0
 183 88 186 93 199 110 c 2
 556 561 l 2
 572 581 581 587 596 587 c 0
 611 587 623 575 623 560 c 0
 623 552 618 542 607 528 c 2
673 380 m 1
 624 150 l 1
 645 149 655 141 655 124 c 0
 655 101 637 85 610 83 c 1
 606 67 l 1
 627 66 637 57 637 40 c 0
 637 16 616 0 585 0 c 2
 506 0 l 2
 481 0 470 8 470 27 c 0
 470 52 489 67 520 67 c 2
 539 67 l 1
 543 83 l 1
 380 83 l 1
 391 138 l 1
 589 380 l 1
 673 380 l 1
557 150 m 1
 584 279 l 1
 478 150 l 1
 557 150 l 1
EndSplineSet
Validated: 3073
EndChar

StartChar: onehalf
Encoding: 189 189 124
Width: 600
Flags: MW
LayerCount: 2
Fore
SplineSet
270 638 m 1
 201 314 l 1
 258 314 l 2
 285 314 295 307 295 288 c 0
 295 263 274 247 244 247 c 2
 62 247 l 2
 37 247 25 255 25 274 c 0
 25 299 45 314 77 314 c 2
 134 314 l 1
 184 551 l 1
 134 539 l 2
 122 536 118 535 112 535 c 0
 98 535 88 546 88 562 c 0
 88 584 101 597 131 604 c 2
 270 638 l 1
585 528 m 2
 229 77 l 2
 214 58 203 51 189 51 c 0
 173 51 162 62 162 78 c 0
 162 87 165 94 178 110 c 2
 535 561 l 1
 550 581 560 587 575 587 c 0
 590 587 602 575 602 560 c 0
 602 551 598 544 585 528 c 2
421 279 m 0
 421 303 475 390 577 390 c 0
 641 390 685 351 685 295 c 0
 685 231 659 203 468 67 c 1
 577 67 l 1
 584 88 597 99 616 99 c 0
 631 99 643 88 643 74 c 0
 643 70 642 62 641 56 c 0
 629 0 l 1
 349 0 l 1
 363 68 l 1
 599 234 617 250 617 282 c 0
 617 306 594 323 562 323 c 0
 483 323 494 253 448 253 c 0
 433 253 421 264 421 279 c 0
EndSplineSet
Validated: 3073
EndChar

StartChar: threequarters
Encoding: 190 190 125
Width: 600
Flags: MW
LayerCount: 2
Fore
SplineSet
59 326 m 0
 82 326 69 305 147 305 c 0
 213 305 251 327 251 367 c 0
 251 438 146 397 146 444 c 0
 146 465 166 484 189 484 c 2
 213 484 l 2
 245 484 275 510 275 536 c 0
 275 557 254 570 220 570 c 0
 147 570 158 533 121 533 c 0
 106 533 94 545 94 559 c 0
 94 599 164 637 238 637 c 0
 302 637 343 603 343 548 c 0
 343 484 289 464 273 448 c 1
 303 431 319 404 319 374 c 0
 319 300 249 238 135 238 c 0
 65 238 18 257 18 285 c 0
 18 306 38 326 59 326 c 0
585 528 m 2
 229 77 l 2
 214 58 203 51 188 51 c 0
 173 51 161 62 161 78 c 0
 161 88 164 93 178 110 c 2
 534 561 l 2
 550 581 559 587 574 587 c 0
 589 587 601 575 601 560 c 0
 601 552 596 541 585 528 c 2
673 380 m 1
 624 150 l 1
 645 149 655 141 655 124 c 0
 655 101 637 85 610 83 c 1
 607 67 l 1
 627 66 637 57 637 40 c 0
 637 16 616 0 585 0 c 2
 506 0 l 2
 481 0 469 8 469 27 c 0
 469 52 489 67 520 67 c 2
 540 67 l 1
 543 83 l 1
 379 83 l 1
 391 138 l 1
 589 380 l 1
 673 380 l 1
557 150 m 1
 585 279 l 1
 477 150 l 1
 557 150 l 1
EndSplineSet
Validated: 3073
EndChar

StartChar: AE
Encoding: 198 198 133
Width: 600
Flags: MW
LayerCount: 2
Fore
SplineSet
-10 40 m 0
 -10 66 5 100 68 100 c 2
 75 100 l 1
 271 483 l 1
 257 483 l 2
 216 483 201 494 201 523 c 0
 201 546 213 583 279 583 c 2
 717 583 l 1
 682 418 l 2
 679 404 669 352 617 352 c 0
 596 352 578 369 578 389 c 0
 578 396 579 405 582 418 c 2
 596 483 l 1
 470 483 l 1
 440 342 l 1
 459 342 l 1
 469 377 491 397 521 397 c 0
 543 397 561 380 561 360 c 0
 561 352 560 351 556 331 c 0
 540 253 l 2
 537 240 528 187 476 187 c 0
 453 187 436 204 436 225 c 0
 436 229 436 233 438 243 c 1
 419 243 l 1
 389 100 l 1
 535 100 l 1
 540 123 l 2
 554 184 590 189 604 189 c 0
 628 189 645 173 645 151 c 0
 645 143 644 142 640 123 c 0
 614 0 l 1
 266 0 l 2
 236 0 219 14 219 41 c 0
 219 72 247 100 280 100 c 2
 289 100 l 1
 301 158 l 1
 208 158 l 1
 178 100 l 1
 200 97 211 85 211 65 c 0
 211 27 182 0 141 0 c 2
 47 0 l 2
 6 0 -10 12 -10 40 c 0
322 259 m 1
 367 471 l 1
 258 259 l 1
 322 259 l 1
EndSplineSet
Validated: 3073
EndChar

StartChar: Ccedilla
Encoding: 199 199 134
Width: 600
Flags: HMW
LayerCount: 2
Fore
SplineSet
347 86 m 0
 488 86 504 159 547 159 c 0
 570 159 588 141 588 118 c 0
 588 95 530 -2 334 -14 c 1
 376 -22 386 -40 386 -80 c 0
 386 -145 328 -200 258 -200 c 0
 201 -200 148 -174 148 -145 c 0
 148 -123 169 -102 192 -102 c 0
 208 -102 234 -130 272 -130 c 0
 298 -130 314 -118 314 -99 c 0
 314 -82 298 -71 273 -71 c 0
 267 -71 263 -71 246 -73 c 1
 265 -9 l 1
 150 14 80 83 80 195 c 0
 80 213 82 231 86 249 c 2
 100 315 l 2
 134 475 277 597 432 597 c 0
 482 597 516 590 576 559 c 1
 593 576 606 583 623 583 c 0
 646 583 663 567 663 545 c 0
 663 538 663 534 659 517 c 0
 641 433 l 2
 637 418 625 367 577 367 c 0
 554 367 538 382 538 404 c 2
 538 406 l 1
 539 425 l 1
 539 427 l 2
 539 464 482 497 415 497 c 0
 216 497 182 266 182 214 c 0
 182 135 245 86 347 86 c 0
EndSplineSet
EndChar

StartChar: Eth
Encoding: 208 208 143
Width: 600
Flags: MW
LayerCount: 2
Fore
SplineSet
23 40 m 0
 23 60 38 100 96 100 c 1
 126 243 l 1
 119 243 l 2
 78 243 62 254 62 283 c 0
 62 308 78 343 140 343 c 2
 147 343 l 1
 177 483 l 1
 142 483 126 496 126 523 c 0
 126 546 138 583 204 583 c 2
 417 583 l 2
 539 583 622 497 622 369 c 0
 622 167 489 0 285 0 c 2
 80 0 l 2
 39 0 23 12 23 40 c 0
378 304 m 0
 378 278 362 243 300 243 c 2
 226 243 l 1
 196 100 l 1
 306 100 l 2
 347 100 472 105 506 261 c 2
 516 307 l 2
 519 321 520 335 520 350 c 0
 520 406 493 483 387 483 c 2
 277 483 l 1
 247 343 l 1
 321 343 l 2
 355 343 378 338 378 304 c 0
EndSplineSet
Validated: 3073
EndChar

StartChar: multiply
Encoding: 215 215 150
Width: 600
Flags: MW
LayerCount: 2
Fore
SplineSet
344 209 m 1
 219 106 l 2
 194 85 183 80 167 80 c 0
 143 80 126 97 126 120 c 0
 126 141 134 153 163 177 c 2
 288 280 l 1
 207 383 l 2
 192 401 189 408 189 421 c 0
 189 450 221 480 252 480 c 0
 267 480 277 474 293 454 c 2
 374 351 l 1
 499 454 l 2
 525 475 534 480 551 480 c 0
 575 480 592 463 592 440 c 0
 592 420 583 407 555 383 c 2
 430 280 l 1
 511 177 l 2
 525 159 529 151 529 139 c 0
 529 110 497 80 466 80 c 0
 450 80 441 85 425 106 c 2
 344 209 l 1
EndSplineSet
Validated: 3073
EndChar

StartChar: Oslash
Encoding: 216 216 151
Width: 600
Flags: MW
LayerCount: 2
Fore
SplineSet
649 365 m 0
 649 138 448 -14 298 -14 c 0
 248 -14 203 0 165 28 c 1
 97 -40 l 2
 72 -65 63 -70 44 -70 c 0
 21 -70 4 -54 4 -33 c 0
 4 -16 10 -5 35 19 c 2
 108 92 l 1
 85 132 75 171 75 220 c 0
 75 413 247 597 427 597 c 0
 480 597 525 581 566 549 c 1
 624 607 l 2
 649 632 660 638 678 638 c 0
 700 638 717 622 717 600 c 0
 717 582 712 572 687 548 c 0
 621 483 l 1
 640 449 649 409 649 365 c 0
538 400 m 1
 244 107 l 1
 267 93 292 86 319 86 c 0
 435 86 546 212 546 342 c 0
 546 364 544 380 538 400 c 1
190 174 m 1
 487 471 l 1
 463 488 436 497 405 497 c 0
 290 497 178 371 178 243 c 0
 178 217 182 197 190 174 c 1
EndSplineSet
Validated: 3073
EndChar

StartChar: Thorn
Encoding: 222 222 157
Width: 600
Flags: MW
LayerCount: 2
Fore
SplineSet
588 321 m 0
 588 249 535 140 322 140 c 2
 224 140 l 1
 216 100 l 1
 314 100 l 2
 348 100 372 95 372 61 c 0
 372 36 356 0 293 0 c 2
 80 0 l 2
 39 0 23 12 23 40 c 0
 23 65 39 100 101 100 c 2
 116 100 l 1
 197 483 l 1
 182 483 l 2
 149 483 126 488 126 523 c 0
 126 547 142 583 204 583 c 2
 417 583 l 2
 458 583 474 572 474 543 c 0
 474 519 458 483 396 483 c 2
 297 483 l 1
 289 443 l 1
 387 443 l 2
 461 443 503 435 535 415 c 0
 568 394 588 358 588 321 c 0
246 240 m 1
 376 240 l 2
 448 240 484 261 484 302 c 0
 484 331 459 343 398 343 c 2
 267 343 l 1
 246 240 l 1
EndSplineSet
Validated: 3073
EndChar

StartChar: germandbls
Encoding: 223 223 158
Width: 600
Flags: MW
LayerCount: 2
Fore
SplineSet
296 342 m 0
 296 437 444 369 444 470 c 0
 444 503 420 523 380 523 c 0
 331 523 302 502 293 461 c 0
 216 100 l 1
 239 96 250 84 250 63 c 0
 250 40 239 0 171 0 c 2
 78 0 l 2
 38 0 22 11 22 40 c 0
 22 65 38 100 100 100 c 2
 116 100 l 1
 196 478 l 2
 214 563 299 623 400 623 c 0
 488 623 546 570 546 490 c 0
 546 441 530 405 489 365 c 1
 542 328 569 278 569 214 c 0
 569 156 529 -16 370 -16 c 0
 310 -16 272 18 272 74 c 0
 272 121 300 156 338 156 c 0
 359 156 375 143 375 125 c 2
 375 113 l 2
 375 94 383 84 399 84 c 0
 434 84 467 137 467 191 c 0
 467 258 420 294 342 303 c 0
 309 307 296 318 296 342 c 0
EndSplineSet
Validated: 3073
EndChar

StartChar: ae
Encoding: 230 230 165
Width: 600
Flags: MW
LayerCount: 2
Fore
SplineSet
125 365 m 0
 125 438 268 450 302 450 c 0
 349 450 380 433 406 394 c 1
 451 433 488 450 531 450 c 0
 609 450 665 384 665 290 c 0
 665 251 655 207 647 172 c 1
 397 172 l 1
 400 109 418 84 459 84 c 0
 506 84 561 118 592 118 c 0
 613 118 628 102 628 80 c 0
 628 3 482 -16 437 -16 c 0
 399 -16 377 -8 346 16 c 1
 334 5 320 -1 305 -1 c 0
 290 -1 280 5 272 16 c 1
 230 -7 198 -16 156 -16 c 0
 67 -16 14 30 14 106 c 0
 14 156 31 195 64 221 c 0
 112 258 194 286 256 286 c 0
 271 286 289 284 315 281 c 1
 317 291 320 302 320 314 c 0
 319 336 304 350 282 350 c 0
 245 350 188 325 163 325 c 0
 141 325 125 342 125 365 c 0
241 197 m 0
 174 197 117 171 117 130 c 0
 117 101 140 84 177 84 c 0
 207 84 234 96 283 130 c 1
 295 189 l 1
 273 195 258 197 241 197 c 0
417 258 m 1
 557 258 l 1
 558 268 558 275 558 280 c 0
 558 323 539 350 507 350 c 0
 452 350 427 284 417 258 c 1
EndSplineSet
Validated: 3073
EndChar

StartChar: ccedilla
Encoding: 231 231 166
Width: 600
Flags: HMW
LayerCount: 2
Fore
SplineSet
348 84 m 0
 505 84 499 140 544 140 c 0
 568 140 585 123 585 99 c 0
 585 76 551 -10 338 -16 c 1
 379.995 -23.9971 390 -40 390 -80 c 0
 390 -145 332 -200 263 -200 c 0
 205 -200 153 -174 153 -145 c 0
 153 -123 174 -102 197 -102 c 0
 213 -102 239 -130 276 -130 c 0
 302 -130 318 -118 318 -99 c 0
 318 -80 302 -71 269 -71 c 0
 265 -71 259 -72 250 -73 c 1
 268 -14 l 1
 153 -2 92 62 92 156 c 0
 92 226 155 450 406 450 c 0
 462 450 508 440 543 420 c 1
 554 441 566 450 586 450 c 0
 609 450 626 436 626 415 c 0
 626 406 625 404 621 384 c 0
 605 307 l 2
 602 292 592 241 541 241 c 0
 504 241 500 264 500 289 c 0
 500 338 435 350 385 350 c 0
 226 350 195 215 195 179 c 0
 195 115 245 84 348 84 c 0
EndSplineSet
EndChar

StartChar: eth
Encoding: 240 240 175
Width: 600
Flags: MW
LayerCount: 2
Fore
SplineSet
331 551 m 1
 268 580 260 579 260 597 c 0
 260 619 284 640 308 640 c 0
 331 640 360 630 401 609 c 2
 426 596 l 1
 512 637 l 2
 525 643 537 646 547 646 c 0
 562 646 572 635 572 620 c 0
 572 605 561 592 542 583 c 2
 491 558 l 1
 609 462 617 362 617 312 c 0
 617 106 459 -16 298 -16 c 0
 173 -16 83 62 83 170 c 0
 83 286 204 443 382 443 c 0
 431 443 459 433 514 396 c 1
 486 446 445 490 404 518 c 1
 301 468 l 2
 280 457 276 456 267 456 c 0
 253 456 244 467 244 484 c 0
 244 503 249 509 274 522 c 2
 331 551 l 1
318 84 m 0
 402 84 504 143 504 238 c 0
 504 303 450 350 374 350 c 0
 278 350 187 271 187 188 c 0
 187 130 245 84 318 84 c 0
EndSplineSet
Validated: 3073
EndChar

StartChar: divide
Encoding: 247 247 182
Width: 600
Flags: MW
LayerCount: 2
Fore
SplineSet
101 270 m 0
 101 293 113 330 179 330 c 2
 562 330 l 2
 599 330 619 325 619 290 c 0
 619 266 603 230 541 230 c 2
 158 230 l 2
 117 230 101 241 101 270 c 0
335 160 m 0
 375 160 397 141 397 108 c 0
 397 63 357 28 306 28 c 0
 267 28 244 47 244 80 c 0
 244 125 284 160 335 160 c 0
413 532 m 0
 454 532 476 513 476 480 c 0
 476 435 436 400 385 400 c 0
 346 400 323 419 323 452 c 0
 323 496 363 532 413 532 c 0
EndSplineSet
Validated: 3073
EndChar

StartChar: oslash
Encoding: 248 248 183
Width: 600
Flags: MW
LayerCount: 2
Fore
SplineSet
634 402 m 2
 583 359 l 1
 600 329 609 297 609 260 c 0
 609 116 460 -16 297 -16 c 0
 251 -16 211 -6 174 14 c 1
 106 -44 l 2
 82 -65 71 -70 56 -70 c 0
 33 -70 17 -54 17 -32 c 0
 17 -13 25 -1 52 22 c 2
 111 72 l 1
 92 103 83 136 83 174 c 0
 83 317 232 450 392 450 c 0
 437 450 491 437 521 419 c 1
 580 468 l 2
 604 489 614 494 630 494 c 0
 653 494 669 478 669 456 c 0
 669 437 661 424 634 402 c 2
496 286 m 1
 266 91 l 1
 283 86 297 84 316 84 c 0
 418 84 507 157 507 241 c 0
 507 258 504 271 496 286 c 1
197 145 m 1
 430 342 l 1
 410 347 393 350 374 350 c 0
 274 350 185 276 185 192 c 0
 185 177 189 161 197 145 c 1
EndSplineSet
Validated: 3073
EndChar

StartChar: thorn
Encoding: 254 254 189
Width: 600
Flags: HMW
LayerCount: 2
Fore
SplineSet
113 564 m 0
 113 589 129 624 191 624 c 2
 307 624 l 1
 257 392 l 1
 315 434 361 450 423 450 c 0
 545 450 623 379 623 269 c 0
 623 127 490 10 329 10 c 0
 272 10 231 27 188 66 c 1
 153 -100 l 1
 211 -100 l 2
 244 -100 267 -105 267 -139 c 0
 267 -165 251 -200 189 -200 c 2
 15 -200 l 2
 -25 -200 -41 -189 -41 -160 c 0
 -41 -135 -25 -100 37 -100 c 2
 53 -100 l 1
 185 524 l 1
 169 524 l 2
 128 524 113 535 113 564 c 0
346 110 m 0
 487 110 522 218 522 252 c 0
 522 312 473 350 398 350 c 0
 250 350 221 237 221 208 c 0
 221 170 246 110 346 110 c 0
EndSplineSet
EndChar

StartChar: Aogonek
Encoding: 260 260 195
Width: 600
Flags: HMW
LayerCount: 2
Fore
SplineSet
486 -122 m 0
 515 -122 539 -100 562 -100 c 0
 581 -100 593 -113 593 -132 c 0
 593 -181 502 -200 464 -200 c 0
 416 -200 387 -172 387 -127 c 0
 387 -71 415 -44 500 0 c 1
 416 0 l 2
 376 0 360 11 360 40 c 0
 360 66 376 100 438 100 c 2
 461 100 l 1
 450 158 l 1
 212 158 l 1
 176 100 l 1
 199 100 l 2
 230 100 256 96 256 60 c 0
 256 36 240 0 178 0 c 2
 46 0 l 2
 5 0 -11 11 -11 40 c 0
 -11 66 5 100 68 100 c 1
 304 483 l 1
 241 483 l 2
 200 483 184 494 184 523 c 0
 184 545 195 583 262 583 c 2
 478 583 l 1
 575 100 l 1
 607 100 633 96 633 60 c 0
 633 33 618 16 578 -2 c 0
 515 -30 469 -70 469 -106 c 0
 469 -117 474 -122 486 -122 c 0
430 258 m 1
 392 450 l 1
 273 258 l 1
 430 258 l 1
EndSplineSet
EndChar

StartChar: aogonek
Encoding: 261 261 196
Width: 600
Flags: HMW
LayerCount: 2
Fore
SplineSet
435 -124 m 0
 465 -124 490 -100 515 -100 c 0
 533 -100 546 -112 546 -130 c 0
 546 -181 451 -200 412 -200 c 0
 364 -200 335 -175 335 -134 c 0
 335 -49 417 -14 442 0 c 1
 388 0 l 1
 393 23 l 1
 340 -2 278 -16 219 -16 c 0
 130 -16 65 32 65 98 c 0
 65 136 121 288 346 288 c 0
 378 288 408 285 447 278 c 1
 450 290 453 297 453 311 c 0
 453 338 426 350 369 350 c 0
 299 350 241 327 207 327 c 0
 185 327 169 343 169 366 c 0
 169 434 305 450 389 450 c 0
 493 450 557 407 557 337 c 0
 557 324 556 314 553 302 c 0
 510 100 l 1
 527 100 l 2
 560 100 583 95 583 61 c 0
 583 -4 416 -39 416 -109 c 0
 416 -119 423 -124 435 -124 c 0
320 196 m 0
 236 196 174 150 174 118 c 0
 174 99 203 84 241 84 c 0
 296 84 355 101 418 135 c 1
 428 185 l 1
 390 192 354 196 320 196 c 0
EndSplineSet
EndChar

StartChar: Dcroat
Encoding: 272 272 207
Width: 600
Flags: MW
LayerCount: 2
Fore
SplineSet
23 40 m 0
 23 60 38 100 96 100 c 1
 126 243 l 1
 119 243 l 2
 78 243 62 254 62 283 c 0
 62 308 78 343 140 343 c 2
 147 343 l 1
 177 483 l 1
 142 483 126 496 126 523 c 0
 126 546 138 583 204 583 c 2
 417 583 l 2
 539 583 622 497 622 369 c 0
 622 167 489 0 285 0 c 2
 80 0 l 2
 39 0 23 12 23 40 c 0
378 304 m 0
 378 278 362 243 300 243 c 2
 226 243 l 1
 196 100 l 1
 306 100 l 2
 347 100 472 105 506 261 c 2
 516 307 l 2
 519 321 520 335 520 350 c 0
 520 406 493 483 387 483 c 2
 277 483 l 1
 247 343 l 1
 321 343 l 2
 355 343 378 338 378 304 c 0
EndSplineSet
Validated: 3073
EndChar

StartChar: dcroat
Encoding: 273 273 208
Width: 600
Flags: MW
LayerCount: 2
Fore
SplineSet
470 565 m 0
 470 586 482 624 548 624 c 2
 664 624 l 1
 640 510 l 1
 655 510 l 2
 688 510 712 505 712 472 c 0
 712 445 696 410 634 410 c 2
 619 410 l 1
 553 100 l 1
 569 100 l 2
 600 100 625 96 625 60 c 0
 625 35 609 0 547 0 c 2
 431 0 l 1
 439 35 l 1
 379 -1 336 -14 278 -14 c 0
 115 -14 74 95 74 168 c 0
 74 236 105 308 156 360 c 0
 217 422 288 451 378 451 c 0
 437 451 480 435 517 400 c 1
 543 525 l 1
 527 525 l 2
 486 525 470 535 470 565 c 0
481 244 m 0
 481 284 462 351 354 351 c 0
 215 351 177 227 177 193 c 0
 177 126 224 86 302 86 c 0
 443 86 481 208 481 244 c 0
EndSplineSet
Validated: 3073
EndChar

StartChar: Eogonek
Encoding: 280 280 215
Width: 600
Flags: HMW
LayerCount: 2
Fore
SplineSet
451 -122 m 0
 480 -122 504 -100 527 -100 c 0
 546 -100 558 -113 558 -132 c 0
 558 -181 467 -200 429 -200 c 0
 381 -200 352 -172 352 -127 c 0
 352 -71 379 -44 464 0 c 1
 80 0 l 2
 40 0 23 12 23 40 c 0
 23 66 38 100 101 100 c 2
 116 100 l 1
 197 483 l 1
 182 483 l 2
 141 483 125 494 125 523 c 0
 125 546 137 583 204 583 c 2
 652 583 l 1
 620 433 l 2
 617 418 608 366 556 366 c 0
 534 366 516 382 516 404 c 0
 516 426 526 462 531 483 c 1
 297 483 l 1
 267 342 l 1
 352 342 l 1
 354 358 365 416 417 416 c 0
 440 416 457 400 457 378 c 0
 457 370 457 369 453 349 c 0
 428 236 l 2
 425 222 416 170 365 170 c 0
 342 170 325 186 325 207 c 0
 325 213 328 233 331 243 c 1
 246 243 l 1
 216 100 l 1
 471 100 l 1
 483 152 l 2
 486 167 496 219 546 219 c 0
 569 219 587 203 587 182 c 0
 587 174 587 170 583 152 c 0
 550 0 l 1
 490 -27 434 -60 434 -106 c 0
 434 -117 439 -122 451 -122 c 0
EndSplineSet
EndChar

StartChar: eogonek
Encoding: 281 281 216
Width: 600
Flags: HMW
LayerCount: 2
Fore
SplineSet
363 -124 m 0
 393 -124 419 -100 443 -100 c 0
 461 -100 474 -112 474 -130 c 0
 474 -181 379 -200 340 -200 c 0
 292 -200 263 -175 263 -134 c 0
 263 -85 292 -48 346 -14 c 1
 322 -15 308 -16 294 -16 c 0
 158 -16 74 55 74 169 c 0
 74 318 221 450 387 450 c 0
 517 450 600 375 600 259 c 0
 600 228 592 199 587 172 c 1
 178 172 l 1
 189 112 237 84 325 84 c 0
 412 84 489 117 528 117 c 0
 551 117 566 101 566 79 c 0
 566 51 551 34 512 19 c 0
 422 -15 344 -71 344 -109 c 0
 344 -119 351 -124 363 -124 c 0
200 260 m 1
 495 260 l 1
 490 314 439 350 367 350 c 0
 293 350 228 315 200 260 c 1
EndSplineSet
EndChar

StartChar: Hbar
Encoding: 294 294 229
Width: 600
Flags: MW
LayerCount: 2
Fore
SplineSet
598 400 m 0
 598 376 582 340 519 340 c 1
 468 100 l 1
 474 100 l 2
 505 100 531 97 531 59 c 0
 531 36 516 0 453 0 c 2
 332 0 l 2
 290 0 276 14 276 40 c 0
 276 66 291 100 353 100 c 2
 368 100 l 1
 398 241 l 1
 184 241 l 1
 154 100 l 1
 169 100 l 2
 200 100 226 96 226 59 c 0
 226 36 211 0 148 0 c 2
 27 0 l 2
 -14 0 -29 12 -29 39 c 0
 -29 63 -17 100 48 100 c 2
 54 100 l 1
 105 340 l 1
 74 340 50 346 50 380 c 0
 50 406 65 440 127 440 c 1
 136 483 l 1
 108 486 93 499 93 521 c 0
 93 544 105 583 171 583 c 2
 272 583 l 2
 302 583 328 580 328 544 c 0
 328 517 313 483 251 483 c 2
 236 483 l 1
 206 341 l 1
 420 341 l 1
 450 483 l 1
 435 483 l 2
 402 483 378 488 378 524 c 0
 378 548 394 583 456 583 c 2
 557 583 l 2
 596 583 613 576 613 544 c 0
 613 508 585 486 550 483 c 1
 541 440 l 1
 579 440 598 434 598 400 c 0
EndSplineSet
Validated: 3073
EndChar

StartChar: hbar
Encoding: 295 295 230
Width: 600
Flags: MW
LayerCount: 2
Fore
SplineSet
68 564 m 0
 68 589 83 624 145 624 c 2
 373 624 l 2
 406 624 430 619 430 584 c 0
 430 559 415 524 352 524 c 2
 240 524 l 1
 211 389 l 1
 260 430 309 450 361 450 c 0
 453 450 507 401 507 324 c 0
 507 311 506 298 503 284 c 2
 464 100 l 1
 470 100 l 2
 508 100 526 94 526 60 c 0
 526 34 511 0 449 0 c 2
 337 0 l 2
 294 0 279 14 279 40 c 0
 279 66 295 100 358 100 c 2
 364 100 l 1
 400 271 l 2
 403 284 405 294 405 302 c 0
 405 323 390 350 329 350 c 0
 282 350 258 338 189 283 c 1
 150 100 l 1
 156 100 l 2
 194 100 213 94 213 60 c 0
 213 34 197 0 135 0 c 2
 23 0 l 2
 -20 0 -34 15 -34 41 c 0
 -34 65 -18 100 44 100 c 2
 50 100 l 1
 140 524 l 1
 124 524 l 2
 86 524 68 530 68 564 c 0
EndSplineSet
Validated: 3073
EndChar

StartChar: Iogonek
Encoding: 302 302 237
Width: 600
Flags: HMW
LayerCount: 2
Fore
SplineSet
380 -121 m 0
 409 -121 433 -99 456 -99 c 0
 475 -99 487 -112 487 -131 c 0
 487 -180 396 -199 358 -199 c 0
 310 -199 281 -171 281 -126 c 0
 281 -72 309 -44 394 0 c 1
 150 0 l 2
 109 0 93 11 93 40 c 0
 93 66 109 100 171 100 c 2
 272 100 l 1
 353 483 l 1
 252 483 l 2
 211 483 196 494 196 523 c 0
 196 549 212 583 274 583 c 2
 575 583 l 2
 609 583 632 578 632 544 c 0
 632 518 616 483 554 483 c 2
 453 483 l 1
 372 100 l 1
 472 100 l 2
 504 100 529 96 529 61 c 0
 529 33 514 16 475 -1 c 0
 412 -27 363 -68 363 -105 c 0
 363 -116 368 -121 380 -121 c 0
EndSplineSet
EndChar

StartChar: iogonek
Encoding: 303 303 238
Width: 600
Flags: HMW
LayerCount: 2
Fore
SplineSet
402 -124 m 0
 432 -124 458 -100 482 -100 c 0
 500 -100 513 -112 513 -130 c 0
 513 -181 418 -200 379 -200 c 0
 331 -200 302 -175 302 -134 c 0
 302 -49 384 -14 409 0 c 1
 129 0 l 2
 88 0 72 11 72 40 c 0
 72 66 88 100 150 100 c 2
 272 100 l 1
 322 337 l 1
 244 337 l 2
 202 337 186 348 186 377 c 0
 186 400 198 437 265 437 c 2
 443 437 l 1
 372 100 l 1
 493 100 l 2
 526 100 550 95 550 61 c 0
 550 -6 383 -37 383 -109 c 0
 383 -119 390 -124 402 -124 c 0
469 623 m 1
 446 518 l 1
 328 518 l 1
 351 623 l 1
 469 623 l 1
EndSplineSet
EndChar

StartChar: dotlessi
Encoding: 305 305 240
Width: 600
Flags: MW
LayerCount: 2
Fore
SplineSet
186 377 m 0
 186 400 198 437 265 437 c 2
 443 437 l 1
 372 100 l 1
 493 100 l 2
 524 100 550 96 550 60 c 0
 550 38 536 0 472 0 c 2
 129 0 l 2
 88 0 72 11 72 40 c 0
 72 66 88 100 150 100 c 2
 272 100 l 1
 322 337 l 1
 244 337 l 2
 202 337 186 348 186 377 c 0
EndSplineSet
Validated: 3073
EndChar

StartChar: IJ
Encoding: 306 306 241
Width: 600
Flags: MW
LayerCount: 2
Fore
SplineSet
359 544 m 0
 359 518 343 483 281 483 c 2
 272 483 l 1
 191 100 l 1
 199 100 l 2
 231 100 256 96 256 61 c 0
 256 36 240 0 178 0 c 2
 59 0 l 2
 18 0 2 11 2 40 c 0
 2 66 18 100 80 100 c 2
 91 100 l 1
 172 483 l 1
 161 483 l 2
 120 483 105 494 105 523 c 0
 105 549 121 583 183 583 c 2
 302 583 l 2
 336 583 359 578 359 544 c 0
726 543 m 0
 726 518 710 483 648 483 c 2
 637 483 l 1
 574 187 l 1
 539 0 519 -14 402 -14 c 0
 349 -14 278 20 278 92 c 0
 278 99 279 106 280 113 c 0
 301 213 l 2
 304 229 316 280 366 280 c 0
 389 280 406 264 406 243 c 0
 406 235 406 232 402 213 c 0
 381 117 l 1
 384 86 389 86 422 86 c 0
 461 87 465 148 476 198 c 0
 537 483 l 1
 521 483 l 2
 480 483 464 494 464 523 c 0
 464 546 476 583 542 583 c 2
 669 583 l 2
 700 583 726 580 726 543 c 0
EndSplineSet
Validated: 3073
EndChar

StartChar: ij
Encoding: 307 307 242
Width: 600
Flags: HMW
LayerCount: 2
Fore
SplineSet
103 377 m 0
 103 400 115 437 182 437 c 2
 360 437 l 1
 289 100 l 1
 370 100 l 2
 401 100 427 96 427 60 c 0
 427 38 413 0 349 0 c 2
 76 0 l 2
 35 0 19 11 19 40 c 0
 19 66 35 100 97 100 c 2
 189 100 l 1
 239 337 l 1
 161 337 l 2
 119 337 103 348 103 377 c 0
386 623 m 1
 363 518 l 1
 245 518 l 1
 268 623 l 1
 386 623 l 1
171 -160 m 0
 171 -135 187 -100 249 -100 c 2
 359 -100 l 2
 417 -100 461 -67 472 -15 c 2
 547 337 l 1
 445 337 l 2
 404 337 388 348 388 377 c 0
 388 402 404 437 466 437 c 2
 668 437 l 1
 572 -15 l 1
 550 -120 450 -200 341 -200 c 2
 228 -200 l 2
 187 -200 171 -189 171 -160 c 0
650 623 m 1
 627 518 l 1
 508 518 l 1
 530 623 l 1
 650 623 l 1
EndSplineSet
EndChar

StartChar: kgreenlandic
Encoding: 312 312 247
Width: 600
Flags: MW
LayerCount: 2
Fore
SplineSet
262 38 m 0
 262 59 272 74 287 87 c 1
 226 164 l 1
 191 0 l 1
 75 0 l 2
 37 0 18 13 18 38 c 0
 18 61 29 100 96 100 c 2
 112 100 l 1
 162 337 l 1
 146 337 l 2
 115 337 90 340 90 375 c 0
 90 398 102 437 168 437 c 2
 284 437 l 1
 252 287 l 1
 344 350 l 1
 338 360 335 369 335 379 c 0
 335 403 350 437 414 437 c 2
 526 437 l 2
 559 437 582 433 582 400 c 0
 582 374 567 337 504 337 c 2
 476 337 l 1
 317 227 l 1
 425 100 l 1
 458 100 l 2
 489 100 515 97 515 61 c 0
 515 37 500 0 437 0 c 2
 319 0 l 2
 281 0 262 13 262 38 c 0
EndSplineSet
Validated: 3073
EndChar

StartChar: Lslash
Encoding: 321 321 256
Width: 600
Flags: MW
LayerCount: 2
Fore
SplineSet
494 543 m 0
 494 518 478 483 415 483 c 2
 359 483 l 1
 333 359 l 1
 431 411 l 2
 454 423 464 426 476 426 c 0
 496 426 513 408 513 388 c 0
 513 360 501 345 462 325 c 2
 308 244 l 1
 278 100 l 1
 492 100 l 1
 512 191 l 1
 521 236 542 258 576 258 c 0
 599 258 616 242 616 220 c 0
 616 213 615 207 612 191 c 0
 571 0 l 1
 100 0 l 2
 59 0 43 11 43 40 c 0
 43 66 59 100 121 100 c 2
 178 100 l 1
 199 203 l 1
 139 171 l 2
 120 161 105 156 94 156 c 0
 74 156 56 174 56 195 c 0
 56 223 68 238 107 258 c 2
 224 318 l 1
 259 483 l 1
 202 483 l 2
 161 483 145 494 145 523 c 0
 145 546 157 583 224 583 c 2
 437 583 l 2
 468 583 494 580 494 543 c 0
EndSplineSet
Validated: 3073
EndChar

StartChar: lslash
Encoding: 322 322 257
Width: 600
Flags: MW
LayerCount: 2
Fore
SplineSet
229 564 m 0
 229 590 245 624 308 624 c 2
 483 624 l 1
 435 399 l 1
 474 419 l 1
 498 433 505 435 519 435 c 0
 539 435 557 417 557 395 c 0
 557 367 544 351 506 332 c 2
 410 283 l 1
 371 100 l 1
 493 100 l 2
 526 100 550 95 550 61 c 0
 550 37 534 0 472 0 c 2
 129 0 l 2
 89 0 72 12 72 40 c 0
 72 66 88 100 150 100 c 2
 272 100 l 1
 302 243 l 1
 281 232 243 209 220 209 c 0
 199 209 182 227 182 249 c 0
 182 276 195 293 233 312 c 0
 327 359 l 1
 362 524 l 1
 286 524 l 2
 245 524 229 535 229 564 c 0
EndSplineSet
Validated: 3073
EndChar

StartChar: Eng
Encoding: 330 330 265
Width: 600
Flags: HMW
LayerCount: 2
Fore
SplineSet
163 -146 m 0
 163 -112 198 -86 223 -86 c 0
 237 -86 254 -100 291 -100 c 0
 337 -100 376 -67 388 -14 c 2
 391 2 l 1
 216 394 l 1
 154 100 l 1
 189 100 l 2
 222 100 246 94 246 65 c 0
 246 39 234 0 168 0 c 2
 39 0 l 2
 4 0 -19 9 -19 37 c 0
 -19 61 -5 100 54 100 c 1
 135 483 l 1
 120 483 l 2
 88 483 63 490 63 519 c 0
 63 567 96 583 142 583 c 2
 257 583 l 1
 431 191 l 1
 493 483 l 1
 458 483 l 2
 426 483 401 490 401 519 c 0
 401 567 434 583 480 583 c 2
 610 583 l 2
 640 583 667 577 667 547 c 0
 667 522 652 483 593 483 c 1
 488 -14 l 2
 465 -121 371 -200 272 -200 c 0
 202 -200 163 -180 163 -146 c 0
EndSplineSet
EndChar

StartChar: eng
Encoding: 331 331 266
Width: 600
Flags: HMW
LayerCount: 2
Fore
SplineSet
6 37 m 0
 6 62 18 100 84 100 c 2
 90 100 l 1
 140 337 l 1
 107 338 89 351 89 375 c 0
 89 400 104 437 168 437 c 2
 262 437 l 1
 251 389 l 1
 309 435 346 450 401 450 c 0
 488 450 548 407 548 324 c 0
 548 311 547 297 544 282 c 2
 481 -14 l 2
 458 -121 365 -200 266 -200 c 0
 195 -200 156 -180 156 -146 c 0
 156 -112 191 -86 216 -86 c 0
 230 -86 247 -100 284 -100 c 0
 330 -100 370 -67 381 -14 c 2
 443 278 l 2
 444 286 445 292 445 299 c 0
 445 334 421 350 368 350 c 0
 322 350 287 333 229 282 c 1
 190 100 l 1
 196 100 l 2
 227 100 253 94 253 64 c 0
 253 38 241 0 175 0 c 2
 63 0 l 2
 29 0 6 9 6 37 c 0
EndSplineSet
EndChar

StartChar: OE
Encoding: 338 338 273
Width: 600
Flags: MW
LayerCount: 2
Fore
SplineSet
418 243 m 1
 387 100 l 1
 534 100 l 1
 539 122 l 2
 542 138 552 188 603 188 c 0
 625 188 642 172 642 151 c 0
 642 144 641 137 638 122 c 2
 612 0 l 1
 259 0 l 2
 123 0 34 87 34 220 c 0
 34 416 194 583 383 583 c 2
 717 583 l 1
 682 418 l 2
 678 402 669 352 617 352 c 0
 596 352 578 369 578 389 c 0
 578 396 580 407 582 418 c 0
 596 483 l 1
 469 483 l 1
 439 342 l 1
 457 342 l 1
 467 378 489 397 519 397 c 0
 542 397 559 381 559 359 c 0
 559 352 558 350 554 331 c 0
 538 253 l 2
 534 238 522 187 473 187 c 0
 451 187 434 204 434 225 c 0
 434 229 435 236 436 243 c 1
 418 243 l 1
369 483 m 1
 179 480 137 303 137 248 c 0
 137 187 160 100 287 100 c 1
 369 483 l 1
EndSplineSet
Validated: 3073
EndChar

StartChar: oe
Encoding: 339 339 274
Width: 600
Flags: MW
LayerCount: 2
Fore
SplineSet
628 77 m 0
 628 -3 468 -16 434 -16 c 0
 378 -16 340 8 315 58 c 1
 270 10 218 -16 169 -16 c 0
 86 -16 28 53 28 152 c 0
 28 286 134 450 268 450 c 0
 317 450 356 423 382 370 c 1
 429 424 478 450 532 450 c 0
 610 450 666 384 666 291 c 0
 666 250 656 207 648 171 c 1
 397 171 l 1
 397 113 419 84 461 84 c 0
 518 84 560 117 590 117 c 0
 611 117 628 100 628 77 c 0
247 349 m 0
 189 349 131 261 131 175 c 0
 131 118 153 84 190 84 c 0
 248 84 306 172 306 258 c 0
 306 315 284 349 247 349 c 0
509 349 m 0
 464 349 438 302 418 257 c 1
 559 257 l 1
 559 263 l 2
 559 320 542 349 509 349 c 0
EndSplineSet
Validated: 3073
EndChar

StartChar: Scedilla
Encoding: 350 350 285
Width: 600
Flags: HMW
LayerCount: 2
Fore
SplineSet
273 411 m 0
 273 306 576 377 576 199 c 0
 576 85 479 0 335 -13 c 1
 378 -24 386 -54 386 -86 c 0
 386 -153 336 -200 265 -200 c 0
 203 -200 153 -175 153 -144 c 0
 153 -120 169 -104 191 -104 c 0
 220 -104 230 -134 280 -134 c 0
 301 -134 314 -124 314 -108 c 0
 314 -88 297 -77 268 -77 c 0
 262 -77 256 -78 244 -79 c 1
 265 -12 l 1
 230 -8 188 7 158 25 c 1
 137 6 128 1 112 1 c 0
 89 1 72 17 72 38 c 0
 72 44 73 55 76 67 c 0
 90 133 l 1
 100 178 120 199 155 199 c 0
 190 199 192 180 194 151 c 0
 197 115 254 86 319 86 c 0
 402 86 470 125 470 173 c 0
 470 250 310 225 223 281 c 0
 189 304 167 344 167 385 c 0
 167 501 284 597 425 597 c 0
 476 597 518 586 548 564 c 1
 564 589 575 597 594 597 c 0
 618 597 634 582 634 561 c 0
 634 554 634 549 630 531 c 0
 611 443 l 2
 608 428 595 376 547 376 c 0
 508 376 509 400 508 430 c 0
 508 470 466 497 404 497 c 0
 334 497 273 457 273 411 c 0
EndSplineSet
EndChar

StartChar: scedilla
Encoding: 351 351 286
Width: 600
Flags: HMW
LayerCount: 2
Fore
SplineSet
516 281 m 0
 458 281 506 350 376 350 c 0
 321 350 269 331 269 312 c 0
 269 270 434 286 507 238 c 0
 538 219 556 187 556 150 c 0
 556 63 463 -5 329 -15 c 1
 371 -23 381 -40 381 -80 c 0
 381 -147 323 -200 251 -200 c 0
 216 -200 143 -182 143 -145 c 0
 143 -123 164 -102 187 -102 c 0
 203 -102 229 -130 267 -130 c 0
 293 -130 309 -118 309 -99 c 0
 309 -81 293 -71 263 -71 c 0
 257 -71 252 -71 240 -73 c 1
 259 -14 l 1
 214 -9 184 -1 159 13 c 1
 145 4 137 1 124 1 c 0
 100 1 83 16 83 39 c 0
 83 45 84 52 87 67 c 2
 94 100 l 2
 104 146 124 167 159 167 c 0
 185 167 198 153 201 123 c 1
 224 97 264 84 318 84 c 0
 386 84 444 106 444 131 c 0
 444 162 393 172 328 179 c 0
 206 192 156 224 156 289 c 0
 156 379 260 450 394 450 c 0
 442 450 482 442 517 424 c 1
 530 444 539 450 555 450 c 0
 577 450 592 436 592 414 c 0
 592 407 591 398 588 384 c 2
 580 347 l 2
 577 332 567 281 516 281 c 0
EndSplineSet
EndChar

StartChar: uni0162
Encoding: 354 354 289
Width: 600
Flags: HMW
LayerCount: 2
Fore
SplineSet
128 40 m 0
 128 66 144 100 206 100 c 2
 270 100 l 1
 352 483 l 1
 245 483 l 1
 225 390 l 2
 222 378 213 324 161 324 c 0
 139 324 121 341 121 361 c 0
 121 368 122 378 125 390 c 2
 166 583 l 1
 682 583 l 1
 641 390 l 2
 638 376 629 324 577 324 c 0
 554 324 537 340 537 361 c 0
 537 368 538 377 541 390 c 2
 561 483 l 1
 452 483 l 1
 370 100 l 1
 436 100 l 2
 469 100 493 95 493 61 c 0
 493 37 477 0 415 0 c 2
 339.78 -1.73472e-17 l 1
 338 -13 l 1
 376 -20.5 390 -39 390 -79 c 0
 390 -146 332 -200 260 -200 c 0
 225 -200 152 -182 152 -145 c 0
 152 -123 173 -102 196 -102 c 0
 212 -102 238 -130 276 -130 c 0
 302 -130 318 -118 318 -99 c 0
 318 -81 302 -71 272 -71 c 0
 266 -71 261 -71 249 -73 c 1
 269.784 1.77636e-15 l 1
 184 0 l 2
 144 0 128 12 128 40 c 0
EndSplineSet
EndChar

StartChar: uni0163
Encoding: 355 355 290
Width: 600
Flags: HMW
LayerCount: 2
Fore
SplineSet
545 397 m 0
 545 373 529 337 467 337 c 2
 286 337 l 1
 244 141 l 2
 242.068 131.985 241 123 241 117 c 0
 241 95 267 84 318 84 c 0
 432 84 474 129 508 129 c 0
 531 129 547 113 547 89 c 0
 547 19.9497 392.678 -8.61012 317.747 -14.7088 c 1
 359.747 -23.709 377 -39 377 -79 c 0
 377 -146 319 -200 247 -200 c 0
 212 -200 139 -182 139 -145 c 0
 139 -123 160 -102 183 -102 c 0
 199 -102 225 -130 263 -130 c 0
 289 -130 305 -118 305 -99 c 0
 305 -81 289 -71 259 -71 c 0
 253 -71 248 -71 236 -73 c 1
 248.274 -12.3663 l 1
 194.831 -3.23864 137 24.9006 137 92 c 0
 137 104 138 112 140 122 c 2
 186 337 l 1
 151 337 l 2
 110 337 94 348 94 377 c 0
 94 399 105 437 172 437 c 2
 207 437 l 1
 226 525 l 2
 229 541 239 591 290 591 c 0
 313 591 330 575 330 553 c 0
 330 545 330 544 326 525 c 2
 307 437 l 1
 488 437 l 2
 519 437 545 434 545 397 c 0
EndSplineSet
EndChar

StartChar: Tbar
Encoding: 358 358 293
Width: 600
Flags: MW
LayerCount: 2
Fore
SplineSet
103 213 m 0
 103 263 138 277 181 277 c 2
 246 277 l 1
 290 483 l 1
 183 483 l 1
 163 390 l 2
 155 355 141 324 99 324 c 0
 69 324 60 340 60 363 c 0
 60 371 61 380 63 390 c 2
 104 583 l 1
 620 583 l 1
 579 390 l 2
 571 352 557 324 515 324 c 0
 485 324 476 340 476 363 c 0
 476 371 477 381 479 390 c 2
 499 483 l 1
 390 483 l 1
 346 277 l 1
 412 277 l 2
 445 277 469 270 469 242 c 0
 469 216 457 177 391 177 c 2
 325 177 l 1
 308 100 l 1
 374 100 l 2
 405 100 431 94 431 64 c 0
 431 39 420 0 353 0 c 2
 122 0 l 2
 76 0 65 20 65 39 c 0
 65 65 77 100 143 100 c 2
 208 100 l 1
 225 177 l 1
 160 177 l 2
 127 177 103 185 103 213 c 0
EndSplineSet
Validated: 3073
EndChar

StartChar: tbar
Encoding: 359 359 294
Width: 600
Flags: MW
LayerCount: 2
Fore
SplineSet
484 402 m 0
 484 376 472 337 406 337 c 2
 225 337 l 1
 212 277 l 1
 248 277 l 2
 281 277 305 270 305 242 c 0
 305 216 293 177 227 177 c 2
 191 177 l 1
 183 141 l 2
 181 134 180 127 180 121 c 0
 180 96 197 84 257 84 c 0
 371 84 412 129 447 129 c 0
 471 129 486 112 486 89 c 0
 486 24 329 -16 234 -16 c 0
 134 -16 76 25 76 93 c 0
 76 102 77 112 79 122 c 2
 91 177 l 1
 56 177 l 2
 23 177 -1 185 -1 213 c 0
 -1 263 34 277 77 277 c 2
 112 277 l 1
 125 337 l 1
 90 337 l 2
 57 337 33 345 33 373 c 0
 33 423 68 437 111 437 c 2
 146 437 l 1
 164 525 l 2
 172 560 187 591 229 591 c 0
 258 591 268 577 268 554 c 0
 268 545 267 536 264 525 c 2
 246 437 l 1
 427 437 l 2
 460 437 484 430 484 402 c 0
EndSplineSet
Validated: 3073
EndChar

StartChar: Uogonek
Encoding: 370 370 305
Width: 600
Flags: HMW
LayerCount: 2
Fore
SplineSet
648 583 m 2
 680 583 705 579 705 544 c 0
 705 510 679 483 632 483 c 1
 573 205 l 1
 552 125 526 88 441 14 c 0
 355 -62 336 -78 336 -106 c 0
 336 -117 342 -122 353 -122 c 0
 382 -122 406 -100 429 -100 c 0
 448 -100 460 -113 460 -132 c 0
 460 -181 369 -200 331 -200 c 0
 283 -200 254 -172 254 -127 c 0
 254 -85 275 -57 313 -31 c 1
 351 -9 l 1
 329 -13 316 -14 298 -14 c 0
 189 -14 110 59 110 158 c 0
 110 173 111 188 115 205 c 0
 174 483 l 1
 138 483 123 495 123 523 c 0
 123 546 135 583 201 583 c 2
 331 583 l 2
 362 583 387 580 387 544 c 0
 387 518 372 483 309 483 c 2
 274 483 l 1
 213 196 l 1
 212 189 211 182 211 176 c 0
 211 124 257 86 319 86 c 0
 390 86 458 135 471 196 c 2
 532 483 l 1
 497 483 l 2
 456 483 441 494 441 523 c 0
 441 546 453 583 519 583 c 2
 648 583 l 2
EndSplineSet
EndChar

StartChar: uogonek
Encoding: 371 371 306
Width: 600
Flags: HMW
LayerCount: 2
Fore
SplineSet
442 -124 m 0
 472 -124 498 -100 522 -100 c 0
 540 -100 553 -112 553 -130 c 0
 553 -181 458 -200 419 -200 c 0
 371 -200 342 -175 342 -134 c 0
 342 -49 424 -14 449 0 c 1
 410 0 l 1
 420 48 l 1
 360 1 326 -13 270 -13 c 0
 182 -13 123 36 123 110 c 0
 123 127 125 140 128 156 c 0
 166 338 l 1
 150 338 l 2
 110 338 94 349 94 378 c 0
 94 403 109 437 172 437 c 2
 288 437 l 1
 229 159 l 1
 227 151 226 144 226 136 c 0
 226 105 253 87 301 87 c 0
 351 87 380 101 443 155 c 1
 482 338 l 1
 447 338 l 2
 406 338 390 349 390 377 c 0
 390 403 406 437 468 437 c 2
 603 437 l 1
 531 100 l 1
 566 100 583 87 583 61 c 0
 583 -5 423 -42 423 -109 c 0
 423 -119 430 -124 442 -124 c 0
EndSplineSet
EndChar

StartChar: longs
Encoding: 383 383 318
Width: 600
Flags: MW
LayerCount: 2
Fore
SplineSet
632 509 m 0
 608 509 566 523 494 523 c 0
 437 523 406 507 399 474 c 0
 373 348 345 226 320 100 c 1
 459 100 l 2
 492 100 516 95 516 61 c 0
 516 37 500 0 438 0 c 2
 140 0 l 2
 100 0 84 12 84 40 c 0
 84 66 100 100 162 100 c 2
 220 100 l 1
 270 337 l 1
 224 337 l 2
 182 337 166 348 166 377 c 0
 166 401 178 437 245 437 c 2
 291 437 l 1
 299 474 l 2
 319 566 405 623 525 623 c 0
 650 623 691 602 691 570 c 0
 691 539 662 509 632 509 c 0
EndSplineSet
Validated: 3073
EndChar

StartChar: florin
Encoding: 402 402 319
Width: 600
Flags: MW
LayerCount: 2
Fore
SplineSet
657 586 m 0
 657 561 633 524 597 524 c 0
 572 524 570 538 527 538 c 0
 487 538 446 501 436 456 c 2
 425 404 l 1
 482 404 l 2
 514 404 540 399 540 369 c 0
 540 320 506 304 461 304 c 2
 404 304 l 1
 353 66 l 2
 331 -41 237 -123 138 -123 c 0
 68 -123 29 -103 29 -69 c 0
 29 -35 63 -9 88 -9 c 0
 102 -9 119 -23 156 -23 c 0
 202 -23 242 13 253 66 c 2
 304 304 l 1
 247 304 l 2
 214 304 189 311 189 340 c 0
 189 388 221 404 268 404 c 2
 325 404 l 1
 337 459 l 2
 358 558 453 638 549 638 c 0
 618 638 657 619 657 586 c 0
EndSplineSet
Validated: 3073
EndChar

StartChar: uni01A9
Encoding: 425 425 320
Width: 600
Flags: HMW
LayerCount: 2
Fore
SplineSet
519 238 m 0
 548 238 558 224 558 201 c 0
 558 192 557 183 555 172 c 2
 518 0 l 1
 64 0 l 1
 85 100 l 1
 278 293 l 1
 167 486 l 1
 188 583 l 1
 642 583 l 1
 606 413 l 2
 598 376 582 347 542 347 c 0
 512 347 502 363 502 385 c 0
 502 394 504 403 506 413 c 2
 521 483 l 1
 296 483 l 1
 405 293 l 1
 213 100 l 1
 439 100 l 1
 455 172 l 2
 463 210 478 238 519 238 c 0
EndSplineSet
EndChar

StartChar: uni01D5
Encoding: 469 469 329
Width: 600
Flags: HM
LayerCount: 2
Fore
SplineSet
632 506 m 6
 664 506 689 502 689 467 c 4
 689 433 663 406 616 406 c 5
 573 205 l 2
 546.496 81.1084 427 -14 298 -14 c 0
 189 -14 110 59 110 158 c 0
 110 173 111.347 187.922 115 205 c 2
 158 406 l 5
 122 406 107 418 107 446 c 4
 107 469 119 506 185 506 c 6
 315 506 l 6
 346 506 371 503 371 467 c 4
 371 441 356 406 293 406 c 6
 258 406 l 5
 213 196 l 2
 211.517 189.079 211 182 211 176 c 0
 211 124 257 86 319 86 c 0
 390 86 457.932 135.017 471 196 c 2
 516 406 l 5
 481 406 l 6
 440 406 425 417 425 446 c 4
 425 469 437 506 503 506 c 6
 632 506 l 6
342 672 m 0
 371 672 391 652 391 624 c 0
 391 587 355 552 316 552 c 0
 289 552 268 573 268 600 c 0
 268 636 305 672 342 672 c 0
550 672 m 0
 579 672 599 652 599 624 c 0
 599 587 563 552 524 552 c 0
 497 552 476 573 476 600 c 0
 476 636 513 672 550 672 c 0
355 798 m 2
 599 798 l 2
 632 798 644 789 644 765 c 0
 644 738 618 718 582 718 c 2
 338 718 l 2
 305 718 293 726 293 751 c 0
 293 779 318 798 355 798 c 2
EndSplineSet
EndChar

StartChar: uni01D7
Encoding: 471 471 331
Width: 600
Flags: HM
LayerCount: 2
Fore
SplineSet
581 667 m 0
 610 667 630 647 630 619 c 0
 630 582 594 547 555 547 c 0
 528 547 507 568 507 595 c 0
 507 631 544 667 581 667 c 0
633 516 m 2
 665 516 690 512 690 477 c 0
 690 443 664 416 617 416 c 1
 573 205 l 2
 547.136 80.9707 427 -14 298 -14 c 0
 189 -14 110 59 110 158 c 0
 110 173 111.435 187.901 115 205 c 2
 159 416 l 1
 123 416 108 428 108 456 c 0
 108 479 120 516 186 516 c 2
 316 516 l 2
 347 516 372 513 372 477 c 0
 372 451 357 416 294 416 c 2
 259 416 l 1
 213 196 l 2
 211.553 189.079 211 182 211 176 c 0
 211 124 257 86 319 86 c 0
 390 86 458.235 134.951 471 196 c 2
 517 416 l 1
 482 416 l 2
 441 416 426 427 426 456 c 0
 426 479 438 516 504 516 c 2
 633 516 l 2
326 667 m 0
 355 667 375 647 375 619 c 0
 375 582 339 547 300 547 c 0
 273 547 252 568 252 595 c 0
 252 631 289 667 326 667 c 0
EndSplineSet
Refer: 115 180 N 1 0 0 1 66 140 0
EndChar

StartChar: uni01D9
Encoding: 473 473 333
Width: 600
Flags: HM
LayerCount: 2
Fore
SplineSet
633 503 m 2
 665 503 690 499 690 464 c 0
 690 430 664 403 617 403 c 1
 573 205 l 2
 545.516 81.3193 427 -14 298 -14 c 0
 189 -14 110 59 110 158 c 0
 110 173 111.211 187.951 115 205 c 2
 159 403 l 1
 123 403 108 415 108 443 c 0
 108 466 120 503 186 503 c 2
 316 503 l 2
 347 503 372 500 372 464 c 0
 372 438 357 403 294 403 c 2
 259 403 l 1
 213 196 l 2
 211.466 189.096 211 182 211 176 c 0
 211 124 257 86 319 86 c 0
 390 86 457.471 135.116 471 196 c 2
 517 403 l 1
 482 403 l 2
 441 403 426 414 426 443 c 0
 426 466 438 503 504 503 c 2
 633 503 l 2
340 649 m 0
 369 649 389 629 389 601 c 0
 389 564 353 529 314 529 c 0
 287 529 266 550 266 577 c 0
 266 613 303 649 340 649 c 0
548 649 m 0
 577 649 597 629 597 601 c 0
 597 564 561 529 522 529 c 0
 495 529 474 550 474 577 c 0
 474 613 511 649 548 649 c 0
458.877 725 m 1
 582.81 787 l 2
 596.478 793.838 604.102 800 613.102 800 c 0
 630.177 800 642.408 786.271 642.408 770.424 c 0
 642.408 745.74 623.513 736.555 611.759 730 c 2
 443.185 636 l 1
 300.993 737 l 0
 293.497 744.167 290.328 750.7 290.328 758.619 c 0
 290.328 779.776 311.336 800 331.102 800 c 0
 340.102 800 346.587 793.885 357.81 787 c 2
 458.877 725 l 1
EndSplineSet
EndChar

StartChar: uni01DB
Encoding: 475 475 335
Width: 600
Flags: HM
LayerCount: 2
Fore
SplineSet
566 649 m 0
 595 649 615 629 615 601 c 0
 615 564 579 529 540 529 c 0
 513 529 492 550 492 577 c 0
 492 613 529 649 566 649 c 0
632 500 m 2
 664 500 689 496 689 461 c 0
 689 427 663 400 616 400 c 1
 573 205 l 2
 545.717 81.2744 427 -14 298 -14 c 0
 189 -14 110 59 110 158 c 0
 110 173 111.239 187.944 115 205 c 2
 158 400 l 1
 122 400 107 412 107 440 c 0
 107 463 119 500 185 500 c 2
 315 500 l 2
 346 500 371 497 371 461 c 0
 371 435 356 400 293 400 c 2
 258 400 l 1
 213 196 l 2
 211.477 189.095 211 182 211 176 c 0
 211 124 257 86 319 86 c 0
 390 86 457.565 135.096 471 196 c 2
 516 400 l 1
 481 400 l 2
 440 400 425 411 425 440 c 0
 425 463 437 500 503 500 c 2
 632 500 l 2
311 649 m 0
 340 649 360 629 360 601 c 0
 360 564 324 529 285 529 c 0
 258 529 237 550 237 577 c 0
 237 613 274 649 311 649 c 0
387.154 784 m 2
 467.872 703 l 2
 481.2 689.625 486.641 679 484.348 666 c 0
 480.998 647 461 630 441 630 c 0
 431 630 424.151 633.446 411.821 646 c 2
 331.28 728 l 1
 316.572 741 312.336 751 314.628 764 c 0
 318.154 784 336.976 800 357.976 800 c 0
 368.976 800 373.446 797 387.154 784 c 2
EndSplineSet
EndChar

StartChar: uni01EA
Encoding: 490 490 345
Width: 600
Flags: HM
LayerCount: 2
Fore
SplineSet
242 -124 m 0
 272 -124 298 -100 322 -100 c 0
 340 -100 353 -112 353 -130 c 0
 353 -181 258 -200 219 -200 c 0
 171 -200 142 -175 142 -134 c 0
 142 -78.6768 167.183 -47.0894 238.37 -6.48845 c 1
 141.854 19.1059 75 107.59 75 220 c 0
 75 443 277 597 426 597 c 0
 554 597 649 498 649 366 c 0
 649 152.633 472.972 5.82368 326.625 -12.1419 c 1
 292.304 -32.3094 223 -68.2822 223 -109 c 0
 223 -119 230 -124 242 -124 c 0
405 497 m 0
 290 497 178 371 178 243 c 0
 178 153 237 86 317 86 c 0
 434 86 546 211 546 342 c 0
 546 431 486 497 405 497 c 0
EndSplineSet
EndChar

StartChar: uni01EB
Encoding: 491 491 346
Width: 600
Flags: HM
LayerCount: 2
Fore
SplineSet
250 -124 m 0
 280 -124 306 -100 330 -100 c 0
 348 -100 361 -112 361 -130 c 0
 361 -181 266 -200 227 -200 c 0
 179 -200 150 -175 150 -134 c 0
 150 -79.2881 177.454 -52.0764 247.024 -11.8362 c 1
 147.349 5.48923 84 75.5843 84 174 c 0
 84 286 200 450 399 450 c 0
 523 450 609 372 609 260 c 0
 609 129.119 487.604 9.64386 344.091 -12.3819 c 1
 314.371 -29.4934 231 -65.4658 231 -109 c 0
 231 -119 238 -124 250 -124 c 0
376 350 m 0
 274 350 186 277 186 192 c 0
 186 129 241 84 318 84 c 0
 419 84 507 158 507 242 c 0
 507 305 452 350 376 350 c 0
EndSplineSet
EndChar

StartChar: Aringacute
Encoding: 506 506 354
Width: 600
Flags: HM
LayerCount: 2
Fore
SplineSet
450.681 728 m 0
 352.279 652 l 2
 335.69 639.188 327.458 636 317.458 636 c 0
 297.458 636 283.456 653 286.806 672 c 0
 289.099 685 298.474 695.365 316.33 709 c 2
 414.555 784 l 2
 432.847 797 438.376 800 449.376 800 c 0
 470.376 800 483.555 784 479.852 763 c 0
 477.735 751 469.148 742 450.681 728 c 0
360 32 m 0
 360 52.7998 376 80 438 80 c 2
 461 80 l 1
 450 126.4 l 1
 212 126.4 l 1
 176 80 l 1
 199 80 l 2
 230 80 256 76.7998 256 48 c 0
 256 28.7998 240 0 178 0 c 2
 46 0 l 2
 5 0 -11 8.7998 -11 32 c 0
 -11 52.7998 5 80 68 80 c 1
 304 386.4 l 1
 241 386.4 l 2
 200 386.4 184 395.2 184 418.4 c 0
 184 436 195 466.4 262 466.4 c 2
 478 466.4 l 1
 575 80 l 1
 607 80 633 76.7998 633 48 c 0
 633 28 617 0 555 0 c 2
 416 0 l 2
 376 0 360 8.7998 360 32 c 0
430 206.4 m 1
 392 360 l 1
 273 206.4 l 1
 430 206.4 l 1
433.373 660 m 0
 485.373 660 519.32 620 510.151 568 c 0
 501.688 520 452.458 479 401.458 479 c 0
 350.458 479 315.688 520 324.504 570 c 0
 333.144 619 382.373 660 433.373 660 c 0
422.485 598.25 m 0
 405.985 598.25 390.193 585.25 387.46 569.75 c 0
 384.639 553.75 395.847 540.75 412.347 540.75 c 0
 428.847 540.75 444.639 553.75 447.372 569.25 c 0
 450.193 585.25 438.985 598.25 422.485 598.25 c 0
EndSplineSet
EndChar

StartChar: afii10058
Encoding: 1033 1033 384
Width: 600
Flags: MW
LayerCount: 2
Fore
SplineSet
618 200 m 0
 618 120 580 0 362 0 c 2
 223 0 l 18
 194 0 187 28 187 41 c 0
 187 62 209 100 244 100 c 2
 259 100 l 1
 341 483 l 1
 263 483 l 1
 188 130 l 2
 172 57 113 0 45 0 c 2
 9 0 l 2
 -65 0 -83 63 -83 101 c 0
 -83 138 -70 203 -15 203 c 0
 9 203 24 189 24 161 c 0
 24 145 18 127 18 116 c 0
 18 107 22 102 36 100 c 0
 60 100 84 113 90 139 c 2
 163 483 l 1
 134 486 120 498 120 520 c 0
 120 568 153 583 198 583 c 2
 448 583 l 2
 482 583 504 577 504 542 c 0
 504 531 496 485 445 485 c 1
 414 340 l 1
 496 340 618 319 618 200 c 0
510 189 m 0
 510 232 435 240 413 240 c 2
 393 240 l 1
 363 100 l 1
 398 100 l 2
 445 100 492 101 508 171 c 0
 509 178 510 184 510 189 c 0
EndSplineSet
Validated: 3073
EndChar

StartChar: afii10059
Encoding: 1034 1034 385
Width: 600
Flags: MW
LayerCount: 2
Fore
SplineSet
410 341 m 1
 583 341 614 260 614 201 c 0
 614 114 510 1 358 1 c 2
 222 1 l 2
 184 1 166 14 166 39 c 0
 166 87 201 101 243 101 c 2
 259 101 l 1
 289 242 l 1
 101 241 l 1
 71 100 l 1
 85 100 l 2
 121 100 142 92 142 61 c 0
 142 37 130 0 64 0 c 2
 -56 0 l 2
 -97 0 -113 12 -113 38 c 0
 -113 64 -98 100 -37 100 c 2
 -29 100 l 1
 53 483 l 1
 24 486 10 497 10 519 c 0
 10 571 45 583 86 583 c 2
 188 583 l 2
 220 583 244 578 244 544 c 0
 244 519 232 483 167 483 c 2
 153 483 l 1
 122 341 l 1
 311 342 l 1
 341 484 l 1
 325 484 l 2
 292 484 268 492 268 524 c 0
 268 547 280 584 346 584 c 2
 448 584 l 2
 484 584 505 576 505 544 c 0
 505 496 461 488 441 484 c 1
 410 341 l 1
394 101 m 2
 428 101 507 113 507 191 c 0
 507 233 431 241 409 241 c 2
 389 241 l 1
 359 101 l 1
 394 101 l 2
EndSplineSet
Validated: 3073
EndChar

StartChar: afii10060
Encoding: 1035 1035 386
Width: 600
Flags: MW
LayerCount: 2
Fore
SplineSet
229 100 m 2
 261 100 286 93 286 60 c 0
 286 36 270 0 208 0 c 2
 106 0 l 2
 71 0 49 8 49 41 c 0
 49 57.4478 60.5518 93.444 113 100 c 1
 195 483 l 1
 133 483 l 1
 129 468 119 417 69 417 c 0
 43 417 29 431 29 458 c 0
 29 465 30 473 32 481 c 2
 54 583 l 1
 480 583 l 1
 459 485 l 2
 455 468 446 419 395 419 c 0
 374 419 355 431 355 455 c 0
 355 462 357 471 359 483 c 1
 295 483 l 1
 265 341 l 1
 300 366 338 379 379 379 c 0
 477 379 546 357 546 279 c 0
 546 211 523 161 513 100 c 1
 544 97 557 80 557 62 c 0
 557 37 541 0 478 0 c 2
 376 0 l 2
 333 0 320 14 320 41 c 0
 320 79 351 100 397 100 c 2
 413 100 l 1
 443 241 l 1
 437 264 406 279 357 279 c 0
 304 279 269 266 243 241 c 1
 213 100 l 1
 229 100 l 2
EndSplineSet
EndChar

StartChar: afii10145
Encoding: 1039 1039 390
Width: 600
Flags: MW
LayerCount: 2
Fore
SplineSet
442 0 m 2
 297 0 l 1
 276 -45 279 -65 277 -90 c 1
 264 -96 247 -99 230 -99 c 0
 214 -99 197 -96 183 -90 c 1
 195 -66 200 -35 203 0 c 1
 56 0 l 2
 33 0 0 2 0 38.666 c 0
 0 85.0148 42.2106 100 63 100 c 1
 144 483 l 1
 138 483 l 2
 112 483 82 490 82 522 c 0
 82 574 140 583 159 583 c 2
 280 583 l 2
 313 583 337 577 337 544 c 0
 337 519.6 325.927 483 259 483 c 2
 244 483 l 1
 163 100 l 1
 377 100 l 1
 458 483 l 1
 443 483 l 2
 417.443 483 387 486.228 387 522 c 0
 387 579.667 443 583 464 583 c 2
 585 583 l 2
 618 583 642 577 642 544 c 0
 642 495.2 604.397 483 558 483 c 1
 477 100 l 1
 505 97 520 84 520 62 c 0
 520 8 453.273 0 442 0 c 2
EndSplineSet
EndChar

StartChar: afii10018
Encoding: 1041 1041 392
Width: 600
Flags: MW
LayerCount: 2
Fore
SplineSet
540 366 m 0
 506 366 500 395 500 402 c 0
 500 409 501 419 504 432 c 0
 514 483 l 1
 258 483 l 1
 228 342 l 1
 407 342 l 2
 529 342 570 252 570 187 c 0
 570 178 569 168 567 160 c 0
 546 64 454 0 336 0 c 2
 41 0 l 2
 9 0 -16 7 -16 39 c 0
 -16 65 0 100 62 100 c 2
 77 100 l 1
 158 483 l 1
 143 483 l 2
 110 483 87 488 87 521 c 0
 87 547 102 583 165 583 c 2
 636 583 l 1
 604 432 l 2
 601 417 590 366 540 366 c 0
466 163 m 0
 466 232 409 242 342 242 c 2
 207 242 l 1
 177 100 l 1
 352 100 l 2
 443 100 466 128 466 163 c 0
EndSplineSet
Validated: 3073
EndChar

StartChar: afii10020
Encoding: 1043 1043 394
Width: 600
Flags: MW
LayerCount: 2
Fore
SplineSet
543 366 m 0
 509 366 503 395 503 402 c 0
 503 409 504 419 507 432 c 0
 517 483 l 1
 261 483 l 1
 180 100 l 1
 280 100 l 2
 313 100 336 96 336 61 c 0
 336 37 321 0 259 0 c 2
 44 0 l 2
 12 0 -13 7 -13 39 c 0
 -13 65 3 100 65 100 c 2
 80 100 l 1
 161 483 l 1
 146 483 l 2
 113 483 90 488 90 522 c 0
 90 545 102 583 168 583 c 2
 639 583 l 1
 607 432 l 2
 604 417 593 366 543 366 c 0
EndSplineSet
Validated: 3073
EndChar

StartChar: afii10021
Encoding: 1044 1044 395
Width: 600
Flags: MW
LayerCount: 2
Fore
SplineSet
558 583 m 2
 591 583 614 579 614 544 c 0
 614 530 606 488 551 483 c 1
 469 100 l 1
 573 100 l 1
 536 -75 l 2
 532 -91 523 -141 472 -141 c 0
 451 -141 432 -127 432 -104 c 0
 432 -97 433 -88 436 -75 c 2
 452 0 l 1
 58 0 l 1
 42 -75 l 2
 39 -88 29 -141 -22 -141 c 0
 -46 -141 -62 -123 -62 -103 c 0
 -62 -96 -61 -88 -58 -75 c 2
 -21 100 l 1
 81 100 l 2
 113 100 140 139 146 169 c 2
 213 483 l 1
 182 486 170 502 170 521 c 0
 170 547 185 583 248 583 c 2
 558 583 l 2
212 100 m 1
 369 100 l 1
 451 483 l 1
 313 483 l 1
 244 160 l 2
 239 137 228 111 212 100 c 1
EndSplineSet
Validated: 3073
EndChar

StartChar: afii10024
Encoding: 1046 1046 397
Width: 600
Flags: MW
LayerCount: 2
Fore
SplineSet
305 264 m 1
 223 264 141 153 100 0 c 1
 25 0 l 2
 -20 0 -31 20 -31 50 c 0
 -31 86 -6 100 43 100 c 1
 81 228 133 298 201 330 c 1
 123 483 l 1
 89 484 78 506 78 533 c 0
 78 567 99 583 148 583 c 2
 225 583 l 2
 264 583 284 565 284 534 c 0
 284 502 266 487 243 487 c 1
 319 334 l 1
 350 483 l 1
 314 483 301 501 301 533 c 0
 301 570 326 583 378 583 c 2
 439 583 l 2
 488 583 504 566 504 533 c 0
 504 498 477 483 450 483 c 1
 419 334 l 1
 548 487 l 1
 529 487 523 510 523 530 c 0
 523 568 566 583 603 583 c 2
 670 583 l 2
 709 583 726 563 726 533 c 0
 726 497 702 484 678 483 c 1
 536 321 l 1
 581 283 622 218 623 100 c 1
 669 100 690 83 690 50 c 0
 690 18 662 0 614 0 c 2
 524 0 l 1
 523 164 487 264 405 264 c 1
 369 100 l 1
 403 100 419 78 419 50 c 0
 419 14 393 0 345 0 c 2
 262 0 l 2
 217 0 206 23 206 50 c 0
 206 75 223 100 269 100 c 1
 305 264 l 1
EndSplineSet
Validated: 3073
EndChar

StartChar: afii10025
Encoding: 1047 1047 398
Width: 600
Flags: MW
LayerCount: 2
Fore
SplineSet
187 279 m 0
 187 304 203 341 265 341 c 2
 307 341 l 2
 439 341 462 414 462 432 c 0
 462 470 421 497 364 497 c 0
 206 497 248 376 169 376 c 0
 137 376 130 404 130 412 c 0
 130 419 132 428 135 443 c 2
 153 531 l 2
 156 544 166 597 216 597 c 0
 236 597 244 589 248 564 c 1
 288 586 334 597 385 597 c 0
 495 597 568 537 568 452 c 0
 568 396 534 324 483 298 c 1
 499 285 535 254 535 197 c 0
 535 80 422 -14 265 -14 c 0
 211 -14 160 -1 117 25 c 1
 96 5 88 1 72 1 c 0
 45 1 32 14 32 40 c 0
 32 48 33 57 35 67 c 2
 49 133 l 2
 52 150 61 199 113 199 c 0
 148 199 151 181 154 151 c 0
 156 115 213 86 279 86 c 0
 397 86 428 152 428 172 c 0
 428 199 397 240 303 240 c 2
 244 240 l 2
 210 240 187 246 187 279 c 0
EndSplineSet
Validated: 3073
EndChar

StartChar: afii10026
Encoding: 1048 1048 399
Width: 600
Flags: MW
LayerCount: 2
Fore
SplineSet
284 39 m 0
 284 65 299 100 361 100 c 2
 376 100 l 1
 424 326 l 1
 171 141 l 1
 162 100 l 1
 177 100 l 2
 210 100 234 95 234 61 c 0
 234 36 218 0 156 0 c 2
 35 0 l 2
 3 0 -21 5 -21 39 c 0
 -21 65 -6 100 56 100 c 2
 62 100 l 1
 144 483 l 1
 113 486 101 502 101 521 c 0
 101 547 116 583 179 583 c 2
 280 583 l 2
 311 583 336 580 336 544 c 0
 336 519 321 483 259 483 c 2
 244 483 l 1
 195 256 l 1
 449 441 l 1
 458 483 l 1
 443 483 l 2
 410 483 386 488 386 522 c 0
 386 549 402 583 464 583 c 2
 565 583 l 2
 597 583 621 580 621 544 c 0
 621 530 613 488 558 483 c 1
 476 100 l 1
 482 100 l 2
 513 100 539 97 539 61 c 0
 539 36 523 0 461 0 c 2
 340 0 l 2
 305 0 284 8 284 39 c 0
EndSplineSet
Validated: 3073
EndChar

StartChar: afii10028
Encoding: 1050 1050 401
Width: 600
Flags: MW
LayerCount: 2
Fore
SplineSet
559 61 m 0
 559 37 544 0 481 0 c 2
 371 0 l 1
 354 143 280 278 198 278 c 1
 160 100 l 1
 195 100 l 2
 228 100 252 95 252 61 c 0
 252 37 237 0 174 0 c 2
 24 0 l 2
 -8 0 -32 7 -32 39 c 0
 -32 64 -17 100 45 100 c 2
 60 100 l 1
 142 483 l 1
 127 483 l 2
 94 483 70 488 70 522 c 0
 70 549 86 583 148 583 c 2
 298 583 l 2
 329 583 354 580 354 544 c 0
 354 519 339 483 277 483 c 2
 242 483 l 1
 210 334 l 1
 421 487 l 1
 405 493 397 503 397 519 c 0
 397 545 413 583 476 583 c 2
 576 583 l 2
 608 583 632 580 632 544 c 0
 632 521 618 483 559 483 c 1
 350 330 l 1
 404 298 449 215 470 100 c 1
 502 100 l 2
 535 100 559 95 559 61 c 0
EndSplineSet
Validated: 3073
EndChar

StartChar: afii10029
Encoding: 1051 1051 402
Width: 600
Flags: MW
LayerCount: 2
Fore
SplineSet
84 166 m 0
 84 153 80 137 80 130 c 0
 80 109 99 100 120 100 c 0
 144 100 169 116 174 139 c 0
 247 483 l 1
 216 486 204 502 204 521 c 0
 204 547 219 583 282 583 c 2
 563 583 l 2
 596 583 619 579 619 544 c 0
 619 530 611 488 556 483 c 1
 474 100 l 1
 480 100 l 2
 511 100 537 97 537 61 c 0
 537 36 521 0 459 0 c 2
 338 0 l 2
 303 0 282 8 282 39 c 0
 282 65 297 100 359 100 c 2
 374 100 l 1
 456 483 l 1
 347 483 l 1
 272 130 l 2
 251 32 173 0 93 0 c 0
 26 0 -24 40 -24 102 c 0
 -24 140 -11 204 44 204 c 0
 76 204 84 174 84 166 c 0
EndSplineSet
Validated: 3073
EndChar

StartChar: afii10033
Encoding: 1055 1055 406
Width: 600
Flags: MW
LayerCount: 2
Fore
SplineSet
284 39 m 0
 284 65 299 100 361 100 c 2
 376 100 l 1
 458 483 l 1
 244 483 l 1
 162 100 l 1
 177 100 l 2
 210 100 234 95 234 61 c 0
 234 36 218 0 156 0 c 2
 35 0 l 2
 3 0 -21 5 -21 39 c 0
 -21 65 -6 100 56 100 c 2
 62 100 l 1
 144 483 l 1
 113 486 101 502 101 521 c 0
 101 547 116 583 179 583 c 2
 565 583 l 2
 597 583 621 580 621 544 c 0
 621 530 613 488 558 483 c 1
 476 100 l 1
 482 100 l 2
 513 100 539 97 539 61 c 0
 539 36 523 0 461 0 c 2
 340 0 l 2
 305 0 284 8 284 39 c 0
EndSplineSet
Validated: 3073
EndChar

StartChar: afii10037
Encoding: 1059 1059 410
Width: 600
Flags: MW
LayerCount: 2
Fore
SplineSet
527 583 m 2
 559 583 584 578 584 545 c 0
 584 511 557 484 515 483 c 1
 217 100 l 1
 250 98 262 81 262 62 c 0
 262 38 248 0 184 0 c 2
 73 0 l 2
 41 0 17 6 17 39 c 0
 17 73 45 100 87 100 c 1
 179 216 l 1
 71 483 l 1
 39 485 22 499 22 522 c 0
 22 558 52 583 100 583 c 2
 191 583 l 2
 222 583 248 580 248 544 c 0
 248 519 236 500 199 484 c 1
 255 312 l 1
 387 484 l 1
 366 494 358 508 358 523 c 0
 358 545 374 583 437 583 c 2
 527 583 l 2
EndSplineSet
Validated: 3073
EndChar

StartChar: afii10038
Encoding: 1060 1060 411
Width: 600
Flags: MW
LayerCount: 2
Fore
SplineSet
377 221 m 2
 463 221 535 232 535 310 c 0
 535 361 463 362 407 362 c 2
 402 362 l 1
 372 221 l 1
 377 221 l 2
606 545 m 0
 606 519 591 483 528 483 c 2
 427 483 l 1
 423 462 l 1
 506 462 639 462 639 344 c 0
 639 331 637 316 634 300 c 0
 596 121 442 121 350 121 c 1
 346 100 l 1
 447 100 l 2
 480 100 504 95 504 62 c 0
 504 36 488 0 426 0 c 2
 124 0 l 2
 91 0 67 8 67 39 c 0
 67 64 83 100 145 100 c 2
 246 100 l 1
 250 121 l 1
 168 121 36 121 36 249 c 0
 36 264 38 281 42 300 c 0
 77 462 231 462 323 462 c 1
 327 483 l 1
 226 483 l 2
 193 483 170 488 170 522 c 0
 170 545 182 583 248 583 c 2
 550 583 l 2
 582 583 606 579 606 545 c 0
297 362 m 2
 203 362 139 350 139 278 c 0
 139 222 211 221 267 221 c 2
 272 221 l 1
 302 362 l 1
 297 362 l 2
EndSplineSet
Validated: 3073
EndChar

StartChar: afii10040
Encoding: 1062 1062 413
Width: 600
Flags: MW
LayerCount: 2
Fore
SplineSet
457 -141 m 0
 436 -141 417 -127 417 -104 c 0
 417 -97 418 -88 421 -75 c 2
 437 0 l 1
 35 0 l 2
 3 0 -21 3 -21 39 c 0
 -21 53 -13 95 42 100 c 1
 124 483 l 1
 118 483 l 2
 80 483 61 489 61 523 c 0
 61 547 77 583 139 583 c 2
 260 583 l 2
 291 583 316 579 316 546 c 0
 316 519 302 483 239 483 c 2
 224 483 l 1
 142 100 l 1
 356 100 l 1
 438 483 l 1
 423 483 l 2
 385 483 366 489 366 523 c 0
 366 546 382 583 444 583 c 2
 565 583 l 2
 596 583 621 579 621 546 c 0
 621 518 606 483 544 483 c 2
 538 483 l 1
 456 100 l 1
 558 100 l 1
 521 -75 l 2
 517 -91 508 -141 457 -141 c 0
EndSplineSet
Validated: 3073
EndChar

StartChar: afii10041
Encoding: 1063 1063 414
Width: 600
Flags: MW
LayerCount: 2
Fore
SplineSet
215 39 m 0
 215 65 231 100 293 100 c 2
 308 100 l 1
 327 196 l 1
 299 176 264 167 220 167 c 0
 143 167 49 179 49 273 c 0
 49 283 49 293 52 305 c 0
 90 483 l 1
 59 486 47 503 47 522 c 0
 47 547 63 583 125 583 c 2
 226 583 l 2
 257 583 283 580 283 544 c 0
 283 519 267 483 205 483 c 2
 190 483 l 1
 153 308 l 1
 161 277 202 267 242 267 c 0
 289 267 330 283 352 308 c 1
 389 483 l 1
 374 483 l 2
 341 483 318 488 318 522 c 0
 318 548 333 583 395 583 c 2
 496 583 l 2
 529 583 553 579 553 542 c 0
 553 529 544 488 489 483 c 1
 408 100 l 1
 414 100 l 2
 444 100 470 97 470 61 c 0
 470 35 454 0 392 0 c 2
 271 0 l 2
 237 0 215 7 215 39 c 0
EndSplineSet
Validated: 3073
EndChar

StartChar: afii10042
Encoding: 1064 1064 415
Width: 600
Flags: MW
LayerCount: 2
Fore
SplineSet
203 483 m 1
 121 100 l 1
 259 100 l 1
 341 483 l 1
 305 483 293 501 293 533 c 0
 293 568 324 583 373 583 c 2
 429 583 l 2
 474 583 495 566 495 533 c 0
 495 500 480 484 441 483 c 1
 359 100 l 1
 495 100 l 1
 577 483 l 1
 541 483 529 501 529 533 c 0
 529 568 560 583 609 583 c 2
 665 583 l 2
 710 583 731 566 731 533 c 0
 731 500 716 484 677 483 c 1
 595 100 l 1
 628 97 630 74 630 50 c 0
 630 18 604 0 553 0 c 2
 21 0 l 2
 -25 0 -34 17 -34 50 c 0
 -34 85 -10 100 21 100 c 1
 103 483 l 1
 67 483 55 501 55 533 c 0
 55 568 86 583 135 583 c 2
 191 583 l 2
 236 583 257 566 257 533 c 0
 257 500 242 484 203 483 c 1
EndSplineSet
Validated: 3073
EndChar

StartChar: afii10043
Encoding: 1065 1065 416
Width: 600
Flags: MW
LayerCount: 2
Fore
SplineSet
586 -141 m 0
 565 -141 546 -127 546 -104 c 0
 546 -97 547 -88 550 -75 c 2
 566 0 l 1
 21 0 l 2
 -25 0 -34 17 -34 50 c 0
 -34 85 -10 100 21 100 c 1
 103 483 l 1
 67 483 55 501 55 533 c 0
 55 568 86 583 135 583 c 2
 191 583 l 2
 236 583 257 566 257 533 c 0
 257 500 242 484 203 483 c 1
 121 100 l 1
 259 100 l 1
 341 483 l 1
 305 483 293 501 293 533 c 0
 293 568 324 583 373 583 c 2
 429 583 l 2
 474 583 495 566 495 533 c 0
 495 500 480 484 441 483 c 1
 359 100 l 1
 495 100 l 1
 577 483 l 1
 541 483 529 501 529 533 c 0
 529 568 560 583 609 583 c 2
 665 583 l 2
 710 583 731 566 731 533 c 0
 731 500 716 484 677 483 c 1
 595 100 l 1
 687 100 l 1
 650 -75 l 2
 646 -91 637 -141 586 -141 c 0
EndSplineSet
Validated: 3073
EndChar

StartChar: afii10044
Encoding: 1066 1066 417
Width: 600
Flags: MW
LayerCount: 2
Fore
SplineSet
60 324 m 0
 37 324 20 339 20 361 c 0
 20 368 21 377 24 390 c 2
 65 583 l 1
 444 583 l 2
 478 583 500 575 500 545 c 0
 500 518 485 483 423 483 c 2
 375 483 l 1
 353 383 l 1
 451 383 l 2
 544 383 591 366 624 317 c 0
 642 292 651 260 651 228 c 0
 651 215 650 202 647 189 c 0
 624 78 517 0 390 0 c 2
 157 0 l 2
 119 0 101 6 101 37 c 0
 101 64 115 100 178 100 c 2
 193 100 l 1
 275 483 l 1
 144 483 l 1
 124 390 l 2
 121 375 108 324 60 324 c 0
411 100 m 2
 492 100 544 150 544 213 c 0
 544 257 510 283 450 283 c 2
 332 283 l 1
 293 100 l 1
 411 100 l 2
EndSplineSet
Validated: 3073
EndChar

StartChar: afii10045
Encoding: 1067 1067 418
Width: 600
Flags: MW
LayerCount: 2
Fore
SplineSet
484 531 m 0
 484 573 509 583 553 583 c 2
 671 583 l 2
 719 583 727 563 727 533 c 0
 727 496 705 484 648 483 c 1
 567 100 l 1
 614 100 636 85 636 52 c 0
 636 25 619 0 561 0 c 2
 447 0 l 2
 404 0 384 16 384 46 c 0
 384 89 417 100 467 100 c 1
 548 483 l 1
 504 484 484 500 484 531 c 0
56 530 m 0
 56 560 70 583 126 583 c 2
 233 583 l 2
 275 583 288 566 288 539 c 0
 288 495 261 484 217 483 c 1
 196 383 l 1
 232 383 l 2
 352 383 432 344 432 226 c 0
 432 181 386 0 170 0 c 2
 27 0 l 2
 -20 0 -33 18 -33 47 c 0
 -33 77 -22 101 24 101 c 0
 28 101 32 100 36 100 c 1
 117 483 l 1
 73 484 56 500 56 530 c 0
194 100 m 2
 275 100 326 150 326 213 c 0
 326 257 293 283 233 283 c 2
 177 283 l 1
 138 100 l 1
 194 100 l 2
EndSplineSet
Validated: 3073
EndChar

StartChar: afii10046
Encoding: 1068 1068 419
Width: 600
Flags: MW
LayerCount: 2
Fore
SplineSet
417 544 m 0
 417 518 402 483 340 483 c 2
 322 483 l 1
 301 383 l 1
 399 383 l 2
 517 383 598 345 598 228 c 0
 598 215 597 202 594 189 c 0
 571 78 464 0 337 0 c 2
 104 0 l 2
 73 0 48 3 48 38 c 0
 48 65 63 100 125 100 c 2
 140 100 l 1
 222 483 l 1
 207 483 l 2
 175 483 150 486 150 520 c 0
 150 545 166 583 228 583 c 2
 361 583 l 2
 396 583 417 575 417 544 c 0
358 100 m 2
 439 100 491 150 491 213 c 0
 491 257 457 283 397 283 c 2
 279 283 l 1
 240 100 l 1
 358 100 l 2
EndSplineSet
Validated: 3073
EndChar

StartChar: afii10047
Encoding: 1069 1069 420
Width: 600
Flags: MW
LayerCount: 2
Fore
SplineSet
9 99 m 0
 9 135 44 159 70 159 c 0
 115 159 100 86 239 86 c 0
 355 86 444 147 469 241 c 1
 253 241 l 2
 220 241 196 247 196 280 c 0
 196 303 208 341 274 341 c 2
 488 341 l 1
 489 347 489 352 489 358 c 0
 489 440 434 497 347 497 c 0
 283 497 211 469 190 420 c 0
 180 393 166 367 129 367 c 0
 108 367 89 382 89 404 c 0
 89 412 90 421 93 433 c 0
 111 517 l 2
 115 533 124 583 175 583 c 0
 192 583 203 577 212 559 c 1
 223 563 l 2
 284 586 320 597 372 597 c 0
 504 597 591 507 591 380 c 0
 591 359 589 337 584 315 c 2
 570 249 l 2
 538 97 390 -14 220 -14 c 0
 52 -14 9 73 9 99 c 0
EndSplineSet
Validated: 3073
EndChar

StartChar: afii10048
Encoding: 1070 1070 421
Width: 600
Flags: MW
LayerCount: 2
Fore
SplineSet
79 525 m 0
 79 574 115 583 156 583 c 2
 238 583 l 2
 284 583 298 566 298 539 c 0
 298 491 268 484 221 483 c 1
 191 341 l 1
 280 341 l 1
 332 486 408 597 559 597 c 0
 683 597 731 488 731 374 c 0
 731 345 728 315 722 287 c 0
 686 114 581 -14 429 -14 c 0
 302 -14 258 79 258 207 c 0
 258 218 258 229 259 241 c 1
 169 241 l 1
 139 100 l 1
 186 100 203 83 203 53 c 0
 203 11 170 0 126 0 c 2
 22 0 l 2
 -20 0 -33 17 -33 44 c 0
 -33 89 -6 100 39 100 c 1
 121 483 l 1
 94 484 79 502 79 525 c 0
451 86 m 0
 607 86 634 327 634 381 c 0
 634 450 609 497 538 497 c 0
 382 497 354 256 354 204 c 0
 354 134 380 86 451 86 c 0
EndSplineSet
Validated: 3073
EndChar

StartChar: afii10049
Encoding: 1071 1071 422
Width: 600
Flags: MW
LayerCount: 2
Fore
SplineSet
295 37 m 0
 295 61 306 100 372 100 c 2
 407 100 l 1
 433 222 l 1
 337 222 l 1
 292 207 177 97 106 0 c 1
 27 0 l 2
 -6 0 -29 8 -29 38 c 0
 -29 62 -18 100 48 100 c 2
 61 100 l 1
 118 167 164 213 220 254 c 1
 167 287 141 326 141 374 c 0
 141 384 142 394 144 405 c 0
 166 510 272 583 402 583 c 2
 625 583 l 2
 657 583 681 580 681 546 c 0
 681 519 667 483 604 483 c 2
 589 483 l 1
 507 100 l 1
 522 100 l 2
 554 100 579 97 579 63 c 0
 579 38 563 0 501 0 c 2
 351 0 l 2
 319 0 295 7 295 37 c 0
377 483 m 2
 271 483 250 413 250 395 c 0
 250 352 301 322 378 322 c 2
 454 322 l 1
 489 483 l 1
 377 483 l 2
EndSplineSet
Validated: 3073
EndChar

StartChar: afii10066
Encoding: 1073 1073 424
Width: 600
Flags: MW
LayerCount: 2
Fore
SplineSet
559 641 m 0
 593 641 599 612 599 605 c 0
 599 598 598 589 595 575 c 2
 579 500 l 1
 473 500 l 2
 331 500 248 493 202 401 c 1
 252 435 302 451 362 451 c 0
 525 451 566 343 566 270 c 0
 566 199 504 -14 265 -14 c 0
 141 -14 58 47 58 167 c 0
 58 187 61 210 66 234 c 0
 130 534 233 568 481 568 c 2
 493 568 l 1
 497 582 502 641 559 641 c 0
463 244 m 0
 463 290 438 351 340 351 c 0
 190 351 160 225 160 191 c 0
 160 128 207 86 284 86 c 0
 426 86 463 207 463 244 c 0
EndSplineSet
EndChar

StartChar: afii10067
Encoding: 1074 1074 425
Width: 600
Flags: MW
LayerCount: 2
Fore
SplineSet
371 279 m 0
 448 279 464 291 464 313 c 0
 464 339 415 336 310 337 c 1
 297 280 l 1
 326 280 350 279 371 279 c 0
299 100 m 0
 399 100 437 108 437 142 c 0
 437 173 369 180 276 180 c 1
 259 100 l 1
 273 100 287 100 299 100 c 0
539 163 m 0
 539 97 508 0 332 0 c 2
 144 0 l 2
 105 0 87 13 87 37 c 0
 87 62 101 100 159 100 c 1
 210 337 l 1
 176 337 158 350 158 375 c 0
 158 398 169 437 237 437 c 2
 405 437 l 2
 445 437 570 434 570 345 c 0
 570 318 556 250 492 226 c 1
 524 216 539 199 539 163 c 0
EndSplineSet
EndChar

StartChar: afii10068
Encoding: 1075 1075 426
Width: 600
Flags: MW
LayerCount: 2
Fore
SplineSet
493 244 m 0
 472 244 453 258 453 280 c 0
 453 296 459 321 462 336 c 1
 462 336 399 337 320 337 c 1
 269 100 l 1
 303 100 321 87 321 62 c 0
 321 27 295 0 252 0 c 2
 154 0 l 2
 115 0 97 13 97 37 c 0
 97 62 111 100 169 100 c 1
 220 337 l 1
 186 337 168 350 168 375 c 0
 168 401 183 437 247 437 c 2
 584 437 l 1
 557 310 l 2
 554 295 544 244 493 244 c 0
EndSplineSet
EndChar

StartChar: afii10069
Encoding: 1076 1076 427
Width: 600
Flags: MW
LayerCount: 2
Fore
SplineSet
267 100 m 1
 420 100 l 1
 470 336 l 1
 330 337 l 1
 288 143 l 1
 285 128 277 106 267 100 c 1
61 -92 m 0
 52 -92 21 -87 21 -58 c 0
 21 -51 22 -41 25 -26 c 0
 52 100 l 1
 151 100 l 2
 167 100 184 126 188 143 c 0
 230 337 l 1
 196 337 178 351 178 376 c 0
 178 402 194 437 257 437 c 2
 587 437 l 2
 625 437 643 424 643 399 c 0
 643 374 629 337 571 337 c 1
 520 100 l 1
 577 100 l 1
 550 -26 l 2
 547 -43 537 -92 486 -92 c 0
 464 -92 447 -77 447 -55 c 0
 447 -38 453 -14 456 0 c 1
 131 0 l 1
 125 -26 l 1
 116 -70 93 -92 61 -92 c 0
EndSplineSet
EndChar

StartChar: afii10072
Encoding: 1078 1078 429
Width: 600
Flags: MW
LayerCount: 2
Fore
SplineSet
200 437 m 2
 258 437 268 413 268 377 c 0
 268 357 264 336 242 336 c 1
 310 288 l 1
 321 337 l 1
 298.167 337 285 362.702 285 387 c 0
 285 419 308 437 346 437 c 2
 415 437 l 2
 453 437 471 417 471 387 c 0
 471 358 451 337 425 337 c 1
 407 258 l 1
 510 340 l 1
 496 340 491 362 491 381 c 0
 491 428 521 437 565 437 c 2
 632 437 l 2
 678 437 696 420 696 389 c 0
 696 368 688 337 642 337 c 0
 639 337 l 1
 485 218 l 1
 537 200 564 166 588 100 c 1
 626 100 652 89 652 47 c 0
 652 13 633 0 584 0 c 2
 481 0 l 2
 443 0 425 13 425 37 c 0
 425 48.4625 429.031 99 450 99 c 1
 438 135 417 149 388 164 c 1
 375 100 l 1
 392.585 100 410 75.297 410 52 c 0
 410 10 382 0 346 0 c 2
 281 0 l 2
 237 0 227 21 227 50 c 0
 227 79 250 100 270 100 c 1
 283 164 l 1
 247 150 209 131 189 87 c 1
 195 78 198 70 198 61 c 0
 198 37 183 0 120 0 c 2
 34 0 l 2
 -12 0 -18 26 -18 50 c 0
 -18 86 8 100 57 100 c 1
 96 162 169 234 240 237 c 1
 101 336 l 1
 69 336 59 351 59 386 c 0
 59 420 79 437 127 437 c 2
 200 437 l 2
EndSplineSet
EndChar

StartChar: afii10073
Encoding: 1079 1079 430
Width: 600
Flags: MW
LayerCount: 2
Fore
SplineSet
226 217 m 0
 226 241 241 278 301 278 c 2
 336 278 l 2
 436 278 454 309 454 317 c 0
 454 334 411 350 362 350 c 0
 320 350 285 341 253 321 c 1
 246 312 l 2
 229 290 214 281 193 281 c 0
 171 281 153 294 153 317 c 0
 153 338 162 368 165 384 c 0
 174 430 194 450 226 450 c 0
 241 450 248 443 252 424 c 1
 295 442 338 450 387 450 c 0
 495 450 565 403 565 336 c 0
 565 298 545 259 512 235 c 1
 510 225 l 1
 534 209 547 179 547 147 c 0
 547 140 546 132 545 125 c 0
 527 43 421 -16 292 -16 c 0
 235 -16 186 -6 150 13 c 1
 137 4 128 1 115 1 c 0
 91 1 74 16 74 38 c 0
 74 45 75 53 78 67 c 2
 85 100 l 2
 88 116 101 167 150 167 c 0
 176 167 189 153 192 123 c 1
 216 97 255 84 309 84 c 0
 335 84 436 94 436 132 c 0
 436 158 385 178 320 178 c 2
 278 178 l 2
 244 178 226 192 226 217 c 0
EndSplineSet
EndChar

StartChar: afii10074
Encoding: 1080 1080 431
Width: 600
Flags: MW
LayerCount: 2
Fore
SplineSet
308 399 m 0
 308 375 294 337 236 337 c 1
 210 214 l 1
 448 325 l 1
 451 336 l 1
 417 336 399 349 399 374 c 0
 399 409 425 437 468 437 c 2
 567 437 l 2
 604 437 623 424 623 400 c 0
 623 375 609 337 551 337 c 1
 500 100 l 1
 534 100 552 87 552 62 c 0
 552 27 526 0 483 0 c 2
 385 0 l 2
 346 0 328 13 328 37 c 0
 328 61 342 100 400 100 c 1
 427 224 l 1
 188 113 l 1
 185 100 l 1
 219 100 237 87 237 62 c 0
 237 27 211 0 168 0 c 2
 70 0 l 2
 31 0 13 13 13 37 c 0
 13 61 27 100 85 100 c 1
 136 337 l 1
 102 337 84 351 84 376 c 0
 84 400 99 437 159 437 c 2
 251 437 l 2
 290 436 308 423 308 399 c 0
EndSplineSet
EndChar

StartChar: afii10076
Encoding: 1082 1082 433
Width: 600
Flags: MW
LayerCount: 2
Fore
SplineSet
275 38 m 0
 275 59 285 74 300 87 c 1
 239 164 l 1
 204 0 l 1
 88 0 l 2
 50 0 31 13 31 38 c 0
 31 61 42 100 109 100 c 2
 125 100 l 1
 175 337 l 1
 159 337 l 2
 128 337 103 340 103 375 c 0
 103 398 115 437 181 437 c 2
 297 437 l 1
 265 287 l 1
 357 350 l 1
 351 360 348 369 348 379 c 0
 348 403 363 437 427 437 c 2
 539 437 l 2
 572 437 595 433 595 400 c 0
 595 374 580 337 517 337 c 2
 489 337 l 1
 330 227 l 1
 438 100 l 1
 471 100 l 2
 502 100 528 97 528 61 c 0
 528 37 513 0 450 0 c 2
 332 0 l 2
 294 0 275 13 275 38 c 0
EndSplineSet
EndChar

StartChar: afii10077
Encoding: 1083 1083 434
Width: 600
Flags: MW
LayerCount: 2
Fore
SplineSet
20 81 m 0
 20 129 35 201 91 201 c 0
 120 201 130 185 130 162 c 0
 130 137 120 117 120 108 c 0
 120 94 132 87 146 87 c 0
 162 87 181 97 185 114 c 0
 233 337 l 1
 199 337 181 351 181 376 c 0
 181 402 197 437 260 437 c 2
 603 437 l 2
 640 437 659 424 659 400 c 0
 659 375 645 337 587 337 c 1
 536 100 l 1
 570 100 588 87 588 62 c 0
 588 27 562 0 519 0 c 2
 421 0 l 2
 382 0 364 13 364 37 c 0
 364 61 378 100 436 100 c 1
 487 336 l 1
 333 337 l 1
 282 100 l 1
 268 30 207 0 126 0 c 0
 64 0 20 12 20 81 c 0
EndSplineSet
EndChar

StartChar: afii10078
Encoding: 1084 1084 435
Width: 600
Flags: MW
LayerCount: 2
Fore
SplineSet
42 375 m 0
 42 401 57 437 120 437 c 2
 305 437 l 1
 350 243 l 1
 487 437 l 1
 670 437 l 2
 708 437 726 424 726 401 c 0
 726 374 711 337 649 337 c 2
 642 337 l 1
 591 100 l 1
 598 100 l 2
 636 100 655 87 655 63 c 0
 655 37 640 0 577 0 c 2
 461 0 l 2
 424 0 406 13 406 38 c 0
 406 64 421 100 482 100 c 2
 491 100 l 1
 542 337 l 1
 524 337 l 1
 357 100 l 1
 291 100 l 1
 226 337 l 1
 208 337 l 1
 157 100 l 1
 164 100 l 2
 202 100 221 87 221 63 c 0
 221 37 206 0 143 0 c 2
 28 0 l 2
 -12 0 -30 13 -30 38 c 0
 -30 66 -15 100 49 100 c 2
 57 100 l 1
 108 337 l 1
 99 337 l 2
 61 337 42 350 42 375 c 0
EndSplineSet
Validated: 3073
EndChar

StartChar: afii10079
Encoding: 1085 1085 436
Width: 600
Flags: MW
LayerCount: 2
Fore
SplineSet
338 399 m 0
 338 375 324 337 266 337 c 1
 250 263 l 1
 465 263 l 1
 481 336 l 1
 447 336 429 349 429 374 c 0
 429 409 455 436 498 436 c 0
 507 436 l 0
 597 437 l 2
 634 437 653 424 653 400 c 0
 653 375 639 337 581 337 c 1
 530 100 l 1
 564 100 582 87 582 62 c 0
 582 27 556 0 513 0 c 2
 415 0 l 2
 376 0 358 13 358 37 c 0
 358 61 372 100 430 100 c 1
 444 162 l 1
 229 162 l 1
 215 100 l 1
 249 100 267 87 267 62 c 0
 267 27 241 0 198 0 c 2
 100 0 l 2
 61 0 43 13 43 37 c 0
 43 61 57 100 115 100 c 1
 166 337 l 1
 132 337 114 351 114 376 c 0
 114 400 129 437 189 437 c 2
 193 437 l 1
 281 436 l 2
 320 435 338 423 338 399 c 0
EndSplineSet
EndChar

StartChar: afii10081
Encoding: 1087 1087 438
Width: 600
Flags: MW
LayerCount: 2
Fore
SplineSet
356 37 m 0
 356 61 370 100 428 100 c 1
 479 336 l 1
 264 337 l 1
 213 100 l 1
 247 100 265 87 265 62 c 0
 265 27 239 0 196 0 c 2
 98 0 l 2
 59 0 41 13 41 37 c 0
 41 61 55 100 113 100 c 1
 164 337 l 1
 130 337 112 351 112 376 c 0
 112 402 128 437 191 437 c 2
 595 437 l 2
 632 437 651 424 651 400 c 0
 651 375 637 337 579 337 c 1
 528 100 l 1
 562 100 580 87 580 62 c 0
 580 27 554 0 511 0 c 2
 413 0 l 2
 374 0 356 13 356 37 c 0
EndSplineSet
EndChar

StartChar: afii10084
Encoding: 1090 1090 441
Width: 600
Flags: MW
LayerCount: 2
Fore
SplineSet
190 39 m 0
 190 76 219 101 263 101 c 1
 313 337 l 1
 225 337 l 1
 219 303 212 245 156 245 c 0
 135 245 115 259 115 281 c 0
 115 288 117 297 120 311 c 0
 147 438 l 1
 623 438 l 1
 596 311 l 2
 593 297 584 245 532 245 c 0
 511 245 492 259 492 281 c 0
 492 297 498 322 501 337 c 1
 413 337 l 1
 363 101 l 1
 396 101 415 88 415 65 c 0
 415 42 402 1 346 1 c 2
 248 1 l 2
 209 1 190 14 190 39 c 0
EndSplineSet
EndChar

StartChar: afii10086
Encoding: 1092 1092 443
Width: 600
Flags: HMW
LayerCount: 2
Fore
SplineSet
418 110 m 2
 545 110 567 221 567 250 c 0
 567 299 533 350 469 350 c 2
 405 350 l 1
 354 110 l 1
 418 110 l 2
274 587 m 0
 274 613 290 648 352 648 c 2
 468 648 l 1
 426 450 l 1
 468 450 l 2
 590 450 669 376 669 271 c 0
 669 206 609.002 10 376 10 c 2
 332 10 l 1
 309 -100 l 1
 367 -100 l 2
 400 -100 424 -104 424 -138 c 0
 424 -162 409 -200 346 -200 c 2
 172 -200 l 2
 139 -200 115 -194 115 -161 c 0
 115 -134 131 -100 193 -100 c 2
 209 -100 l 1
 232 10 l 1
 188 10 l 2
 65.999 10 -13 80 -13 180 c 0
 -13 194 -11 209 -8 224 c 0
 19 353 143.999 450 284 450 c 2
 326 450 l 1
 347 548 l 1
 331 548 l 2
 299 548 274 551 274 587 c 0
241 350 m 2
 177 350 89 288 89 196 c 0
 89 144 119 110 190 110 c 2
 254 110 l 1
 305 350 l 1
 241 350 l 2
EndSplineSet
EndChar

StartChar: afii10088
Encoding: 1094 1094 445
Width: 600
Flags: MW
LayerCount: 2
Fore
SplineSet
626 399 m 0
 626 362 597 337 553 337 c 1
 503 100 l 1
 597 100 l 1
 570 -26 l 2
 567 -41 557 -92 506 -92 c 0
 485 -92 466 -78 466 -56 c 0
 466 -40 472 -15 475 0 c 1
 88 0 l 2
 50 0 32 13 32 38 c 0
 32 62 47 100 105 100 c 1
 155 337 l 1
 122 337 103 350 103 373 c 0
 103 401 118 436 181 437 c 2
 270 437 l 2
 309 437 328 424 328 399 c 0
 328 362 299 337 255 337 c 1
 205 101 l 1
 403 100 l 1
 453 337 l 1
 420 337 401 350 401 373 c 0
 401 399 416 436 479 437 c 2
 568 437 l 2
 607 437 626 424 626 399 c 0
EndSplineSet
EndChar

StartChar: afii10089
Encoding: 1095 1095 446
Width: 600
Flags: MW
LayerCount: 2
Fore
SplineSet
319 398 m 0
 319 375 305 337 246 337 c 1
 228 252 l 1
 236 233 273 224 311 224 c 0
 352 224 381 235 409 256 c 1
 426 336 l 1
 393 336 375 349 375 373 c 0
 375 410 402 436 444 436 c 0
 453 436 l 0
 543 437 l 2
 581 437 599 424 599 399 c 0
 599 375 584 337 526 337 c 1
 476 100 l 1
 509 100 528 87 528 64 c 0
 528 41 515 0 459 0 c 2
 361 0 l 2
 322 0 303 13 303 38 c 0
 303 75 332 100 376 100 c 1
 386 147 l 1
 353 129 329 123 289 123 c 0
 217 123 125 145 125 226 c 0
 125 234 126 243 128 252 c 2
 146 337 l 1
 113 337 95 350 95 374 c 0
 95 399 110 437 170 437 c 2
 174 437 l 1
 262 436 l 2
 300 435 319 423 319 398 c 0
EndSplineSet
EndChar

StartChar: afii10090
Encoding: 1096 1096 447
Width: 600
Flags: MW
LayerCount: 2
Fore
SplineSet
485 397 m 0
 485 375 473 337 422 337 c 1
 372 100 l 1
 512 100 l 1
 562 337 l 1
 530 337 515 349 515 371 c 0
 515 397 526 437 588 437 c 2
 661 437 l 2
 701 437 724 421 724 395 c 0
 724 370 712 337 662 337 c 1
 612 100 l 1
 645 100 663 87 663 63 c 0
 663 36 648 0 584 0 c 2
 24 0 l 2
 -14 0 -32 13 -32 38 c 0
 -32 64 -20 100 28 100 c 1
 78 337 l 1
 46 337 31 349 31 371 c 0
 31 397 42 437 104 437 c 2
 177 437 l 2
 218 437 246 423 246 396 c 0
 246 362 220 337 178 337 c 1
 128 101 l 1
 272 100 l 1
 322 337 l 1
 290 337 275 349 275 371 c 0
 275 397 286 437 348 437 c 2
 421 437 l 2
 461 437 485 424 485 397 c 0
EndSplineSet
Validated: 3073
EndChar

StartChar: afii10091
Encoding: 1097 1097 448
Width: 600
Flags: MW
LayerCount: 2
Fore
SplineSet
724 395 m 0
 724 370 712 337 662 337 c 1
 612 100 l 1
 677 100 l 1
 650 -26 l 2
 647 -41 637 -92 586 -92 c 0
 564 -92 546 -77 546 -57 c 0
 546 -40 553 -14 556 0 c 1
 24 0 l 2
 -14 0 -32 13 -32 38 c 0
 -32 64 -20 100 28 100 c 1
 78 337 l 1
 46 337 31 349 31 371 c 0
 31 397 42 437 104 437 c 2
 177 437 l 2
 218 437 246 423 246 396 c 0
 246 362 220 337 178 337 c 1
 128 101 l 1
 272 100 l 1
 322 337 l 1
 290 337 275 349 275 371 c 0
 275 397 286 437 348 437 c 2
 421 437 l 2
 461 437 485 424 485 397 c 0
 485 375 473 337 422 337 c 1
 372 100 l 1
 512 100 l 1
 562 337 l 1
 530 337 515 349 515 371 c 0
 515 397 526 437 588 437 c 2
 661 437 l 2
 701 437 724 421 724 395 c 0
EndSplineSet
Validated: 3073
EndChar

StartChar: afii10092
Encoding: 1098 1098 449
Width: 600
Flags: MW
LayerCount: 2
Fore
SplineSet
111 245 m 0
 102 245 71 251 71 280 c 0
 71 287 72 297 75 311 c 2
 102 437 l 1
 384 437 l 2
 424 437 442 425 442 401 c 0
 442 377 427 337 369 337 c 1
 357 280 l 1
 559 280 598 234 598 162 c 0
 598 95 568 0 401 0 c 2
 203 0 l 2
 164 0 146 13 146 37 c 0
 146 62 160 100 218 100 c 1
 269 337 l 1
 181 337 l 1
 172 296 164 245 111 245 c 0
368 100 m 2
 459 100 496 108 496 144 c 0
 496 179 439 180 358 180 c 2
 335 180 l 1
 318 100 l 1
 336 100 368 100 368 100 c 2
EndSplineSet
EndChar

StartChar: afii10093
Encoding: 1099 1099 450
Width: 600
Flags: MW
LayerCount: 2
Fore
SplineSet
403 37 m 0
 403 61 417 100 475 100 c 1
 526 336 l 1
 492 336 474 349 474 374 c 0
 474 399 489 436 552 436 c 2
 642 437 l 2
 679 437 698 424 698 400 c 0
 698 375 684 337 626 337 c 1
 575 100 l 1
 609 100 627 87 627 62 c 0
 627 37 612 0 549 0 c 2
 460 0 l 2
 421 0 403 13 403 37 c 0
258 401 m 0
 258 375 243 337 185 337 c 1
 173 280 l 1
 358 280 419 264 419 188 c 0
 419 108 370 0 187 0 c 2
 19 0 l 2
 -20 0 -38 13 -38 37 c 0
 -38 61 -24 100 34 100 c 1
 85 337 l 1
 51 337 33 351 33 376 c 0
 33 399 45 437 112 437 c 2
 200 437 l 2
 240 437 258 425 258 401 c 0
174 100 m 2
 274 100 312 107 312 143 c 0
 312 180 244 180 151 180 c 1
 134 100 l 1
 148 100 174 100 174 100 c 2
EndSplineSet
Validated: 3073
EndChar

StartChar: afii10094
Encoding: 1100 1100 451
Width: 600
Flags: MW
LayerCount: 2
Fore
SplineSet
388 401 m 0
 388 377 373 337 315 337 c 1
 302 280 l 1
 487 280 549 264 549 190 c 0
 549 111 502 0 317 0 c 2
 149 0 l 2
 110 0 92 13 92 37 c 0
 92 62 106 100 164 100 c 1
 215 337 l 1
 181 337 163 350 163 375 c 0
 163 398 174 437 242 437 c 2
 330 437 l 2
 370 437 388 425 388 401 c 0
304 100 m 2
 404 100 442 107 442 143 c 0
 442 180 374 180 281 180 c 1
 264 100 l 1
 278 100 304 100 304 100 c 2
EndSplineSet
EndChar

StartChar: afii10095
Encoding: 1101 1101 452
Width: 600
Flags: MW
LayerCount: 2
Fore
SplineSet
119 140 m 0
 159 140 140 84 292 84 c 0
 383 84 444 108 475 157 c 1
 281 157 l 2
 247 157 229 171 229 196 c 0
 229 220 244 257 304 257 c 2
 497 257 l 1
 488 317 443 350 369 350 c 0
 186 350 252 241 166 241 c 0
 132 241 125 269 125 277 c 0
 125 284 127 293 130 307 c 0
 146 384 l 1
 156 430 175 450 208 450 c 0
 229 450 238 441 240 420 c 1
 283 440 333 450 390 450 c 0
 536 450 600 360 600 261 c 0
 600 100 474 -16 278 -16 c 0
 155 -16 57 21 57 80 c 0
 57 105 83 140 119 140 c 0
EndSplineSet
EndChar

StartChar: afii10096
Encoding: 1102 1102 453
Width: 600
Flags: MW
LayerCount: 2
Fore
SplineSet
261 399 m 0
 261 374 247 337 189 337 c 1
 172 258 l 1
 244 258 l 1
 289 369 369 450 501 450 c 0
 618 450 673 378 673 281 c 0
 673 214 628 -16 399 -16 c 0
 277 -16 234 56 227 157 c 1
 151 157 l 1
 139 100 l 1
 172 100 190 87 190 63 c 0
 190 26 163 0 121 0 c 2
 23 0 l 2
 -16 0 -34 13 -34 37 c 0
 -34 75 -5 100 39 100 c 1
 89 337 l 1
 56 337 38 350 38 374 c 0
 38 399 53 437 112 437 c 2
 116 437 l 1
 204 436 l 2
 243 435 261 423 261 399 c 0
420 84 m 0
 512 84 571 160 571 263 c 0
 571 314 547 350 479 350 c 0
 357 350 326 235 326 170 c 0
 326 119 351 84 420 84 c 0
EndSplineSet
Validated: 3073
EndChar

StartChar: afii10097
Encoding: 1103 1103 454
Width: 600
Flags: MW
LayerCount: 2
Fore
SplineSet
54 39 m 0
 54 62 66 100 132 100 c 2
 165 100 l 1
 249 167 l 1
 190 178 167 201 167 248 c 0
 167 328 210 433 399 437 c 2
 567 437 l 2
 606 437 624 424 624 400 c 0
 624 362 595 337 551 337 c 1
 501 100 l 1
 534 100 552 87 552 63 c 0
 552 38 541 0 474 0 c 2
 386 0 l 2
 346 0 327 12 327 37 c 0
 327 75 356 100 401 100 c 1
 413 157 l 1
 385 157 l 1
 297 87 l 1
 304 78 307 70 307 61 c 0
 307 37 292 0 229 0 c 2
 111 0 l 2
 76 0 54 6 54 39 c 0
411 337 m 0
 315 337 274 330 274 293 c 0
 274 259 326 257 402 257 c 2
 434 257 l 1
 451 337 l 1
 437 337 423 337 411 337 c 0
EndSplineSet
EndChar

StartChar: afii10099
Encoding: 1106 1106 457
Width: 600
Flags: MW
LayerCount: 2
Fore
SplineSet
169 563 m 0
 169 589 181 624 247 624 c 2
 363 624 l 1
 337 502 l 1
 494 502 l 2
 509 502 516 492 516 480 c 0
 516 464 503 444 482 444 c 2
 325 444 l 1
 304 341 l 1
 352 382 402 402 454 402 c 0
 568 402 597 341 597 272 c 0
 597 253 596 243 595 236 c 2
 543 0 l 2
 522 -98 431 -185 313 -185 c 2
 274 -185 l 2
 235 -185 218 -172 218 -148 c 0
 218 -100 251 -85 295 -85 c 2
 331 -85 l 2
 385 -85 431 -57 443 -1 c 10
 493 223 l 18
 495 234 496 243 496 251 c 0
 496 278 478 302 421 302 c 0
 364 302 326 271 281 235 c 1
 252 100 l 1
 258 100 l 2
 293 100 315 92 315 61 c 0
 315 35 303 0 236 0 c 2
 124 0 l 2
 91 0 68 8 68 39 c 0
 68 66 84 100 146 100 c 2
 152 100 l 1
 226 444 l 1
 174 444 l 2
 160 444 154 454 154 466 c 0
 154 482 166 502 186 502 c 2
 237 502 l 1
 242 524 l 1
 226 524 l 2
 192 524 169 530 169 563 c 0
EndSplineSet
EndChar

StartChar: afii10101
Encoding: 1108 1108 459
Width: 600
Flags: MW
LayerCount: 2
Fore
SplineSet
475 289 m 0
 473 330 429 350 359 350 c 0
 279 350 223 312 191 257 c 1
 384 257 l 2
 420 257 437 244 437 220 c 0
 437 196 423 157 365 157 c 2
 171 157 l 1
 181 108 231 84 322 84 c 0
 481 84 473 140 519 140 c 0
 542 140 559 123 559 100 c 0
 559 7 357 -16 294 -16 c 0
 101 -16 66 85 66 157 c 0
 66 227 129 450 380 450 c 0
 437 450 483 440 518 420 c 1
 528 441 541 450 562 450 c 0
 587 450 600 438 600 412 c 0
 600 404 598 395 596 384 c 2
 579 307 l 2
 576 290 566 241 515 241 c 0
 480 241 475 261 475 289 c 0
EndSplineSet
EndChar

StartChar: afii10106
Encoding: 1113 1113 464
Width: 600
Flags: MW
LayerCount: 2
Fore
SplineSet
660 183 m 0
 660 105 614 -1 429 -1 c 2
 319 -1 l 2
 280 -1 261 11 261 37 c 0
 261 72 284 96 327 99 c 2
 334 99 l 1
 384 335 l 1
 276 336 l 1
 226 99 l 2
 212 32 157 -1 70 -1 c 0
 11 -1 -42 24 -42 70 c 0
 -42 75 -41 80 -40 85 c 2
 -29 139 l 2
 -20 178 1 200 32 200 c 0
 57 200 73 187 73 169 c 0
 73 166 l 10
 69 139 l 2
 67 128 64 116 64 106 c 0
 64 96 69 86 92 86 c 0
 142 86 131 144 176 336 c 1
 141 336 124 349 124 373 c 0
 124 410 156 436 204 436 c 2
 499 435 l 2
 537 435 556 421 556 395 c 0
 556 347 517 338 483 335 c 1
 471 278 l 1
 612 278 660 260 660 183 c 0
433 98 m 1
 517 98 553 105 553 141 c 0
 553 176 485 178 450 178 c 1
 433 98 l 1
EndSplineSet
EndChar

StartChar: afii10107
Encoding: 1114 1114 465
Width: 600
Flags: MW
LayerCount: 2
Fore
SplineSet
662 185 m 0
 662 111 616 0 431 0 c 2
 320 0 l 2
 281 0 262 12 262 38 c 0
 262 70 284 96 328 100 c 2
 335 100 l 1
 352 180 l 1
 174 180 l 1
 157 100 l 1
 192 100 210 87 210 66 c 0
 210 29 183 0 140 0 c 2
 42 0 l 2
 3 0 -16 12 -16 38 c 0
 -16 70 6 96 50 100 c 2
 57 100 l 1
 107 337 l 1
 72 337 55 350 55 374 c 0
 55 409 84 437 130 437 c 2
 222 437 l 2
 261 436 280 423 280 398 c 0
 280 374 265 337 207 337 c 1
 195 281 l 1
 373 281 l 1
 385 336 l 1
 350 336 333 348 333 372 c 0
 333 384 343 437 400 437 c 2
 501 437 l 2
 539 437 558 424 558 398 c 0
 558 349 519 340 485 337 c 1
 473 280 l 1
 614 280 662 262 662 185 c 0
435 100 m 1
 522 100 555 108 555 143 c 0
 555 178 487 180 452 180 c 1
 435 100 l 1
EndSplineSet
EndChar

StartChar: afii10108
Encoding: 1115 1115 466
Width: 600
Flags: MW
LayerCount: 2
Fore
SplineSet
193 524 m 2
 157 524 136 532 136 564 c 0
 136 588 152 624 214 624 c 2
 330 624 l 1
 304 502 l 1
 461 502 l 2
 476 502 483 492 483 480 c 0
 483 464 470 444 449 444 c 2
 292 444 l 1
 271 341 l 1
 319 382 370 402 421 402 c 0
 538 402 568 331 568 276 c 0
 568 263 566 250 563 237 c 2
 533 100 l 1
 539 100 l 2
 575 100 596 92 596 60 c 0
 596 35 580 0 518 0 c 2
 406 0 l 2
 375 0 349 5 349 41 c 0
 355 94 395 100 427 100 c 2
 433 100 l 1
 460 223 l 2
 462 234 463 243 463 251 c 0
 463 278 447 302 390 302 c 0
 330 302 291 269 249 235 c 1
 219 100 l 1
 225 100 l 2
 258 100 282 94 282 59 c 0
 282 35 267 0 204 0 c 2
 92 0 l 2
 60 0 36 7 36 41 c 0
 36 63 50 100 113 100 c 2
 119 100 l 1
 193 444 l 1
 141 444 l 2
 127 444 121 454 121 466 c 0
 121 482 133 502 153 502 c 2
 204 502 l 1
 209 524 l 1
 193 524 l 2
EndSplineSet
EndChar

StartChar: afii10193
Encoding: 1119 1119 470
Width: 600
Flags: MW
LayerCount: 2
Fore
SplineSet
329 399 m 0
 329 387 323 342 263 337 c 2
 256 337 l 1
 206 101 l 1
 420 100 l 1
 471 337 l 1
 436 337 418 349 418 372 c 0
 418 399 432 437 488 437 c 2
 586 437 l 2
 625 437 644 425 644 399 c 0
 644 387 638 342 578 337 c 2
 571 337 l 1
 520 100 l 1
 555 100 572 88 572 64 c 0
 572 61 572 57 571 53 c 1
 571 50 l 1
 564 17 538 0 493 0 c 2
 339 0 l 1
 318 -45 322 -65 320 -90 c 1
 306 -96 289 -99 273 -99 c 0
 256 -99 239 -96 226 -90 c 1
 237 -66 242 -35 245 0 c 1
 89 0 l 2
 51 0 32 12 32 38 c 0
 32 75 59 97 105 100 c 1
 156 337 l 1
 121 337 103 349 103 372 c 0
 103 399 117 437 173 437 c 2
 271 437 l 2
 310 437 329 425 329 399 c 0
EndSplineSet
EndChar

StartChar: afii10050
Encoding: 1168 1168 471
Width: 600
Flags: MW
LayerCount: 2
Fore
SplineSet
112 522 m 0
 112 547 128 583 190 583 c 2
 561 583 l 1
 572 632 576 700 636 700 c 0
 660 700 676 682 676 662 c 0
 676 655 675 647 672 634 c 0
 640 483 l 1
 284 483 l 1
 202 100 l 1
 302 100 l 2
 341 100 359 94 359 61 c 0
 359 35 343 0 281 0 c 2
 66 0 l 2
 34 0 10 7 10 38 c 0
 10 65 25 100 87 100 c 2
 102 100 l 1
 184 483 l 1
 169 483 l 2
 136 483 112 488 112 522 c 0
EndSplineSet
EndChar

StartChar: afii10098
Encoding: 1169 1169 472
Width: 600
Flags: MW
LayerCount: 2
Fore
SplineSet
169 376 m 0
 169 402 185 437 248 437 c 2
 485 437 l 1
 493 478 502 529 554 529 c 0
 575 529 595 515 595 493 c 0
 595 486 593 477 590 463 c 0
 563 336 l 1
 563 336 400 337 321 337 c 1
 270 100 l 1
 304 100 322 87 322 62 c 0
 322 27 296 0 253 0 c 2
 155 0 l 2
 116 0 98 13 98 37 c 0
 98 62 112 100 170 100 c 1
 221 337 l 1
 187 337 169 351 169 376 c 0
EndSplineSet
EndChar

StartChar: uni0492
Encoding: 1170 1170 473
Width: 600
Flags: MW
LayerCount: 2
Fore
SplineSet
61 334 m 0
 61 357 72 392 138 392 c 2
 152 392 l 1
 168 468 l 1
 153 468 l 2
 124 468 99 471 99 508 c 0
 99 532 114 565 174 565 c 2
 632 565 l 1
 600 418 l 2
 596 402 587 356 537 356 c 0
 514 356 499 371 499 389 c 0
 499 395 501 404 503 418 c 2
 513 468 l 1
 265 468 l 1
 249 392 l 1
 344 392 l 2
 384 392 400 386 400 355 c 0
 400 333 385 295 324 295 c 2
 228 295 l 1
 186 97 l 1
 283 97 l 2
 313 97 338 94 338 59 c 0
 338 35 323 0 262 0 c 2
 55 0 l 2
 22 0 -1 6 -1 41 c 0
 -1 63 15 97 76 97 c 2
 90 97 l 1
 132 295 l 1
 116 295 l 2
 86 295 61 301 61 334 c 0
EndSplineSet
EndChar

StartChar: uni0493
Encoding: 1171 1171 474
Width: 600
Flags: MW
LayerCount: 2
Fore
SplineSet
101 36 m 0
 101 61 115 97 171 97 c 1
 190 185 l 1
 156 186 140 198 140 222 c 0
 140 246.193 153.43 281 211 281 c 1
 220 326 l 1
 187 326 170 340 170 364 c 0
 170 386 182 423 248 423 c 2
 573 423 l 1
 547 299 l 2
 532 240 497 236 485 236 c 0
 451 236 445 265 445 272 c 0
 445 279 447 287 450 299 c 2
 455 326 l 1
 317 326 l 1
 308 281 l 1
 336.1 281 358 273.4 358 243 c 0
 358 208 331 184 290 184 c 0
 287 184 l 1
 268 97 l 1
 301 97 318 85 318 60 c 0
 318 37 304 0 249 0 c 2
 156 0 l 2
 119 0 101 12 101 36 c 0
EndSplineSet
EndChar

StartChar: uni0496
Encoding: 1174 1174 475
Width: 600
Flags: MW
LayerCount: 2
Fore
SplineSet
599 -141 m 0
 578 -141 559 -127 559 -104 c 0
 559 -97 560 -88 563 -75 c 2
 579 0 l 1
 524 0 l 1
 523 164 487 264 405 264 c 1
 369 100 l 1
 403 100 419 78 419 50 c 0
 419 14 393 0 345 0 c 2
 262 0 l 2
 217 0 206 23 206 50 c 0
 206 75 223 100 269 100 c 1
 305 264 l 1
 223 264 141 153 100 0 c 1
 25 0 l 2
 -20 0 -31 20 -31 50 c 0
 -31 86 -6 100 43 100 c 1
 81 228 133 298 201 330 c 1
 123 483 l 1
 89 484 78 506 78 533 c 0
 78 567 99 583 148 583 c 2
 225 583 l 2
 264 583 284 565 284 534 c 0
 284 502 266 487 243 487 c 1
 319 334 l 1
 350 483 l 1
 314 483 301 501 301 533 c 0
 301 570 326 583 378 583 c 2
 439 583 l 2
 488 583 504 566 504 533 c 0
 504 498 477 483 450 483 c 1
 419 334 l 1
 548 487 l 1
 529 487 523 510 523 530 c 0
 523 568 566 583 603 583 c 2
 670 583 l 2
 709 583 726 563 726 533 c 0
 726 497 702 484 678 483 c 1
 536 321 l 1
 581 283 623 218 623 100 c 1
 669 100 690 83 690 50 c 0
 690 22 660 -103 645 -120 c 0
 632 -133 615 -141 599 -141 c 0
EndSplineSet
Validated: 3073
EndChar

StartChar: uni0497
Encoding: 1175 1175 476
Width: 600
Flags: MW
LayerCount: 2
Fore
SplineSet
588 100 m 1
 639 100 652 80 652 47 c 0
 652 12 636 -26 636 -26 c 0
 633 -41 623 -92 572 -92 c 0
 538 -92 532 -63 532 -56 c 0
 532 -49 533 -40 536 -26 c 2
 541 0 l 1
 481 0 l 2
 443 0 425 13 425 37 c 0
 425 48.4625 429.031 99 450 99 c 1
 438 135 417 149 388 164 c 1
 375 100 l 1
 392.585 100 410 75.297 410 52 c 0
 410 10 382 0 346 0 c 2
 281 0 l 2
 237 0 227 21 227 50 c 0
 227 79 250 100 270 100 c 1
 283 164 l 1
 247 150 209 131 189 87 c 1
 195 78 198 70 198 61 c 0
 198 37 183 0 120 0 c 2
 34 0 l 2
 -12 0 -18 26 -18 50 c 0
 -18 86 8 100 57 100 c 1
 96 162 169 234 240 237 c 1
 101 336 l 1
 69 336 59 351 59 386 c 0
 59 420 79 437 127 437 c 2
 200 437 l 2
 258 437 268 413 268 377 c 0
 268 357 264 336 242 336 c 1
 310 288 l 1
 321 337 l 1
 297.764 337 285 362.702 285 387 c 0
 285 419 308 437 346 437 c 2
 415 437 l 2
 453 437 471 417 471 387 c 0
 471 358 451 337 425 337 c 1
 407 258 l 1
 510 340 l 1
 496 340 491 362 491 381 c 0
 491 428 521 437 565 437 c 2
 632 437 l 2
 678 437 696 420 696 389 c 0
 696 368 688 337 642 337 c 0
 639 337 l 1
 485 218 l 1
 537 200 563 166 588 100 c 1
EndSplineSet
EndChar

StartChar: uni049A
Encoding: 1178 1178 477
Width: 600
Flags: MW
LayerCount: 2
Fore
SplineSet
499 -136 m 0
 478 -136 460 -122 460 -101 c 0
 460 -94 461 -85 464 -73 c 2
 479 0 l 1
 406 0 l 1
 389 139 317 270 238 270 c 1
 201 97 l 1
 235 97 l 2
 265 97 290 94 290 57 c 0
 290 36 275 0 215 0 c 2
 69 0 l 2
 37 0 14 5 14 40 c 0
 14 61 28 97 89 97 c 2
 103 97 l 1
 184 468 l 1
 169 468 l 2
 138 468 115 472 115 506 c 0
 115 531 129 565 189 565 c 2
 336 565 l 2
 365 565 389 560 389 527 c 0
 389 502 375 468 314 468 c 2
 280 468 l 1
 249 324 l 1
 454 472 l 1
 439 478 431 487 431 501 c 0
 431 527 446 565 507 565 c 2
 604 565 l 2
 635 565 659 562 659 528 c 0
 659 505 644 468 588 468 c 1
 385 319 l 1
 437 290 481 208 502 97 c 1
 533 97 l 2
 566 97 587 91 587 56 c 2
 587 48 l 1
 561 -73 l 2
 558 -87 549 -136 499 -136 c 0
EndSplineSet
EndChar

StartChar: uni049B
Encoding: 1179 1179 478
Width: 600
Flags: MW
LayerCount: 2
Fore
SplineSet
463 -89 m 0
 431 -89 423 -63 423 -55 c 0
 423 -48 425 -39 428 -24 c 2
 432 0 l 1
 350 0 l 2
 314 0 295 12 295 36 c 0
 295 63 310 76 318 84 c 1
 260 159 l 1
 226 0 l 1
 114 0 l 2
 78 0 59 12 59 36 c 0
 59 60 70 97 134 97 c 2
 149 97 l 1
 197 326 l 1
 182 326 l 2
 149 326 128 332 128 366 c 0
 128 388 140 423 203 423 c 2
 316 423 l 1
 285 277 l 1
 373 339 l 1
 368 349 365 356 365 363 c 0
 365 386 377 423 442 423 c 2
 549 423 l 2
 582 423 605 419 605 386 c 0
 605 363 594 326 529 326 c 2
 502 326 l 1
 348 220 l 1
 453 97 l 1
 484 97 l 2
 516 97 541 94 541 57 c 0
 541 54 541 51 540 48 c 2
 525 -24 l 2
 521 -38 513 -89 463 -89 c 0
EndSplineSet
EndChar

StartChar: uni04A2
Encoding: 1186 1186 479
Width: 600
Flags: MW
LayerCount: 2
Fore
SplineSet
536 100 m 2
 569 100 592 95 592 60 c 0
 592 38 561 -104 546 -120 c 0
 533 -133 516 -141 500 -141 c 0
 479 -141 460 -127 460 -104 c 0
 460 -97 461 -88 464 -75 c 2
 480 0 l 1
 394 0 l 2
 353 0 337 11 337 40 c 0
 337 64 353 100 415 100 c 2
 430 100 l 1
 460 241 l 1
 246 241 l 1
 216 100 l 1
 230 100 l 2
 262 100 287 96 287 60 c 0
 287 36 271 0 209 0 c 2
 88 0 l 2
 48 0 32 11 32 40 c 0
 32 65 48 100 110 100 c 2
 116 100 l 1
 197 483 l 1
 169 485 155 498 155 523 c 0
 155 546 167 583 233 583 c 2
 333 583 l 2
 365 583 390 579 390 544 c 0
 390 518 374 483 312 483 c 2
 297 483 l 1
 267 341 l 1
 481 341 l 1
 511 483 l 1
 496 483 l 2
 463 483 440 488 440 523 c 0
 440 546 452 583 518 583 c 2
 618 583 l 2
 650 583 675 579 675 544 c 0
 675 511 649 486 611 483 c 1
 530 100 l 1
 536 100 l 2
EndSplineSet
Validated: 3073
EndChar

StartChar: uni04A3
Encoding: 1187 1187 480
Width: 600
Flags: MW
LayerCount: 2
Fore
SplineSet
649 400 m 0
 649 375 635 337 577 337 c 1
 526 100 l 1
 560 100 578 87 578 62 c 0
 576 38 560 -52 542 -72 c 0
 530 -84 513 -92 497 -92 c 0
 463 -92 457 -63 457 -56 c 0
 457 -49 458 -40 461 -26 c 2
 466 0 l 1
 411 0 l 2
 372 0 354 13 354 37 c 0
 354 61 368 100 426 100 c 1
 440 162 l 1
 225 162 l 1
 211 100 l 1
 245 100 263 87 263 62 c 0
 263 27 237 0 194 0 c 2
 96 0 l 2
 57 0 39 13 39 37 c 0
 39 61 53 100 111 100 c 1
 162 337 l 1
 128 337 110 351 110 376 c 0
 110 400 125 437 185 437 c 2
 189 437 l 1
 277 436 l 2
 316 435 334 423 334 399 c 0
 334 375 320 337 262 337 c 1
 246 263 l 1
 461 263 l 1
 477 336 l 1
 443 336 425 349 425 374 c 0
 425 409 451 436 494 436 c 0
 503 436 l 2
 593 437 l 2
 630 437 649 424 649 400 c 0
EndSplineSet
EndChar

StartChar: uni04AC
Encoding: 1196 1196 481
Width: 600
Flags: MW
LayerCount: 2
Fore
SplineSet
436 100 m 2
 469 100 493 95 493 61 c 0
 493 40 461 -104 446 -120 c 0
 433 -133 416 -141 400 -141 c 0
 379 -141 360 -127 360 -104 c 0
 360 -97 361 -88 364 -75 c 2
 380 0 l 1
 184 0 l 2
 144 0 128 12 128 40 c 0
 128 66 144 100 206 100 c 2
 270 100 l 1
 352 483 l 1
 245 483 l 1
 225 390 l 2
 222 378 213 324 161 324 c 0
 139 324 121 341 121 361 c 0
 121 368 122 378 125 390 c 2
 166 583 l 1
 682 583 l 1
 641 390 l 2
 638 376 629 324 577 324 c 0
 554 324 537 340 537 361 c 0
 537 368 538 377 541 390 c 2
 561 483 l 1
 452 483 l 1
 370 100 l 1
 436 100 l 2
EndSplineSet
Validated: 3073
EndChar

StartChar: uni04AD
Encoding: 1197 1197 482
Width: 600
Flags: MW
LayerCount: 2
Fore
SplineSet
540 244 m 0
 506 244 500 273 500 280 c 0
 500 287 501 296 504 310 c 2
 509 336 l 1
 421 336 l 1
 371 101 l 1
 404 101 423 88 423 65 c 0
 423 60 422 56 421 51 c 2
 405 -26 l 2
 402 -41 392 -92 341 -92 c 0
 307 -92 301 -63 301 -56 c 0
 301 -49 302 -40 305 -26 c 2
 310 0 l 1
 256 0 l 2
 217 0 198 13 198 38 c 0
 198 75 227 100 271 100 c 1
 321 336 l 1
 233 336 l 1
 228 310 l 2
 225 295 215 244 164 244 c 0
 143 244 123 258 123 280 c 0
 123 287 125 296 128 310 c 2
 155 437 l 1
 631 437 l 1
 604 310 l 2
 601 296 592 244 540 244 c 0
EndSplineSet
EndChar

StartChar: uni04AE
Encoding: 1198 1198 483
Width: 600
Flags: MW
LayerCount: 2
Fore
SplineSet
673 527 m 0
 673 506 659 468 601 468 c 2
 598 468 l 1
 389 237 l 1
 361 97 l 1
 423 97 l 2
 454 97 479 94 479 59 c 0
 479 38 465 0 403 0 c 2
 178 0 l 2
 140 0 123 12 123 39 c 0
 123 61 137 97 200 97 c 2
 264 97 l 1
 293 237 l 1
 182 468 l 1
 177 468 l 2
 146 468 129 482 129 507 c 0
 129 528 143 565 205 565 c 2
 293 565 l 2
 323 565 347 562 347 527 c 0
 347 501 330 480 298 468 c 1
 363 337 l 1
 482 468 l 1
 460 477 453 487 453 507 c 0
 453 529 464 565 528 565 c 2
 618 565 l 2
 648 565 673 562 673 527 c 0
EndSplineSet
Validated: 3073
EndChar

StartChar: uni04AF
Encoding: 1199 1199 484
Width: 600
Flags: MW
LayerCount: 2
Fore
SplineSet
663 398 m 0
 663 376 648 337 589 337 c 2
 586 337 l 1
 371 99 l 1
 341 -46 l 1
 406 -46 l 2
 439 -46 463 -51 463 -85 c 0
 463 -109 447 -146 385 -146 c 2
 154 -146 l 2
 113 -146 97 -134 97 -106 c 0
 97 -80 112 -46 175 -46 c 2
 241 -46 l 1
 271 99 l 1
 157 337 l 1
 151 337 l 2
 120 337 103 351 103 377 c 0
 103 402 118 437 181 437 c 2
 271 437 l 2
 304 437 327 432 327 398 c 0
 327 371 310 350 277 337 c 1
 343 202 l 1
 466 337 l 1
 444 346 436 357 436 377 c 0
 436 403 452 437 514 437 c 2
 607 437 l 2
 640 437 663 432 663 398 c 0
EndSplineSet
Validated: 3073
EndChar

StartChar: uni04B0
Encoding: 1200 1200 485
Width: 600
Flags: MW
LayerCount: 2
Fore
SplineSet
128 40 m 0
 128 66 143 100 206 100 c 2
 272 100 l 1
 281 145 l 1
 185 145 l 2
 144 145 128 157 128 185 c 0
 128 210 143 245 206 245 c 2
 302 245 l 1
 188 483 l 1
 182 483 l 2
 151 483 134 497 134 523 c 0
 134 548 149 583 212 583 c 2
 302 583 l 2
 335 583 358 578 358 544 c 0
 358 517 341 496 308 483 c 1
 374 348 l 1
 497 483 l 1
 475 492 467 503 467 523 c 0
 467 549 483 583 545 583 c 2
 638 583 l 2
 671 583 694 578 694 544 c 0
 694 522 679 483 620 483 c 2
 617 483 l 1
 402 245 l 1
 497 245 l 2
 530 245 554 240 554 206 c 0
 554 182 538 145 476 145 c 2
 381 145 l 1
 372 100 l 1
 437 100 l 2
 470 100 494 95 494 61 c 0
 494 37 478 0 416 0 c 2
 185 0 l 2
 144 0 128 12 128 40 c 0
EndSplineSet
Validated: 3073
EndChar

StartChar: uni04B1
Encoding: 1201 1201 486
Width: 600
Flags: MW
LayerCount: 2
Fore
SplineSet
97 -106 m 0
 97 -80 112 -46 175 -46 c 2
 241 -46 l 1
 250 -1 l 1
 154 -1 l 2
 113 -1 97 11 97 39 c 0
 97 64 112 99 175 99 c 2
 271 99 l 1
 157 337 l 1
 151 337 l 2
 120 337 103 351 103 377 c 0
 103 402 118 437 181 437 c 2
 271 437 l 2
 304 437 327 432 327 398 c 0
 327 371 310 350 277 337 c 1
 343 202 l 1
 466 337 l 1
 444 346 436 357 436 377 c 0
 436 403 452 437 514 437 c 2
 607 437 l 2
 640 437 663 432 663 398 c 0
 663 376 648 337 589 337 c 2
 586 337 l 1
 371 99 l 1
 466 99 l 2
 499 99 523 94 523 60 c 0
 523 36 507 -1 445 -1 c 2
 350 -1 l 1
 341 -46 l 1
 406 -46 l 2
 439 -46 463 -51 463 -85 c 0
 463 -109 447 -146 385 -146 c 2
 154 -146 l 2
 113 -146 97 -134 97 -106 c 0
EndSplineSet
Validated: 3073
EndChar

StartChar: uni04B2
Encoding: 1202 1202 487
Width: 600
Flags: MW
LayerCount: 2
Fore
SplineSet
493 -136 m 0
 471 -136 454 -122 454 -100 c 0
 454 -93 455 -85 457 -73 c 2
 473 0 l 1
 400 0 l 2
 361 0 345 11 345 39 c 0
 345 68 366 93 411 97 c 1
 336 213 l 1
 211 97 l 1
 241 97 257 84 257 57 c 0
 257 36 243 0 180 0 c 2
 74 0 l 2
 34 0 19 11 19 39 c 0
 19 73 47 97 86 97 c 1
 290 290 l 1
 172 468 l 1
 141 469 127 482 127 507 c 0
 127 532 142 565 202 565 c 2
 291 565 l 2
 322 565 346 562 346 527 c 0
 346 501 332 484 298 469 c 1
 367 363 l 1
 480 469 l 1
 457 482 453 488 453 507 c 0
 453 529 464 565 528 565 c 2
 615 565 l 2
 652 565 670 559 670 527 c 0
 670 492 642 469 604 468 c 1
 414 288 l 1
 535 97 l 1
 567 97 582 84 582 57 c 2
 555 -73 l 2
 552 -88 540 -136 493 -136 c 0
EndSplineSet
Validated: 3073
EndChar

StartChar: uni04B3
Encoding: 1203 1203 488
Width: 600
Flags: MW
LayerCount: 2
Fore
SplineSet
492 -89 m 0
 460 -89 452 -63 452 -55 c 0
 452 -48 454 -39 457 -24 c 2
 463 0 l 1
 388 0 l 2
 348 0 332 11 332 39 c 0
 332 65 353 89 381 97 c 1
 322 156 l 1
 239 97 l 1
 260 86 267 78 267 60 c 0
 267 34 252 0 191 0 c 2
 84 0 l 2
 45 0 29 11 29 39 c 0
 29 51 36 92 93 97 c 1
 260 221 l 1
 158 326 l 1
 129 329 116 342 116 365 c 0
 116 389 131 423 192 423 c 2
 282 423 l 2
 312 423 336 420 336 384 c 0
 336 365 322 345 299 332 c 1
 349 283 l 1
 418 332 l 1
 406 343 401 352 401 364 c 0
 401 389 416 423 477 423 c 2
 566 423 l 2
 598 423 621 418 621 386 c 0
 621 353 596 330 558 326 c 1
 408 220 l 1
 528 97 l 1
 557 97 572 84 572 57 c 2
 554 -24 l 2
 552 -34 545 -89 492 -89 c 0
EndSplineSet
Validated: 3073
EndChar

StartChar: uni04B4
Encoding: 1204 1204 489
Width: 600
Flags: MW
LayerCount: 2
Fore
SplineSet
485 -136 m 0
 464 -136 446 -122 446 -101 c 0
 446 -94 447 -85 450 -73 c 2
 465 0 l 1
 76 0 l 2
 45 0 22 3 22 36 c 0
 22 88 69 96 82 97 c 1
 162 468 l 1
 157 468 l 2
 118 468 101 474 101 507 c 0
 101 532 117 565 178 565 c 2
 294 565 l 2
 327 565 349 559 349 525 c 0
 349 504 334 468 274 468 c 2
 260 468 l 1
 180 97 l 1
 387 97 l 1
 467 468 l 1
 453 468 l 2
 412 468 397 474 397 506 c 0
 397 530 412 565 472 565 c 2
 591 565 l 2
 622 565 644 559 644 526 c 0
 644 501 629 468 569 468 c 2
 563 468 l 1
 484 97 l 1
 583 97 l 1
 547 -73 l 2
 544 -87 535 -136 485 -136 c 0
EndSplineSet
EndChar

StartChar: uni04B5
Encoding: 1205 1205 490
Width: 600
Flags: MW
LayerCount: 2
Fore
SplineSet
608 387 m 0
 608 353 582 326 538 326 c 1
 490 97 l 1
 580 97 l 1
 554 -24 l 2
 550 -40 542 -89 492 -89 c 0
 460 -89 452 -62 452 -54 c 0
 452 -47 454 -38 457 -24 c 2
 463 0 l 1
 87 0 l 2
 51 0 33 12 33 37 c 0
 33 63 47 97 104 97 c 1
 152 326 l 1
 120 326 102 340 102 362 c 0
 102 389 116 422 177 423 c 2
 264 423 l 2
 302 423 321 410 321 385 c 0
 321 354 294 326 249 326 c 1
 200 98 l 1
 393 97 l 1
 441 326 l 1
 409 326 391 340 391 362 c 0
 391 388 405 422 466 423 c 2
 552 423 l 2
 590 423 608 411 608 387 c 0
EndSplineSet
EndChar

StartChar: uni04B6
Encoding: 1206 1206 491
Width: 600
Flags: MW
LayerCount: 2
Fore
SplineSet
503 100 m 2
 534 100 559 97 559 60 c 0
 559 50 530 -102 514 -120 c 0
 501 -133 484 -141 468 -141 c 0
 447 -141 428 -127 428 -104 c 0
 428 -97 429 -88 432 -75 c 2
 448 0 l 1
 360 0 l 2
 327 0 304 6 304 40 c 0
 304 66 320 100 382 100 c 2
 397 100 l 1
 416 196 l 1
 388 176 353 167 309 167 c 0
 232 167 138 179 138 273 c 0
 138 283 139 293 141 305 c 2
 179 483 l 1
 152 486 136 499 136 520 c 0
 136 544 148 583 214 583 c 2
 315 583 l 2
 346 583 372 580 372 542 c 0
 372 521 358 483 294 483 c 2
 279 483 l 1
 242 308 l 1
 250 277 291 267 331 267 c 0
 378 267 419 283 441 308 c 1
 478 483 l 1
 463 483 l 2
 430 483 407 488 407 522 c 0
 407 549 422 583 484 583 c 2
 585 583 l 2
 618 583 642 579 642 542 c 0
 642 529 633 488 578 483 c 1
 497 100 l 1
 503 100 l 2
EndSplineSet
EndChar

StartChar: uni04B7
Encoding: 1207 1207 492
Width: 600
Flags: MW
LayerCount: 2
Fore
SplineSet
627 399 m 0
 627 375 612 337 554 337 c 1
 504 100 l 1
 537 100 556 87 556 64 c 0
 556 59 555 55 554 50 c 2
 538 -26 l 2
 535 -41 525 -92 474 -92 c 0
 440 -92 434 -63 434 -56 c 0
 434 -49 435 -40 438 -26 c 2
 443 0 l 1
 389 0 l 2
 350 0 331 13 331 38 c 0
 331 75 360 100 404 100 c 1
 414 147 l 1
 381 129 357 123 317 123 c 0
 245 123 153 145 153 226 c 0
 153 234 154 243 156 252 c 2
 174 337 l 1
 141 337 123 350 123 374 c 0
 123 399 138 437 198 437 c 2
 202 437 l 1
 290 436 l 2
 328 435 347 423 347 398 c 0
 347 375 333 337 274 337 c 1
 256 252 l 1
 264 233 301 224 339 224 c 0
 380 224 409 235 437 256 c 1
 454 336 l 1
 421 336 403 349 403 373 c 0
 403 410 430 436 472 436 c 0
 481 436 l 2
 571 437 l 2
 609 437 627 424 627 399 c 0
EndSplineSet
EndChar

StartChar: uni04BA
Encoding: 1210 1210 493
Width: 600
Flags: MW
LayerCount: 2
Fore
SplineSet
408 528 m 0
 408 504 396 468 333 468 c 2
 318 468 l 1
 299 375 l 1
 326 394 361 403 403 403 c 0
 477 403 570 391 570 300 c 0
 570 291 569 281 567 270 c 2
 529 97 l 1
 555 94 571 82 571 61 c 0
 571 38 559 0 495 0 c 2
 398 0 l 2
 366 0 343 4 343 41 c 0
 343 60 357 97 416 97 c 2
 432 97 l 1
 468 267 l 2
 468 269 469 271 469 273 c 0
 469 301 419 306 382 306 c 0
 336 306 295 291 275 267 c 1
 240 97 l 1
 254 97 l 2
 286 97 309 91 309 57 c 0
 309 33 294 0 233 0 c 2
 136 0 l 2
 97 0 81 7 81 37 c 0
 81 52 89 92 142 97 c 1
 221 468 l 1
 215 468 l 2
 183 468 161 473 161 506 c 0
 161 529 176 565 237 565 c 2
 354 565 l 2
 388 565 408 558 408 528 c 0
EndSplineSet
EndChar

StartChar: uni04BB
Encoding: 1211 1211 494
Width: 600
Flags: MW
LayerCount: 2
Fore
SplineSet
340 37 m 0
 340 61 354 97 410 97 c 1
 428 178 l 1
 420 198 385 208 348 208 c 0
 307 208 279 195 253 175 c 1
 236 98 l 1
 269 98 286 85 286 62 c 0
 286 27 260 1 219 1 c 0
 210 1 l 2
 123 0 l 2
 87 0 68 12 68 36 c 0
 68 59 82 97 139 97 c 1
 188 326 l 1
 156 326 137 340 137 362 c 0
 137 383 149 424 202 424 c 0
 206 424 209 423 213 423 c 2
 299 423 l 2
 337 423 355 411 355 387 c 0
 355 353 328 326 285 326 c 1
 275 281 l 1
 305 298 330 304 369 304 c 0
 438 304 528 282 528 203 c 0
 528 195 527 187 525 178 c 2
 507 97 l 1
 540 97 557 85 557 61 c 0
 557 36 543 0 484 0 c 2
 480 0 l 1
 395 1 l 2
 358 2 340 13 340 37 c 0
EndSplineSet
EndChar

StartChar: uni04E8
Encoding: 1256 1256 518
Width: 600
Flags: MW
LayerCount: 2
Fore
SplineSet
75 222 m 0
 75 438 273 597 427 597 c 0
 548 597 649 505 649 366 c 0
 649 140 450 -14 297 -14 c 0
 165 -14 75 87 75 222 c 0
546 338 m 1
 546 428 489 497 405 497 c 0
 321 497 235 428 197 338 c 1
 546 338 l 1
523 238 m 1
 178 238 l 1
 180 151 236 86 318 86 c 0
 400 86 485 152 523 238 c 1
EndSplineSet
EndChar

StartChar: uni04E9
Encoding: 1257 1257 519
Width: 600
Flags: MW
LayerCount: 2
Fore
SplineSet
84 174 m 0
 84 286 200 450 399 450 c 0
 523 450 609 372 609 260 c 0
 609 115 460 -16 297 -16 c 0
 169 -16 84 60 84 174 c 0
506 257 m 1
 498 312 446 350 376 350 c 0
 302 350 235 311 204 257 c 1
 506 257 l 1
489 177 m 1
 187 177 l 1
 195 122 247 84 318 84 c 0
 392 84 458 123 489 177 c 1
EndSplineSet
Validated: 3073
EndChar

StartChar: afii57799
Encoding: 1456 1456 534
Width: 600
Flags: MW
LayerCount: 2
Fore
SplineSet
300 -178 m 0
 316 -178 329 -191 329 -207 c 0
 329 -223 316 -236 300 -236 c 0
 284 -236 271 -223 271 -207 c 0
 271 -191 284 -178 300 -178 c 0
300 -60 m 0
 316 -60 329 -73 329 -89 c 0
 329 -106 316 -119 300 -119 c 0
 284 -119 271 -106 271 -89 c 0
 271 -73 284 -60 300 -60 c 0
EndSplineSet
Validated: 3073
EndChar

StartChar: afii57801
Encoding: 1457 1457 535
Width: 600
Flags: MW
LayerCount: 2
Fore
SplineSet
241 -178 m 0
 257 -178 271 -191 271 -207 c 0
 271 -223 257 -236 241 -236 c 0
 225 -236 212 -223 212 -207 c 0
 212 -191 225 -178 241 -178 c 0
182 -60 m 0
 199 -60 212 -73 212 -89 c 0
 212 -106 199 -119 182 -119 c 0
 166 -119 153 -106 153 -89 c 0
 153 -73 166 -60 182 -60 c 0
418 -178 m 0
 434 -178 447 -191 447 -207 c 0
 447 -223 434 -236 418 -236 c 0
 401 -236 388 -223 388 -207 c 0
 388 -191 401 -178 418 -178 c 0
418 -60 m 0
 434 -60 447 -73 447 -89 c 0
 447 -106 434 -119 418 -119 c 0
 401 -119 388 -106 388 -89 c 0
 388 -73 401 -60 418 -60 c 0
300 -60 m 0
 316 -60 329 -73 329 -89 c 0
 329 -106 316 -119 300 -119 c 0
 284 -119 271 -106 271 -89 c 0
 271 -73 284 -60 300 -60 c 0
EndSplineSet
Validated: 3073
EndChar

StartChar: afii57800
Encoding: 1458 1458 536
Width: 600
Flags: MW
LayerCount: 2
Fore
SplineSet
174 -60 m 2
 308 -60 l 2
 320 -60 329 -69 329 -80 c 0
 329 -92 320 -101 308 -101 c 2
 174 -101 l 2
 162 -101 153 -92 153 -80 c 0
 153 -69 162 -60 174 -60 c 2
418 -178 m 0
 434 -178 447 -191 447 -207 c 0
 447 -223 434 -236 418 -236 c 0
 401 -236 388 -223 388 -207 c 0
 388 -191 401 -178 418 -178 c 0
418 -60 m 0
 434 -60 447 -73 447 -89 c 0
 447 -106 434 -119 418 -119 c 0
 401 -119 388 -106 388 -89 c 0
 388 -73 401 -60 418 -60 c 0
EndSplineSet
Validated: 3073
EndChar

StartChar: afii57802
Encoding: 1459 1459 537
Width: 600
Flags: MW
LayerCount: 2
Fore
SplineSet
219 -101 m 1
 173 -101 l 2
 162 -101 152 -92 152 -80 c 0
 152 -69 162 -60 173 -60 c 2
 308 -60 l 2
 320 -60 329 -69 329 -80 c 0
 329 -92 320 -101 308 -101 c 2
 260 -101 l 1
 260 -200 l 2
 260 -211 251 -220 240 -220 c 0
 228 -220 219 -211 219 -200 c 2
 219 -101 l 1
418 -178 m 0
 434 -178 447 -191 447 -207 c 0
 447 -223 434 -236 418 -236 c 0
 401 -236 388 -223 388 -207 c 0
 388 -191 401 -178 418 -178 c 0
418 -60 m 0
 434 -60 447 -73 447 -89 c 0
 447 -106 434 -119 418 -119 c 0
 401 -119 388 -106 388 -89 c 0
 388 -73 401 -60 418 -60 c 0
EndSplineSet
Validated: 3073
EndChar

StartChar: afii57793
Encoding: 1460 1460 538
Width: 600
Flags: MW
LayerCount: 2
Fore
SplineSet
300 -60 m 0
 316 -60 329 -73 329 -89 c 0
 329 -106 316 -119 300 -119 c 0
 284 -119 271 -106 271 -89 c 0
 271 -73 284 -60 300 -60 c 0
EndSplineSet
Validated: 3073
EndChar

StartChar: afii57794
Encoding: 1461 1461 539
Width: 600
Flags: MW
LayerCount: 2
Fore
SplineSet
241 -60 m 0
 257 -60 271 -73 271 -89 c 0
 271 -106 257 -119 241 -119 c 0
 225 -119 212 -106 212 -89 c 0
 212 -73 225 -60 241 -60 c 0
359 -60 m 0
 375 -60 388 -73 388 -89 c 0
 388 -106 375 -119 359 -119 c 0
 343 -119 329 -106 329 -89 c 0
 329 -73 343 -60 359 -60 c 0
EndSplineSet
Validated: 3073
EndChar

StartChar: afii57795
Encoding: 1462 1462 540
Width: 600
Flags: MW
LayerCount: 2
Fore
SplineSet
300 -178 m 0
 316 -178 329 -191 329 -207 c 0
 329 -223 316 -236 300 -236 c 0
 284 -236 271 -223 271 -207 c 0
 271 -191 284 -178 300 -178 c 0
241 -60 m 0
 257 -60 271 -73 271 -89 c 0
 271 -106 257 -119 241 -119 c 0
 225 -119 212 -106 212 -89 c 0
 212 -73 225 -60 241 -60 c 0
359 -60 m 0
 375 -60 388 -73 388 -89 c 0
 388 -106 375 -119 359 -119 c 0
 343 -119 329 -106 329 -89 c 0
 329 -73 343 -60 359 -60 c 0
EndSplineSet
Validated: 3073
EndChar

StartChar: afii57798
Encoding: 1463 1463 541
Width: 600
Flags: MW
LayerCount: 2
Fore
SplineSet
233 -60 m 2
 368 -60 l 2
 379 -60 388 -69 388 -80 c 0
 388 -92 379 -101 368 -101 c 2
 233 -101 l 2
 222 -101 212 -92 212 -80 c 0
 212 -69 222 -60 233 -60 c 2
EndSplineSet
Validated: 3073
EndChar

StartChar: afii57797
Encoding: 1464 1464 542
Width: 600
Flags: MW
LayerCount: 2
Fore
SplineSet
279 -101 m 1
 233 -101 l 2
 222 -101 212 -92 212 -80 c 0
 212 -69 222 -60 233 -60 c 2
 368 -60 l 2
 380 -60 389 -69 389 -80 c 0
 389 -92 380 -101 368 -101 c 2
 320 -101 l 1
 320 -200 l 2
 320 -211 311 -220 300 -220 c 0
 288 -220 279 -211 279 -200 c 2
 279 -101 l 1
EndSplineSet
Validated: 3073
EndChar

StartChar: afii57806
Encoding: 1465 1465 543
Width: 600
Flags: MW
LayerCount: 2
Fore
SplineSet
0 599 m 0
 16 599 29 586 29 569 c 0
 29 553 16 540 0 540 c 0
 -16 540 -29 553 -29 569 c 0
 -29 586 -16 599 0 599 c 0
EndSplineSet
Validated: 3073
EndChar

StartChar: afii57796
Encoding: 1467 1467 544
Width: 600
Flags: MW
LayerCount: 2
Fore
SplineSet
300 -119 m 0
 316 -119 329 -132 329 -148 c 0
 329 -164 316 -178 300 -178 c 0
 284 -178 271 -164 271 -148 c 0
 271 -132 284 -119 300 -119 c 0
182 -60 m 0
 199 -60 212 -73 212 -89 c 0
 212 -106 199 -119 182 -119 c 0
 166 -119 153 -106 153 -89 c 0
 153 -73 166 -60 182 -60 c 0
418 -178 m 0
 434 -178 447 -191 447 -207 c 0
 447 -223 434 -236 418 -236 c 0
 401 -236 388 -223 388 -207 c 0
 388 -191 401 -178 418 -178 c 0
EndSplineSet
Validated: 3073
EndChar

StartChar: afii57807
Encoding: 1468 1468 545
Width: 600
Flags: MW
LayerCount: 2
Fore
SplineSet
300 270 m 0
 316 270 329 257 329 241 c 0
 329 224 316 211 300 211 c 0
 284 211 271 224 271 241 c 0
 271 257 284 270 300 270 c 0
EndSplineSet
Validated: 3073
EndChar

StartChar: afii57839
Encoding: 1469 1469 546
Width: 600
Flags: MW
LayerCount: 2
Fore
SplineSet
280 -216 m 2
 280 -80 l 2
 280 -69 289 -60 300 -60 c 0
 311 -60 320 -69 320 -80 c 2
 320 -216 l 2
 320 -227 311 -236 300 -236 c 0
 289 -236 280 -227 280 -216 c 2
EndSplineSet
Validated: 3073
EndChar

StartChar: afii57645
Encoding: 1470 1470 547
Width: 600
Flags: MW
LayerCount: 2
Fore
SplineSet
110 480 m 2
 490 480 l 2
 518 480 540 458 540 430 c 0
 540 402 518 380 490 380 c 2
 110 380 l 2
 82 380 60 402 60 430 c 0
 60 458 82 480 110 480 c 2
EndSplineSet
Validated: 3073
EndChar

StartChar: afii57841
Encoding: 1471 1471 548
Width: 600
Flags: MW
LayerCount: 2
Fore
SplineSet
233 581 m 2
 368 581 l 2
 379 581 388 572 388 560 c 0
 388 549 379 540 368 540 c 2
 233 540 l 2
 222 540 212 549 212 560 c 0
 212 572 222 581 233 581 c 2
EndSplineSet
Validated: 3073
EndChar

StartChar: afii57842
Encoding: 1472 1472 549
Width: 600
Flags: MW
LayerCount: 2
Fore
SplineSet
300 622 m 0
 341 622 350 593 350 556 c 2
 350 -87 l 2
 350 -124 340 -153 300 -153 c 0
 260 -153 250 -123 250 -87 c 2
 250 556 l 2
 250 594 259 622 300 622 c 0
EndSplineSet
Validated: 3073
EndChar

StartChar: afii57804
Encoding: 1473 1473 550
Width: 600
Flags: MW
LayerCount: 2
Fore
SplineSet
549 599 m 0
 565 599 578 586 578 569 c 0
 578 553 565 540 549 540 c 0
 532 540 519 553 519 569 c 0
 519 586 532 599 549 599 c 0
EndSplineSet
Validated: 3073
EndChar

StartChar: afii57803
Encoding: 1474 1474 551
Width: 600
Flags: MW
LayerCount: 2
Fore
SplineSet
79 599 m 0
 95 599 108 586 108 569 c 0
 108 553 95 540 79 540 c 0
 62 540 49 553 49 569 c 0
 49 586 62 599 79 599 c 0
EndSplineSet
Validated: 3073
EndChar

StartChar: afii57658
Encoding: 1475 1475 552
Width: 600
Flags: MW
LayerCount: 2
Fore
SplineSet
309 -15 m 2
 291 -15 l 2
 255 -15 225 15 225 51 c 0
 225 87 255 117 291 117 c 2
 309 117 l 2
 346 117 375 88 375 51 c 0
 375 14 346 -15 309 -15 c 2
309 304 m 2
 291 304 l 2
 255 304 225 334 225 370 c 0
 225 407 255 437 291 437 c 2
 309 437 l 2
 346 437 375 408 375 370 c 0
 375 333 346 304 309 304 c 2
EndSplineSet
Validated: 3073
EndChar

StartChar: uni05C4
Encoding: 1476 1476 553
Width: 600
Flags: MW
LayerCount: 2
Fore
SplineSet
275 734 m 0
 292 734 305 721 305 704 c 0
 305 687 292 674 275 674 c 0
 258 674 245 687 245 704 c 0
 245 721 258 734 275 734 c 0
EndSplineSet
Validated: 3073
EndChar

StartChar: afii57664
Encoding: 1488 1488 554
Width: 600
Flags: MW
LayerCount: 2
Fore
SplineSet
150 420 m 0
 150 456 187 480 212 480 c 0
 225 480 236 475 244 465 c 2
 424 237 l 1
 476 259 499 278 504 303 c 0
 521 380 l 1
 507 380 l 2
 484 380 467 397 467 419 c 0
 467 446 492 480 529 480 c 2
 642 480 l 1
 604 303 l 1
 587 230 535 190 483 162 c 1
 544 85 l 2
 549 78 552 70 552 61 c 0
 552 25 516 0 490 0 c 0
 477 0 466 5 458 15 c 2
 277 244 l 1
 226 223 205 207 198 177 c 0
 181 100 l 1
 195 100 l 2
 218 100 235 83 235 61 c 0
 235 34 210 0 173 0 c 2
 60 0 l 1
 98 177 l 1
 114 250 166 292 218 319 c 1
 159 395 l 1
 153 402 150 411 150 420 c 0
EndSplineSet
Validated: 3073
EndChar

StartChar: afii57665
Encoding: 1489 1489 555
Width: 600
Flags: MW
LayerCount: 2
Fore
SplineSet
70 39 m 0
 70 77 106 100 131 100 c 2
 366 100 l 1
 409 303 l 1
 413 322 415 332 415 340 c 0
 415 348 413 354 405 363 c 0
 391 380 388 379 349 380 c 2
 191 380 l 2
 166 380 150 397 150 420 c 0
 150 447 176 480 212 480 c 2
 377 480 l 2
 489 480 517 408 517 357 c 0
 517 338 513 320 509 303 c 0
 466 100 l 1
 511 100 l 2
 536 100 552 83 552 60 c 0
 552 33 526 0 490 0 c 2
 110 0 l 2
 86 0 70 16 70 39 c 0
EndSplineSet
Validated: 3073
EndChar

StartChar: afii57666
Encoding: 1490 1490 556
Width: 600
Flags: MW
LayerCount: 2
Fore
SplineSet
174 0 m 0
 151 0 133 16 133 40 c 0
 133 74 223 193 392 221 c 1
 409 303 l 1
 413 323 415 333 415 340 c 0
 415 370 388 380 349 380 c 2
 286 380 l 2
 261 380 245 397 245 420 c 0
 245 447 271 480 307 480 c 2
 370 480 l 2
 487 480 517 413 517 358 c 0
 517 339 513 321 509 303 c 0
 484 183 l 1
 488 62 l 1
 488 60 l 2
 488 25 454 0 427 0 c 0
 405 0 387 15 386 38 c 0
 384 121 l 1
 281 104 245 50 219 22 c 0
 207 8 190 0 174 0 c 0
EndSplineSet
Validated: 3073
EndChar

StartChar: afii57667
Encoding: 1491 1491 557
Width: 600
Flags: MW
LayerCount: 2
Fore
SplineSet
632 441 m 0
 632 403 596 380 571 380 c 2
 526 380 l 1
 456 50 l 2
 450 22 423 0 395 0 c 0
 371 0 355 16 355 39 c 0
 355 43 355 46 356 50 c 2
 426 380 l 1
 191 380 l 2
 166 380 150 397 150 420 c 0
 150 447 176 480 212 480 c 2
 592 480 l 2
 616 480 632 464 632 441 c 0
EndSplineSet
Validated: 3073
EndChar

StartChar: afii57668
Encoding: 1492 1492 558
Width: 600
Flags: MW
LayerCount: 2
Fore
SplineSet
105 50 m 2
 142 222 l 2
 148 250 175 272 203 272 c 0
 226 272 243 255 243 233 c 0
 243 229 243 226 242 222 c 2
 205 50 l 2
 199 22 172 0 145 0 c 0
 121 0 104 17 104 39 c 0
 104 43 104 46 105 50 c 2
472 480 m 0
 584 480 612 408 612 357 c 0
 612 338 608 320 604 303 c 0
 551 50 l 2
 545 22 518 0 490 0 c 0
 466 0 450 16 450 39 c 0
 450 43 450 46 451 50 c 2
 504 303 l 1
 508 322 510 332 510 340 c 0
 510 348 508 353 500 363 c 0
 487 380 482 379 444 380 c 2
 191 380 l 2
 166 380 150 397 150 420 c 0
 150 447 176 480 212 480 c 0
 264 480 420 480 472 480 c 0
EndSplineSet
Validated: 3073
EndChar

StartChar: afii57669
Encoding: 1493 1493 559
Width: 600
Flags: MW
LayerCount: 2
Fore
SplineSet
240 420 m 0
 240 447 266 480 302 480 c 2
 480 480 l 1
 389 50 l 2
 383 22 356 0 328 0 c 0
 304 0 288 16 288 39 c 0
 288 43 288 46 289 50 c 2
 359 380 l 1
 281 380 l 2
 256 380 240 397 240 420 c 0
EndSplineSet
Validated: 3073
EndChar

StartChar: afii57670
Encoding: 1494 1494 560
Width: 600
Flags: MW
LayerCount: 2
Fore
SplineSet
569 441 m 0
 569 414 544 380 507 380 c 2
 431 380 l 1
 361 50 l 2
 355 22 328 0 300 0 c 0
 276 0 260 16 260 39 c 0
 260 43 260 46 261 50 c 2
 331 380 l 1
 254 380 l 2
 231 380 214 397 214 419 c 0
 214 445 238 480 275 480 c 2
 529 480 l 2
 552 480 569 463 569 441 c 0
EndSplineSet
Validated: 3073
EndChar

StartChar: afii57671
Encoding: 1495 1495 561
Width: 600
Flags: MW
LayerCount: 2
Fore
SplineSet
510 338 m 0
 510 379 474 379 444 380 c 2
 340 380 l 1
 273 325 l 2
 254 309 252 305 250 297 c 0
 198 50 l 2
 192 22 165 0 137 0 c 0
 114 0 97 17 97 39 c 0
 97 43 97 46 98 50 c 2
 150 297 l 1
 155 347 173 359 199 380 c 1
 191 380 l 2
 166 380 150 397 150 420 c 0
 150 447 176 480 212 480 c 2
 472 480 l 2
 583 480 611 409 611 357 c 0
 611 338 608 320 604 303 c 0
 551 50 l 2
 545 22 518 0 490 0 c 0
 466 0 450 16 450 39 c 0
 450 43 450 46 451 50 c 2
 504 303 l 2
 508 321 510 331 510 338 c 0
EndSplineSet
Validated: 3073
EndChar

StartChar: afii57672
Encoding: 1496 1496 562
Width: 600
Flags: MW
LayerCount: 2
Fore
SplineSet
240 141 m 0
 240 101 275 101 305 100 c 2
 369 100 l 2
 407 101 443 99 462 177 c 2
 505 380 l 1
 498 380 l 1
 382 273 l 1
 370 260 353 253 338 253 c 0
 315 253 297 269 297 292 c 0
 297 306 302 322 315 333 c 0
 481 480 l 1
 626 480 l 1
 562 177 l 2
 527 4 391 0 344 0 c 0
 341 0 339 0 337 0 c 2
 277 0 l 2
 166 0 138 71 138 123 c 0
 138 142 141 160 145 177 c 0
 188 380 l 1
 175 380 l 2
 150 380 134 397 134 420 c 0
 134 447 160 480 196 480 c 2
 309 480 l 1
 245 177 l 1
 242 160 240 149 240 141 c 0
EndSplineSet
Validated: 3073
EndChar

StartChar: afii57673
Encoding: 1497 1497 563
Width: 600
Flags: MW
LayerCount: 2
Fore
SplineSet
234 420 m 0
 234 447 260 480 296 480 c 2
 468 480 l 1
 417 240 l 2
 411 212 384 190 356 190 c 0
 333 190 316 207 316 229 c 0
 316 233 316 236 317 240 c 2
 347 380 l 1
 275 380 l 2
 250 380 234 397 234 420 c 0
EndSplineSet
Validated: 3073
EndChar

StartChar: afii57674
Encoding: 1498 1498 564
Width: 600
Flags: MW
LayerCount: 2
Fore
SplineSet
432 480 m 0
 544 480 572 408 572 357 c 0
 572 338 568 320 564 303 c 0
 468 -150 l 2
 462 -178 435 -200 407 -200 c 0
 384 -200 367 -183 367 -161 c 0
 367 -157 367 -154 368 -150 c 2
 464 303 l 1
 468 322 470 332 470 340 c 0
 470 348 468 353 460 363 c 0
 447 380 442 379 404 380 c 2
 191 380 l 2
 166 380 150 397 150 420 c 0
 150 447 176 480 212 480 c 0
 256 480 388 480 432 480 c 0
EndSplineSet
Validated: 3073
EndChar

StartChar: afii57675
Encoding: 1499 1499 565
Width: 600
Flags: MW
LayerCount: 2
Fore
SplineSet
431 480 m 0
 542 480 570 410 570 357 c 0
 570 339 567 320 563 303 c 0
 536 177 l 2
 520 86 452 0 329 0 c 2
 110 0 l 2
 86 0 70 16 70 39 c 0
 70 77 106 100 131 100 c 2
 344 100 l 2
 388 101 419 101 436 177 c 2
 463 303 l 1
 467 321 469 331 469 338 c 0
 469 379 433 379 403 380 c 2
 191 380 l 2
 166 380 150 397 150 420 c 0
 150 447 176 480 212 480 c 0
 256 480 387 480 431 480 c 0
EndSplineSet
Validated: 3073
EndChar

StartChar: afii57676
Encoding: 1500 1500 566
Width: 600
Flags: MW
LayerCount: 2
Fore
SplineSet
268 0 m 0
 244 0 228 17 228 40 c 0
 228 56 236 73 251 85 c 2
 482 275 l 1
 497 289 502 295 504 303 c 2
 521 380 l 1
 141 380 l 1
 183 579 l 2
 189 607 216 629 244 629 c 0
 267 629 284 612 284 590 c 0
 284 586 284 583 283 579 c 2
 262 480 l 1
 642 480 l 1
 604 303 l 1
 597 260 561 224 537 205 c 2
 307 15 l 2
 295 5 281 0 268 0 c 0
EndSplineSet
Validated: 3073
EndChar

StartChar: afii57677
Encoding: 1501 1501 567
Width: 600
Flags: MW
LayerCount: 2
Fore
SplineSet
497 338 m 0
 497 373 469 381 431 381 c 0
 413 381 393 379 376 379 c 0
 370 379 364 380 358 380 c 1
 260 300 l 1
 241 283 240 279 237 272 c 1
 201 100 l 1
 449 100 l 1
 492 303 l 1
 495 320 497 330 497 338 c 0
460 480 m 0
 572 480 600 409 600 357 c 0
 600 338 596 320 592 303 c 0
 528 0 l 1
 80 0 l 1
 137 272 l 1
 148 325 185 352 216 380 c 1
 179 380 l 2
 154 380 138 397 138 420 c 0
 138 447 164 480 200 480 c 0
 252 480 408 480 460 480 c 0
EndSplineSet
Validated: 3073
EndChar

StartChar: afii57678
Encoding: 1502 1502 568
Width: 600
Flags: MW
LayerCount: 2
Fore
SplineSet
115 420 m 0
 115 447 141 480 177 480 c 2
 294 480 l 1
 271 371 l 1
 404 480 l 1
 458 480 l 2
 549 480 611 449 611 357 c 0
 611 338 608 320 604 303 c 0
 540 0 l 1
 345 0 l 2
 321 0 305 16 305 39 c 0
 305 77 341 100 366 100 c 2
 461 100 l 1
 504 303 l 1
 507 320 509 331 509 339 c 0
 509 377 479 379 444 380 c 2
 419 380 l 1
 263 255 l 2
 243 238 247 241 239 222 c 2
 202 50 l 2
 196 22 169 0 142 0 c 0
 118 0 101 17 101 39 c 0
 101 43 101 46 102 50 c 2
 172 380 l 1
 156 380 l 2
 131 380 115 397 115 420 c 0
EndSplineSet
Validated: 3073
EndChar

StartChar: afii57679
Encoding: 1503 1503 569
Width: 600
Flags: MW
LayerCount: 2
Fore
SplineSet
240 420 m 0
 240 447 266 480 302 480 c 2
 480 480 l 1
 346 -150 l 2
 340 -178 313 -200 285 -200 c 0
 262 -200 245 -183 245 -161 c 0
 245 -157 245 -154 246 -150 c 2
 359 380 l 1
 281 380 l 2
 256 380 240 397 240 420 c 0
EndSplineSet
Validated: 3073
EndChar

StartChar: afii57680
Encoding: 1504 1504 570
Width: 600
Flags: MW
LayerCount: 2
Fore
SplineSet
377 480 m 0
 488 480 516 409 516 357 c 0
 516 338 513 320 509 303 c 0
 445 0 l 1
 173 0 l 1
 150 0 133 17 133 39 c 0
 133 66 158 100 195 100 c 2
 366 100 l 1
 409 303 l 1
 413 321 415 331 415 339 c 0
 415 348 413 354 405 363 c 0
 391 380 388 379 349 380 c 2
 317 380 l 2
 294 380 277 397 277 419 c 0
 277 446 302 480 339 480 c 0
 347 480 369 480 377 480 c 0
EndSplineSet
Validated: 3073
EndChar

StartChar: afii57681
Encoding: 1505 1505 571
Width: 600
Flags: MW
LayerCount: 2
Fore
SplineSet
509 339 m 0
 509 373 481 381 443 381 c 0
 425 381 405 379 388 379 c 0
 382 379 376 380 370 380 c 1
 272 300 l 2
 256 286 251 280 249 272 c 0
 229 177 l 1
 226 161 224 151 224 143 c 0
 224 108 252 99 291 99 c 0
 309 99 329 101 346 101 c 0
 352 101 358 100 364 100 c 1
 461 180 l 2
 477 194 482 200 484 208 c 0
 504 303 l 1
 507 320 509 331 509 339 c 0
275 -1 m 0
 145 -1 122 73 122 127 c 0
 122 175 141 223 149 272 c 0
 158 323 198 355 228 380 c 1
 191 380 l 2
 166 380 150 397 150 420 c 0
 150 447 176 480 212 480 c 2
 472 480 l 2
 583 480 611 409 611 357 c 0
 611 338 608 320 604 303 c 0
 584 208 l 1
 577 165 541 129 517 110 c 2
 384 0 l 1
 374 0 365 1 355 1 c 0
 327 1 300 -1 275 -1 c 0
EndSplineSet
Validated: 3073
EndChar

StartChar: afii57682
Encoding: 1506 1506 572
Width: 600
Flags: MW
LayerCount: 2
Fore
SplineSet
70 39 m 0
 70 77 106 100 131 100 c 2
 231 100 l 1
 243 380 l 1
 191 380 l 2
 166 380 150 397 150 420 c 0
 150 447 176 480 212 480 c 2
 349 480 l 1
 332 100 l 1
 353 100 l 2
 425 100 428 125 448 183 c 2
 514 380 l 1
 476 380 l 2
 451 380 435 397 435 420 c 0
 435 447 461 480 497 480 c 2
 649 480 l 1
 544 170 l 2
 527 121 494 0 339 0 c 2
 110 0 l 2
 86 0 70 16 70 39 c 0
EndSplineSet
Validated: 3073
EndChar

StartChar: afii57683
Encoding: 1507 1507 573
Width: 600
Flags: MW
LayerCount: 2
Fore
SplineSet
509 339 m 0
 509 373 481 381 443 381 c 0
 425 381 405 379 388 379 c 0
 382 379 376 380 370 380 c 1
 272 300 l 1
 250 280 251 280 246 256 c 1
 330 256 l 2
 354 256 371 239 371 217 c 0
 371 190 346 156 309 156 c 2
 125 156 l 1
 149 272 l 1
 158 323 198 355 228 380 c 1
 191 380 l 2
 166 380 150 397 150 420 c 0
 150 447 176 480 212 480 c 2
 472 480 l 2
 583 480 611 409 611 357 c 0
 611 338 608 320 604 303 c 0
 508 -150 l 2
 502 -178 475 -200 447 -200 c 0
 424 -200 407 -183 407 -161 c 0
 407 -157 407 -154 408 -150 c 2
 504 303 l 1
 507 320 509 331 509 339 c 0
EndSplineSet
Validated: 3073
EndChar

StartChar: afii57684
Encoding: 1508 1508 574
Width: 600
Flags: MW
LayerCount: 2
Fore
SplineSet
70 39 m 0
 70 77 106 100 131 100 c 2
 385 100 l 2
 423 101 457 99 478 177 c 2
 504 303 l 1
 508 322 510 332 510 340 c 0
 510 348 508 354 500 363 c 0
 486 380 483 379 444 380 c 2
 370 380 l 1
 261 290 l 1
 338 290 l 2
 361 290 378 273 378 251 c 0
 378 224 353 190 316 190 c 2
 132 190 l 1
 152 288 147 311 228 380 c 1
 191 380 l 2
 166 380 150 397 150 420 c 0
 150 447 176 480 212 480 c 2
 472 480 l 2
 584 480 612 408 612 357 c 0
 612 338 607 320 604 303 c 0
 578 177 l 2
 544 7 402 0 370 0 c 2
 110 0 l 2
 86 0 70 16 70 39 c 0
EndSplineSet
Validated: 3073
EndChar

StartChar: afii57685
Encoding: 1509 1509 575
Width: 600
Flags: MW
LayerCount: 2
Fore
SplineSet
150 420 m 0
 150 447 176 480 212 480 c 2
 357 480 l 1
 331 360 l 1
 359 278 l 1
 519 373 l 1
 521 380 l 1
 476 380 l 2
 451 380 435 397 435 420 c 0
 435 447 461 480 497 480 c 2
 642 480 l 1
 608 320 l 1
 372 180 l 1
 302 -150 l 2
 296 -178 269 -200 242 -200 c 0
 218 -200 201 -183 201 -161 c 0
 201 -157 201 -154 202 -150 c 2
 275 191 l 1
 229 347 l 1
 236 380 l 1
 191 380 l 2
 166 380 150 397 150 420 c 0
EndSplineSet
Validated: 3073
EndChar

StartChar: afii57686
Encoding: 1510 1510 576
Width: 600
Flags: MW
LayerCount: 2
Fore
SplineSet
138 420 m 0
 138 447 164 480 200 480 c 2
 345 480 l 1
 321 367 l 1
 392 295 l 1
 506 369 l 1
 509 380 l 1
 464 380 l 2
 439 380 423 397 423 420 c 0
 423 447 449 480 485 480 c 2
 630 480 l 1
 596 319 l 1
 456 229 l 1
 555 127 l 1
 528 0 l 1
 98 0 l 2
 74 0 58 16 58 39 c 0
 58 77 94 100 119 100 c 2
 426 100 l 1
 211 320 l 1
 224 380 l 1
 179 380 l 2
 154 380 138 397 138 420 c 0
EndSplineSet
Validated: 3073
EndChar

StartChar: afii57687
Encoding: 1511 1511 577
Width: 600
Flags: MW
LayerCount: 2
Fore
SplineSet
140 420 m 0
 140 447 166 480 202 480 c 2
 632 480 l 1
 579 230 l 2
 573 189 529 140 508 129 c 2
 372 14 l 1
 360 4 346 0 333 0 c 0
 309 0 293 17 293 39 c 0
 293 55 301 72 316 85 c 2
 459 204 l 2
 468 212 476 218 479 230 c 0
 511 380 l 1
 181 380 l 2
 156 380 140 397 140 420 c 0
261 222 m 0
 181 -150 l 1
 176 -178 148 -200 121 -200 c 0
 96 -200 80 -183 80 -160 c 0
 80 -156 80 -153 81 -150 c 0
 161 222 l 1
 166 250 194 272 221 272 c 0
 246 272 262 255 262 232 c 0
 262 228 262 225 261 222 c 0
EndSplineSet
Validated: 3073
EndChar

StartChar: afii57688
Encoding: 1512 1512 578
Width: 600
Flags: MW
LayerCount: 2
Fore
SplineSet
472 480 m 0
 584 480 612 408 612 357 c 0
 612 338 608 320 604 303 c 0
 551 50 l 2
 545 22 518 0 490 0 c 0
 466 0 450 16 450 39 c 0
 450 43 450 46 451 50 c 2
 504 303 l 1
 508 322 510 332 510 340 c 0
 510 348 508 353 500 363 c 0
 487 380 482 379 444 380 c 2
 191 380 l 2
 166 380 150 397 150 420 c 0
 150 447 176 480 212 480 c 0
 264 480 420 480 472 480 c 0
EndSplineSet
Validated: 3073
EndChar

StartChar: afii57689
Encoding: 1513 1513 579
Width: 600
Flags: MW
LayerCount: 2
Fore
SplineSet
286 441 m 0
 286 427 275 380 232 380 c 1
 172 100 l 1
 241 100 l 1
 338 385 l 1
 324 393 318 405 318 419 c 0
 318 447 344 480 380 480 c 2
 443 480 l 2
 467 480 483 464 483 441 c 0
 483 404 449 386 437 382 c 1
 342 100 l 1
 376 100 l 2
 418 102 441 100 470 183 c 2
 537 380 l 1
 515 380 506 394 506 414 c 0
 506 469 556 480 569 480 c 2
 671 480 l 1
 567 170 l 2
 525 42 438 0 363 0 c 2
 51 0 l 1
 153 480 l 1
 246 480 l 2
 270 480 286 464 286 441 c 0
EndSplineSet
Validated: 3073
EndChar

StartChar: afii57690
Encoding: 1514 1514 580
Width: 600
Flags: MW
LayerCount: 2
Fore
SplineSet
472 480 m 0
 584 480 612 408 612 357 c 0
 612 338 608 320 604 303 c 0
 551 50 l 2
 545 22 518 0 490 0 c 0
 466 0 450 16 450 39 c 0
 450 43 450 46 451 50 c 2
 504 303 l 1
 508 322 510 332 510 340 c 0
 510 348 508 353 500 363 c 0
 487 380 482 379 444 380 c 2
 336 380 l 1
 286 145 l 2
 274 75 217 0 116 0 c 2
 78 0 l 2
 55 0 38 17 38 39 c 0
 38 66 63 100 100 100 c 2
 131 100 l 2
 162 101 174 98 186 145 c 2
 236 380 l 1
 191 380 l 2
 166 380 150 397 150 420 c 0
 150 447 176 480 212 480 c 0
 264 480 420 480 472 480 c 0
EndSplineSet
Validated: 3073
EndChar

StartChar: afii57716
Encoding: 1520 1520 581
Width: 600
Flags: MW
LayerCount: 2
Fore
SplineSet
126 420 m 0
 126 447 152 480 188 480 c 2
 366 480 l 1
 275 50 l 2
 269 22 242 0 214 0 c 0
 190 0 174 16 174 39 c 0
 174 43 174 46 175 50 c 2
 245 380 l 1
 167 380 l 2
 142 380 126 397 126 420 c 0
398 420 m 0
 398 447 424 480 460 480 c 2
 638 480 l 1
 547 50 l 2
 541 22 514 0 486 0 c 0
 462 0 446 16 446 39 c 0
 446 43 446 46 447 50 c 2
 517 380 l 1
 439 380 l 2
 414 380 398 397 398 420 c 0
EndSplineSet
Validated: 3073
EndChar

StartChar: afii57717
Encoding: 1521 1521 582
Width: 600
Flags: MW
LayerCount: 2
Fore
SplineSet
398 420 m 0
 398 447 424 480 460 480 c 2
 638 480 l 1
 547 50 l 2
 541 22 514 0 486 0 c 0
 462 0 446 16 446 39 c 0
 446 43 446 46 447 50 c 2
 517 380 l 1
 439 380 l 2
 414 380 398 397 398 420 c 0
132 420 m 0
 132 447 158 480 194 480 c 2
 366 480 l 1
 315 240 l 2
 309 212 282 190 254 190 c 0
 231 190 214 207 214 229 c 0
 214 233 214 236 215 240 c 2
 245 380 l 1
 173 380 l 2
 148 380 132 397 132 420 c 0
EndSplineSet
Validated: 3073
EndChar

StartChar: afii57718
Encoding: 1522 1522 583
Width: 600
Flags: MW
LayerCount: 2
Fore
SplineSet
132 420 m 0
 132 447 158 480 194 480 c 2
 366 480 l 1
 315 240 l 2
 309 212 282 190 254 190 c 0
 231 190 214 207 214 229 c 0
 214 233 214 236 215 240 c 2
 245 380 l 1
 173 380 l 2
 148 380 132 397 132 420 c 0
404 420 m 0
 404 447 430 480 466 480 c 2
 638 480 l 1
 587 240 l 2
 581 212 554 190 526 190 c 0
 503 190 486 207 486 229 c 0
 486 233 486 236 487 240 c 2
 517 380 l 1
 445 380 l 2
 420 380 404 397 404 420 c 0
EndSplineSet
Validated: 3073
EndChar

StartChar: uni05F3
Encoding: 1523 1523 584
Width: 600
Flags: MW
LayerCount: 2
Fore
SplineSet
254 605 m 1
 395 605 l 1
 314 351 l 2
 306 326 298 315 276 315 c 0
 256 315 242 324 242 348 c 0
 242 348 242 349 242 350 c 0
 254 605 l 1
EndSplineSet
Validated: 3073
EndChar

StartChar: uni05F4
Encoding: 1524 1524 585
Width: 600
Flags: MW
LayerCount: 2
Fore
SplineSet
152 605 m 1
 293 605 l 1
 212 351 l 1
 203 326 196 315 174 315 c 0
 154 315 140 324 140 348 c 0
 140 348 140 349 140 350 c 0
 152 605 l 1
372 605 m 1
 513 605 l 1
 432 351 l 2
 424 326 416 315 394 315 c 0
 374 315 360 324 360 348 c 0
 360 348 360 349 360 350 c 0
 372 605 l 1
EndSplineSet
Validated: 3073
EndChar

StartChar: endash
Encoding: 8211 8211 586
Width: 600
Flags: MW
LayerCount: 2
Fore
SplineSet
619 290 m 0
 619 265 603 229 541 229 c 2
 158 229 l 2
 117 229 101 240 101 269 c 0
 101 294 117 329 179 329 c 2
 562 329 l 2
 595 329 619 324 619 290 c 0
EndSplineSet
Validated: 3073
EndChar

StartChar: emdash
Encoding: 8212 8212 587
Width: 600
Flags: MW
LayerCount: 2
Fore
SplineSet
642 290 m 0
 642 265 626 229 564 229 c 2
 39 229 l 2
 -2 229 -18 240 -18 269 c 0
 -18 294 -2 329 60 329 c 2
 585 329 l 2
 618 329 642 324 642 290 c 0
EndSplineSet
Validated: 3073
EndChar

StartChar: quoteright
Encoding: 8217 8217 590
Width: 600
Flags: HMW
LayerCount: 2
Fore
SplineSet
277.852 623 m 5
 409.852 623 l 5
 394.12 528 l 5
 272.596 355 l 6
 261.774 339 248.364 331 236.364 331 c 4
 219.364 331 207.656 344 210.302 359 c 4
 211.359 365 211.712 367 216.651 378 c 6
 285.346 528 l 5
 277.852 623 l 5
EndSplineSet
EndChar

StartChar: dagger
Encoding: 8224 8224 595
Width: 600
Flags: MW
LayerCount: 2
Fore
SplineSet
589 397 m 0
 589 372 573 337 510 337 c 2
 421 337 l 1
 344 -26 l 2
 333 -86 295 -92 280 -92 c 0
 258 -92 240 -76 240 -55 c 0
 240 -48 241 -42 244 -26 c 0
 321 337 l 1
 231 337 l 2
 198 337 175 342 175 377 c 0
 175 401 191 437 253 437 c 2
 343 437 l 1
 368 556 l 2
 371 570 381 622 432 622 c 0
 455 622 472 606 472 584 c 0
 472 577 471 572 468 556 c 0
 443 437 l 1
 532 437 l 2
 565 437 589 432 589 397 c 0
EndSplineSet
Validated: 3073
EndChar

StartChar: daggerdbl
Encoding: 8225 8225 596
Width: 600
Flags: MW
LayerCount: 2
Fore
SplineSet
589 397 m 0
 589 372 573 337 510 337 c 2
 421 337 l 1
 391 193 l 1
 480 193 l 2
 514 193 537 188 537 153 c 0
 537 127 521 93 459 93 c 2
 369 93 l 1
 344 -26 l 2
 341 -40 332 -92 280 -92 c 0
 258 -92 240 -76 240 -55 c 0
 240 -48 241 -40 244 -26 c 2
 269 93 l 1
 179 93 l 2
 148 93 123 97 123 133 c 0
 123 157 138 193 200 193 c 2
 291 193 l 1
 321 337 l 1
 231 337 l 2
 198 337 175 342 175 377 c 0
 175 401 190 437 252 437 c 2
 343 437 l 1
 368 556 l 2
 371 572 381 622 432 622 c 0
 455 622 472 606 472 584 c 0
 472 577 471 572 468 556 c 0
 442 437 l 1
 532 437 l 2
 565 437 589 432 589 397 c 0
EndSplineSet
Validated: 3073
EndChar

StartChar: bullet
Encoding: 8226 8226 597
Width: 600
Flags: MW
LayerCount: 2
Fore
SplineSet
395 453 m 0
 467 453 517 404 517 334 c 0
 517 242 427 154 331 154 c 0
 261 154 211 204 211 273 c 0
 211 365 301 453 395 453 c 0
EndSplineSet
Validated: 3073
EndChar

StartChar: ellipsis
Encoding: 8230 8230 598
Width: 600
Flags: MW
LayerCount: 2
Fore
SplineSet
105 -15 m 2
 88 -15 l 2
 56 -15 34 7 34 38 c 0
 34 78 74 117 116 117 c 2
 133 117 l 2
 165 117 187 95 187 65 c 0
 187 24 147 -15 105 -15 c 2
305 -15 m 2
 288 -15 l 2
 256 -15 234 7 234 38 c 0
 234 78 274 117 316 117 c 2
 333 117 l 2
 365 117 387 95 387 65 c 0
 387 24 347 -15 305 -15 c 2
505 -15 m 2
 488 -15 l 2
 456 -15 434 7 434 38 c 0
 434 78 474 117 516 117 c 2
 533 117 l 2
 565 117 587 95 587 65 c 0
 587 24 547 -15 505 -15 c 2
EndSplineSet
Validated: 3073
EndChar

